<mxfile host="app.diagrams.net" modified="2021-07-09T19:22:32.456Z" agent="5.0 (Windows)" etag="xk25N-A1qUosOqVgYQWR" version="14.8.5" type="github">
  <diagram id="KxuiyelQ4g_LW83yEsCo" name="Page-1">
    <mxGraphModel dx="1422" dy="763" grid="1" gridSize="10" guides="1" tooltips="1" connect="1" arrows="1" fold="1" page="1" pageScale="1" pageWidth="4681" pageHeight="3300" math="0" shadow="0">
      <root>
        <mxCell id="0" />
        <mxCell id="1" parent="0" />
        <mxCell id="44AiBCDxBOzTBdy34bFM-1" value="" style="rounded=0;whiteSpace=wrap;html=1;" parent="1" vertex="1">
          <mxGeometry x="80" y="80" width="40" height="160" as="geometry" />
        </mxCell>
        <mxCell id="44AiBCDxBOzTBdy34bFM-2" value="" style="rounded=0;whiteSpace=wrap;html=1;" parent="1" vertex="1">
          <mxGeometry x="80" y="120" width="40" height="40" as="geometry" />
        </mxCell>
        <mxCell id="44AiBCDxBOzTBdy34bFM-3" value="" style="rounded=0;whiteSpace=wrap;html=1;" parent="1" vertex="1">
          <mxGeometry x="80" y="160" width="40" height="40" as="geometry" />
        </mxCell>
        <mxCell id="44AiBCDxBOzTBdy34bFM-4" value="" style="rounded=0;whiteSpace=wrap;html=1;" parent="1" vertex="1">
          <mxGeometry x="80" y="200" width="40" height="40" as="geometry" />
        </mxCell>
        <mxCell id="44AiBCDxBOzTBdy34bFM-5" value="" style="rounded=0;whiteSpace=wrap;html=1;fillColor=#ffe6cc;strokeColor=#d79b00;" parent="1" vertex="1">
          <mxGeometry x="80" y="80" width="40" height="40" as="geometry" />
        </mxCell>
        <mxCell id="44AiBCDxBOzTBdy34bFM-6" value="&lt;div&gt;A&lt;/div&gt;" style="text;html=1;strokeColor=none;fillColor=none;align=center;verticalAlign=middle;whiteSpace=wrap;rounded=0;" parent="1" vertex="1">
          <mxGeometry x="80" y="90" width="40" height="20" as="geometry" />
        </mxCell>
        <mxCell id="44AiBCDxBOzTBdy34bFM-7" value="C" style="text;html=1;strokeColor=none;fillColor=none;align=center;verticalAlign=middle;whiteSpace=wrap;rounded=0;" parent="1" vertex="1">
          <mxGeometry x="80" y="130" width="40" height="20" as="geometry" />
        </mxCell>
        <mxCell id="44AiBCDxBOzTBdy34bFM-8" value="G" style="text;html=1;strokeColor=none;fillColor=none;align=center;verticalAlign=middle;whiteSpace=wrap;rounded=0;" parent="1" vertex="1">
          <mxGeometry x="80" y="170" width="40" height="20" as="geometry" />
        </mxCell>
        <mxCell id="44AiBCDxBOzTBdy34bFM-9" value="T" style="text;html=1;strokeColor=none;fillColor=none;align=center;verticalAlign=middle;whiteSpace=wrap;rounded=0;" parent="1" vertex="1">
          <mxGeometry x="80" y="210" width="40" height="20" as="geometry" />
        </mxCell>
        <mxCell id="44AiBCDxBOzTBdy34bFM-11" value="" style="rounded=0;whiteSpace=wrap;html=1;" parent="1" vertex="1">
          <mxGeometry x="120" y="80" width="40" height="160" as="geometry" />
        </mxCell>
        <mxCell id="44AiBCDxBOzTBdy34bFM-12" value="" style="rounded=0;whiteSpace=wrap;html=1;fillColor=#dae8fc;strokeColor=#6c8ebf;" parent="1" vertex="1">
          <mxGeometry x="120" y="120" width="40" height="40" as="geometry" />
        </mxCell>
        <mxCell id="44AiBCDxBOzTBdy34bFM-13" value="" style="rounded=0;whiteSpace=wrap;html=1;" parent="1" vertex="1">
          <mxGeometry x="120" y="160" width="40" height="40" as="geometry" />
        </mxCell>
        <mxCell id="44AiBCDxBOzTBdy34bFM-14" value="" style="rounded=0;whiteSpace=wrap;html=1;" parent="1" vertex="1">
          <mxGeometry x="120" y="200" width="40" height="40" as="geometry" />
        </mxCell>
        <mxCell id="44AiBCDxBOzTBdy34bFM-15" value="" style="rounded=0;whiteSpace=wrap;html=1;" parent="1" vertex="1">
          <mxGeometry x="120" y="80" width="40" height="40" as="geometry" />
        </mxCell>
        <mxCell id="44AiBCDxBOzTBdy34bFM-16" value="&lt;div&gt;A&lt;/div&gt;" style="text;html=1;strokeColor=none;fillColor=none;align=center;verticalAlign=middle;whiteSpace=wrap;rounded=0;" parent="1" vertex="1">
          <mxGeometry x="120" y="90" width="40" height="20" as="geometry" />
        </mxCell>
        <mxCell id="44AiBCDxBOzTBdy34bFM-17" value="C" style="text;html=1;strokeColor=none;fillColor=none;align=center;verticalAlign=middle;whiteSpace=wrap;rounded=0;" parent="1" vertex="1">
          <mxGeometry x="120" y="130" width="40" height="20" as="geometry" />
        </mxCell>
        <mxCell id="44AiBCDxBOzTBdy34bFM-18" value="G" style="text;html=1;strokeColor=none;fillColor=none;align=center;verticalAlign=middle;whiteSpace=wrap;rounded=0;" parent="1" vertex="1">
          <mxGeometry x="120" y="170" width="40" height="20" as="geometry" />
        </mxCell>
        <mxCell id="44AiBCDxBOzTBdy34bFM-19" value="T" style="text;html=1;strokeColor=none;fillColor=none;align=center;verticalAlign=middle;whiteSpace=wrap;rounded=0;" parent="1" vertex="1">
          <mxGeometry x="120" y="210" width="40" height="20" as="geometry" />
        </mxCell>
        <mxCell id="44AiBCDxBOzTBdy34bFM-20" value="" style="rounded=0;whiteSpace=wrap;html=1;" parent="1" vertex="1">
          <mxGeometry x="120" y="80" width="40" height="160" as="geometry" />
        </mxCell>
        <mxCell id="44AiBCDxBOzTBdy34bFM-21" value="" style="rounded=0;whiteSpace=wrap;html=1;fillColor=#dae8fc;strokeColor=#6c8ebf;" parent="1" vertex="1">
          <mxGeometry x="120" y="120" width="40" height="40" as="geometry" />
        </mxCell>
        <mxCell id="44AiBCDxBOzTBdy34bFM-22" value="" style="rounded=0;whiteSpace=wrap;html=1;" parent="1" vertex="1">
          <mxGeometry x="120" y="160" width="40" height="40" as="geometry" />
        </mxCell>
        <mxCell id="44AiBCDxBOzTBdy34bFM-23" value="" style="rounded=0;whiteSpace=wrap;html=1;" parent="1" vertex="1">
          <mxGeometry x="120" y="200" width="40" height="40" as="geometry" />
        </mxCell>
        <mxCell id="44AiBCDxBOzTBdy34bFM-24" value="" style="rounded=0;whiteSpace=wrap;html=1;" parent="1" vertex="1">
          <mxGeometry x="120" y="80" width="40" height="40" as="geometry" />
        </mxCell>
        <mxCell id="44AiBCDxBOzTBdy34bFM-25" value="&lt;div&gt;A&lt;/div&gt;" style="text;html=1;strokeColor=none;fillColor=none;align=center;verticalAlign=middle;whiteSpace=wrap;rounded=0;" parent="1" vertex="1">
          <mxGeometry x="120" y="90" width="40" height="20" as="geometry" />
        </mxCell>
        <mxCell id="44AiBCDxBOzTBdy34bFM-26" value="C" style="text;html=1;strokeColor=none;fillColor=none;align=center;verticalAlign=middle;whiteSpace=wrap;rounded=0;" parent="1" vertex="1">
          <mxGeometry x="120" y="130" width="40" height="20" as="geometry" />
        </mxCell>
        <mxCell id="44AiBCDxBOzTBdy34bFM-27" value="G" style="text;html=1;strokeColor=none;fillColor=none;align=center;verticalAlign=middle;whiteSpace=wrap;rounded=0;" parent="1" vertex="1">
          <mxGeometry x="120" y="170" width="40" height="20" as="geometry" />
        </mxCell>
        <mxCell id="44AiBCDxBOzTBdy34bFM-28" value="T" style="text;html=1;strokeColor=none;fillColor=none;align=center;verticalAlign=middle;whiteSpace=wrap;rounded=0;" parent="1" vertex="1">
          <mxGeometry x="120" y="210" width="40" height="20" as="geometry" />
        </mxCell>
        <mxCell id="44AiBCDxBOzTBdy34bFM-29" value="" style="rounded=0;whiteSpace=wrap;html=1;" parent="1" vertex="1">
          <mxGeometry x="160" y="80" width="40" height="160" as="geometry" />
        </mxCell>
        <mxCell id="44AiBCDxBOzTBdy34bFM-30" value="" style="rounded=0;whiteSpace=wrap;html=1;fillColor=#dae8fc;strokeColor=#6c8ebf;" parent="1" vertex="1">
          <mxGeometry x="160" y="120" width="40" height="40" as="geometry" />
        </mxCell>
        <mxCell id="44AiBCDxBOzTBdy34bFM-31" value="" style="rounded=0;whiteSpace=wrap;html=1;" parent="1" vertex="1">
          <mxGeometry x="160" y="160" width="40" height="40" as="geometry" />
        </mxCell>
        <mxCell id="44AiBCDxBOzTBdy34bFM-32" value="" style="rounded=0;whiteSpace=wrap;html=1;" parent="1" vertex="1">
          <mxGeometry x="160" y="200" width="40" height="40" as="geometry" />
        </mxCell>
        <mxCell id="44AiBCDxBOzTBdy34bFM-33" value="" style="rounded=0;whiteSpace=wrap;html=1;" parent="1" vertex="1">
          <mxGeometry x="160" y="80" width="40" height="40" as="geometry" />
        </mxCell>
        <mxCell id="44AiBCDxBOzTBdy34bFM-34" value="&lt;div&gt;A&lt;/div&gt;" style="text;html=1;strokeColor=none;fillColor=none;align=center;verticalAlign=middle;whiteSpace=wrap;rounded=0;" parent="1" vertex="1">
          <mxGeometry x="160" y="90" width="40" height="20" as="geometry" />
        </mxCell>
        <mxCell id="44AiBCDxBOzTBdy34bFM-35" value="C" style="text;html=1;strokeColor=none;fillColor=none;align=center;verticalAlign=middle;whiteSpace=wrap;rounded=0;" parent="1" vertex="1">
          <mxGeometry x="160" y="130" width="40" height="20" as="geometry" />
        </mxCell>
        <mxCell id="44AiBCDxBOzTBdy34bFM-36" value="G" style="text;html=1;strokeColor=none;fillColor=none;align=center;verticalAlign=middle;whiteSpace=wrap;rounded=0;" parent="1" vertex="1">
          <mxGeometry x="160" y="170" width="40" height="20" as="geometry" />
        </mxCell>
        <mxCell id="44AiBCDxBOzTBdy34bFM-37" value="T" style="text;html=1;strokeColor=none;fillColor=none;align=center;verticalAlign=middle;whiteSpace=wrap;rounded=0;" parent="1" vertex="1">
          <mxGeometry x="160" y="210" width="40" height="20" as="geometry" />
        </mxCell>
        <mxCell id="44AiBCDxBOzTBdy34bFM-38" value="" style="rounded=0;whiteSpace=wrap;html=1;" parent="1" vertex="1">
          <mxGeometry x="160" y="80" width="40" height="160" as="geometry" />
        </mxCell>
        <mxCell id="44AiBCDxBOzTBdy34bFM-39" value="" style="rounded=0;whiteSpace=wrap;html=1;" parent="1" vertex="1">
          <mxGeometry x="160" y="120" width="40" height="40" as="geometry" />
        </mxCell>
        <mxCell id="44AiBCDxBOzTBdy34bFM-40" value="" style="rounded=0;whiteSpace=wrap;html=1;fillColor=#f8cecc;strokeColor=#b85450;" parent="1" vertex="1">
          <mxGeometry x="160" y="160" width="40" height="40" as="geometry" />
        </mxCell>
        <mxCell id="44AiBCDxBOzTBdy34bFM-41" value="" style="rounded=0;whiteSpace=wrap;html=1;" parent="1" vertex="1">
          <mxGeometry x="160" y="200" width="40" height="40" as="geometry" />
        </mxCell>
        <mxCell id="44AiBCDxBOzTBdy34bFM-42" value="" style="rounded=0;whiteSpace=wrap;html=1;" parent="1" vertex="1">
          <mxGeometry x="160" y="80" width="40" height="40" as="geometry" />
        </mxCell>
        <mxCell id="44AiBCDxBOzTBdy34bFM-43" value="&lt;div&gt;A&lt;/div&gt;" style="text;html=1;strokeColor=none;fillColor=none;align=center;verticalAlign=middle;whiteSpace=wrap;rounded=0;" parent="1" vertex="1">
          <mxGeometry x="160" y="90" width="40" height="20" as="geometry" />
        </mxCell>
        <mxCell id="44AiBCDxBOzTBdy34bFM-44" value="C" style="text;html=1;strokeColor=none;fillColor=none;align=center;verticalAlign=middle;whiteSpace=wrap;rounded=0;" parent="1" vertex="1">
          <mxGeometry x="160" y="130" width="40" height="20" as="geometry" />
        </mxCell>
        <mxCell id="44AiBCDxBOzTBdy34bFM-45" value="G" style="text;html=1;strokeColor=none;fillColor=none;align=center;verticalAlign=middle;whiteSpace=wrap;rounded=0;" parent="1" vertex="1">
          <mxGeometry x="160" y="170" width="40" height="20" as="geometry" />
        </mxCell>
        <mxCell id="44AiBCDxBOzTBdy34bFM-46" value="T" style="text;html=1;strokeColor=none;fillColor=none;align=center;verticalAlign=middle;whiteSpace=wrap;rounded=0;" parent="1" vertex="1">
          <mxGeometry x="160" y="210" width="40" height="20" as="geometry" />
        </mxCell>
        <mxCell id="44AiBCDxBOzTBdy34bFM-47" value="" style="rounded=0;whiteSpace=wrap;html=1;" parent="1" vertex="1">
          <mxGeometry x="200" y="80" width="40" height="160" as="geometry" />
        </mxCell>
        <mxCell id="44AiBCDxBOzTBdy34bFM-48" value="" style="rounded=0;whiteSpace=wrap;html=1;fillColor=#dae8fc;strokeColor=#6c8ebf;" parent="1" vertex="1">
          <mxGeometry x="200" y="120" width="40" height="40" as="geometry" />
        </mxCell>
        <mxCell id="44AiBCDxBOzTBdy34bFM-49" value="" style="rounded=0;whiteSpace=wrap;html=1;" parent="1" vertex="1">
          <mxGeometry x="200" y="160" width="40" height="40" as="geometry" />
        </mxCell>
        <mxCell id="44AiBCDxBOzTBdy34bFM-50" value="" style="rounded=0;whiteSpace=wrap;html=1;" parent="1" vertex="1">
          <mxGeometry x="200" y="200" width="40" height="40" as="geometry" />
        </mxCell>
        <mxCell id="44AiBCDxBOzTBdy34bFM-51" value="" style="rounded=0;whiteSpace=wrap;html=1;" parent="1" vertex="1">
          <mxGeometry x="200" y="80" width="40" height="40" as="geometry" />
        </mxCell>
        <mxCell id="44AiBCDxBOzTBdy34bFM-52" value="&lt;div&gt;A&lt;/div&gt;" style="text;html=1;strokeColor=none;fillColor=none;align=center;verticalAlign=middle;whiteSpace=wrap;rounded=0;" parent="1" vertex="1">
          <mxGeometry x="200" y="90" width="40" height="20" as="geometry" />
        </mxCell>
        <mxCell id="44AiBCDxBOzTBdy34bFM-53" value="C" style="text;html=1;strokeColor=none;fillColor=none;align=center;verticalAlign=middle;whiteSpace=wrap;rounded=0;" parent="1" vertex="1">
          <mxGeometry x="200" y="130" width="40" height="20" as="geometry" />
        </mxCell>
        <mxCell id="44AiBCDxBOzTBdy34bFM-54" value="G" style="text;html=1;strokeColor=none;fillColor=none;align=center;verticalAlign=middle;whiteSpace=wrap;rounded=0;" parent="1" vertex="1">
          <mxGeometry x="200" y="170" width="40" height="20" as="geometry" />
        </mxCell>
        <mxCell id="44AiBCDxBOzTBdy34bFM-55" value="T" style="text;html=1;strokeColor=none;fillColor=none;align=center;verticalAlign=middle;whiteSpace=wrap;rounded=0;" parent="1" vertex="1">
          <mxGeometry x="200" y="210" width="40" height="20" as="geometry" />
        </mxCell>
        <mxCell id="44AiBCDxBOzTBdy34bFM-56" value="" style="rounded=0;whiteSpace=wrap;html=1;" parent="1" vertex="1">
          <mxGeometry x="200" y="80" width="40" height="160" as="geometry" />
        </mxCell>
        <mxCell id="44AiBCDxBOzTBdy34bFM-57" value="" style="rounded=0;whiteSpace=wrap;html=1;" parent="1" vertex="1">
          <mxGeometry x="200" y="120" width="40" height="40" as="geometry" />
        </mxCell>
        <mxCell id="44AiBCDxBOzTBdy34bFM-58" value="" style="rounded=0;whiteSpace=wrap;html=1;" parent="1" vertex="1">
          <mxGeometry x="200" y="160" width="40" height="40" as="geometry" />
        </mxCell>
        <mxCell id="44AiBCDxBOzTBdy34bFM-59" value="" style="rounded=0;whiteSpace=wrap;html=1;fillColor=#d5e8d4;strokeColor=#82b366;" parent="1" vertex="1">
          <mxGeometry x="200" y="200" width="40" height="40" as="geometry" />
        </mxCell>
        <mxCell id="44AiBCDxBOzTBdy34bFM-60" value="" style="rounded=0;whiteSpace=wrap;html=1;" parent="1" vertex="1">
          <mxGeometry x="200" y="80" width="40" height="40" as="geometry" />
        </mxCell>
        <mxCell id="44AiBCDxBOzTBdy34bFM-61" value="&lt;div&gt;A&lt;/div&gt;" style="text;html=1;strokeColor=none;fillColor=none;align=center;verticalAlign=middle;whiteSpace=wrap;rounded=0;" parent="1" vertex="1">
          <mxGeometry x="200" y="90" width="40" height="20" as="geometry" />
        </mxCell>
        <mxCell id="sUNE9Ao9WOD159sY9nD--51" style="edgeStyle=orthogonalEdgeStyle;curved=1;rounded=0;orthogonalLoop=1;jettySize=auto;html=1;entryX=0;entryY=0;entryDx=0;entryDy=0;exitX=1;exitY=0;exitDx=0;exitDy=0;" parent="1" source="44AiBCDxBOzTBdy34bFM-58" target="sUNE9Ao9WOD159sY9nD--24" edge="1">
          <mxGeometry relative="1" as="geometry">
            <Array as="points">
              <mxPoint x="270" y="160" />
              <mxPoint x="270" y="284" />
            </Array>
          </mxGeometry>
        </mxCell>
        <mxCell id="44AiBCDxBOzTBdy34bFM-62" value="C" style="text;html=1;align=center;verticalAlign=middle;whiteSpace=wrap;rounded=0;" parent="1" vertex="1">
          <mxGeometry x="200" y="130" width="40" height="20" as="geometry" />
        </mxCell>
        <mxCell id="44AiBCDxBOzTBdy34bFM-63" value="G" style="text;html=1;strokeColor=none;fillColor=none;align=center;verticalAlign=middle;whiteSpace=wrap;rounded=0;" parent="1" vertex="1">
          <mxGeometry x="200" y="170" width="40" height="20" as="geometry" />
        </mxCell>
        <mxCell id="44AiBCDxBOzTBdy34bFM-64" value="T" style="text;html=1;strokeColor=none;fillColor=none;align=center;verticalAlign=middle;whiteSpace=wrap;rounded=0;" parent="1" vertex="1">
          <mxGeometry x="200" y="210" width="40" height="20" as="geometry" />
        </mxCell>
        <mxCell id="44AiBCDxBOzTBdy34bFM-65" value="&lt;div&gt;Promoter in one-hot&lt;/div&gt;" style="text;html=1;strokeColor=none;fillColor=none;align=center;verticalAlign=middle;whiteSpace=wrap;rounded=0;" parent="1" vertex="1">
          <mxGeometry x="80" y="250" width="160" height="20" as="geometry" />
        </mxCell>
        <mxCell id="44AiBCDxBOzTBdy34bFM-66" value="" style="rounded=0;whiteSpace=wrap;html=1;" parent="1" vertex="1">
          <mxGeometry x="80" y="320" width="40" height="160" as="geometry" />
        </mxCell>
        <mxCell id="44AiBCDxBOzTBdy34bFM-67" value="" style="rounded=0;whiteSpace=wrap;html=1;" parent="1" vertex="1">
          <mxGeometry x="80" y="360" width="40" height="40" as="geometry" />
        </mxCell>
        <mxCell id="44AiBCDxBOzTBdy34bFM-68" value="" style="rounded=0;whiteSpace=wrap;html=1;" parent="1" vertex="1">
          <mxGeometry x="80" y="400" width="40" height="40" as="geometry" />
        </mxCell>
        <mxCell id="44AiBCDxBOzTBdy34bFM-69" value="" style="rounded=0;whiteSpace=wrap;html=1;" parent="1" vertex="1">
          <mxGeometry x="80" y="440" width="40" height="40" as="geometry" />
        </mxCell>
        <mxCell id="44AiBCDxBOzTBdy34bFM-70" value="" style="rounded=0;whiteSpace=wrap;html=1;fillColor=#ffe6cc;strokeColor=#d79b00;" parent="1" vertex="1">
          <mxGeometry x="80" y="320" width="40" height="40" as="geometry" />
        </mxCell>
        <mxCell id="44AiBCDxBOzTBdy34bFM-71" value="&lt;div&gt;A&lt;/div&gt;" style="text;html=1;strokeColor=none;fillColor=none;align=center;verticalAlign=middle;whiteSpace=wrap;rounded=0;" parent="1" vertex="1">
          <mxGeometry x="80" y="330" width="40" height="20" as="geometry" />
        </mxCell>
        <mxCell id="44AiBCDxBOzTBdy34bFM-72" value="C" style="text;html=1;strokeColor=none;fillColor=none;align=center;verticalAlign=middle;whiteSpace=wrap;rounded=0;" parent="1" vertex="1">
          <mxGeometry x="80" y="370" width="40" height="20" as="geometry" />
        </mxCell>
        <mxCell id="44AiBCDxBOzTBdy34bFM-73" value="G" style="text;html=1;strokeColor=none;fillColor=none;align=center;verticalAlign=middle;whiteSpace=wrap;rounded=0;" parent="1" vertex="1">
          <mxGeometry x="80" y="410" width="40" height="20" as="geometry" />
        </mxCell>
        <mxCell id="44AiBCDxBOzTBdy34bFM-74" value="T" style="text;html=1;strokeColor=none;fillColor=none;align=center;verticalAlign=middle;whiteSpace=wrap;rounded=0;" parent="1" vertex="1">
          <mxGeometry x="80" y="450" width="40" height="20" as="geometry" />
        </mxCell>
        <mxCell id="44AiBCDxBOzTBdy34bFM-75" value="" style="rounded=0;whiteSpace=wrap;html=1;" parent="1" vertex="1">
          <mxGeometry x="120" y="320" width="40" height="160" as="geometry" />
        </mxCell>
        <mxCell id="44AiBCDxBOzTBdy34bFM-76" value="" style="rounded=0;whiteSpace=wrap;html=1;fillColor=#dae8fc;strokeColor=#6c8ebf;" parent="1" vertex="1">
          <mxGeometry x="120" y="360" width="40" height="40" as="geometry" />
        </mxCell>
        <mxCell id="44AiBCDxBOzTBdy34bFM-77" value="" style="rounded=0;whiteSpace=wrap;html=1;" parent="1" vertex="1">
          <mxGeometry x="120" y="400" width="40" height="40" as="geometry" />
        </mxCell>
        <mxCell id="44AiBCDxBOzTBdy34bFM-78" value="" style="rounded=0;whiteSpace=wrap;html=1;" parent="1" vertex="1">
          <mxGeometry x="120" y="440" width="40" height="40" as="geometry" />
        </mxCell>
        <mxCell id="44AiBCDxBOzTBdy34bFM-79" value="" style="rounded=0;whiteSpace=wrap;html=1;" parent="1" vertex="1">
          <mxGeometry x="120" y="320" width="40" height="40" as="geometry" />
        </mxCell>
        <mxCell id="44AiBCDxBOzTBdy34bFM-80" value="&lt;div&gt;A&lt;/div&gt;" style="text;html=1;strokeColor=none;fillColor=none;align=center;verticalAlign=middle;whiteSpace=wrap;rounded=0;" parent="1" vertex="1">
          <mxGeometry x="120" y="330" width="40" height="20" as="geometry" />
        </mxCell>
        <mxCell id="44AiBCDxBOzTBdy34bFM-81" value="C" style="text;html=1;strokeColor=none;fillColor=none;align=center;verticalAlign=middle;whiteSpace=wrap;rounded=0;" parent="1" vertex="1">
          <mxGeometry x="120" y="370" width="40" height="20" as="geometry" />
        </mxCell>
        <mxCell id="44AiBCDxBOzTBdy34bFM-82" value="G" style="text;html=1;strokeColor=none;fillColor=none;align=center;verticalAlign=middle;whiteSpace=wrap;rounded=0;" parent="1" vertex="1">
          <mxGeometry x="120" y="410" width="40" height="20" as="geometry" />
        </mxCell>
        <mxCell id="44AiBCDxBOzTBdy34bFM-83" value="T" style="text;html=1;strokeColor=none;fillColor=none;align=center;verticalAlign=middle;whiteSpace=wrap;rounded=0;" parent="1" vertex="1">
          <mxGeometry x="120" y="450" width="40" height="20" as="geometry" />
        </mxCell>
        <mxCell id="44AiBCDxBOzTBdy34bFM-84" value="" style="rounded=0;whiteSpace=wrap;html=1;" parent="1" vertex="1">
          <mxGeometry x="120" y="320" width="40" height="160" as="geometry" />
        </mxCell>
        <mxCell id="44AiBCDxBOzTBdy34bFM-85" value="" style="rounded=0;whiteSpace=wrap;html=1;fillColor=#dae8fc;strokeColor=#6c8ebf;" parent="1" vertex="1">
          <mxGeometry x="120" y="360" width="40" height="40" as="geometry" />
        </mxCell>
        <mxCell id="44AiBCDxBOzTBdy34bFM-86" value="" style="rounded=0;whiteSpace=wrap;html=1;" parent="1" vertex="1">
          <mxGeometry x="120" y="400" width="40" height="40" as="geometry" />
        </mxCell>
        <mxCell id="44AiBCDxBOzTBdy34bFM-87" value="" style="rounded=0;whiteSpace=wrap;html=1;" parent="1" vertex="1">
          <mxGeometry x="120" y="440" width="40" height="40" as="geometry" />
        </mxCell>
        <mxCell id="44AiBCDxBOzTBdy34bFM-88" value="" style="rounded=0;whiteSpace=wrap;html=1;" parent="1" vertex="1">
          <mxGeometry x="120" y="320" width="40" height="40" as="geometry" />
        </mxCell>
        <mxCell id="44AiBCDxBOzTBdy34bFM-89" value="&lt;div&gt;A&lt;/div&gt;" style="text;html=1;strokeColor=none;fillColor=none;align=center;verticalAlign=middle;whiteSpace=wrap;rounded=0;" parent="1" vertex="1">
          <mxGeometry x="120" y="330" width="40" height="20" as="geometry" />
        </mxCell>
        <mxCell id="44AiBCDxBOzTBdy34bFM-90" value="C" style="text;html=1;strokeColor=none;fillColor=none;align=center;verticalAlign=middle;whiteSpace=wrap;rounded=0;" parent="1" vertex="1">
          <mxGeometry x="120" y="370" width="40" height="20" as="geometry" />
        </mxCell>
        <mxCell id="44AiBCDxBOzTBdy34bFM-91" value="G" style="text;html=1;strokeColor=none;fillColor=none;align=center;verticalAlign=middle;whiteSpace=wrap;rounded=0;" parent="1" vertex="1">
          <mxGeometry x="120" y="410" width="40" height="20" as="geometry" />
        </mxCell>
        <mxCell id="44AiBCDxBOzTBdy34bFM-92" value="T" style="text;html=1;strokeColor=none;fillColor=none;align=center;verticalAlign=middle;whiteSpace=wrap;rounded=0;" parent="1" vertex="1">
          <mxGeometry x="120" y="450" width="40" height="20" as="geometry" />
        </mxCell>
        <mxCell id="44AiBCDxBOzTBdy34bFM-93" value="" style="rounded=0;whiteSpace=wrap;html=1;" parent="1" vertex="1">
          <mxGeometry x="160" y="320" width="40" height="160" as="geometry" />
        </mxCell>
        <mxCell id="44AiBCDxBOzTBdy34bFM-94" value="" style="rounded=0;whiteSpace=wrap;html=1;fillColor=#dae8fc;strokeColor=#6c8ebf;" parent="1" vertex="1">
          <mxGeometry x="160" y="360" width="40" height="40" as="geometry" />
        </mxCell>
        <mxCell id="44AiBCDxBOzTBdy34bFM-95" value="" style="rounded=0;whiteSpace=wrap;html=1;" parent="1" vertex="1">
          <mxGeometry x="160" y="400" width="40" height="40" as="geometry" />
        </mxCell>
        <mxCell id="44AiBCDxBOzTBdy34bFM-96" value="" style="rounded=0;whiteSpace=wrap;html=1;" parent="1" vertex="1">
          <mxGeometry x="160" y="440" width="40" height="40" as="geometry" />
        </mxCell>
        <mxCell id="44AiBCDxBOzTBdy34bFM-97" value="" style="rounded=0;whiteSpace=wrap;html=1;" parent="1" vertex="1">
          <mxGeometry x="160" y="320" width="40" height="40" as="geometry" />
        </mxCell>
        <mxCell id="44AiBCDxBOzTBdy34bFM-98" value="&lt;div&gt;A&lt;/div&gt;" style="text;html=1;strokeColor=none;fillColor=none;align=center;verticalAlign=middle;whiteSpace=wrap;rounded=0;" parent="1" vertex="1">
          <mxGeometry x="160" y="330" width="40" height="20" as="geometry" />
        </mxCell>
        <mxCell id="44AiBCDxBOzTBdy34bFM-99" value="C" style="text;html=1;strokeColor=none;fillColor=none;align=center;verticalAlign=middle;whiteSpace=wrap;rounded=0;" parent="1" vertex="1">
          <mxGeometry x="160" y="370" width="40" height="20" as="geometry" />
        </mxCell>
        <mxCell id="44AiBCDxBOzTBdy34bFM-100" value="G" style="text;html=1;strokeColor=none;fillColor=none;align=center;verticalAlign=middle;whiteSpace=wrap;rounded=0;" parent="1" vertex="1">
          <mxGeometry x="160" y="410" width="40" height="20" as="geometry" />
        </mxCell>
        <mxCell id="44AiBCDxBOzTBdy34bFM-101" value="T" style="text;html=1;strokeColor=none;fillColor=none;align=center;verticalAlign=middle;whiteSpace=wrap;rounded=0;" parent="1" vertex="1">
          <mxGeometry x="160" y="450" width="40" height="20" as="geometry" />
        </mxCell>
        <mxCell id="44AiBCDxBOzTBdy34bFM-102" value="" style="rounded=0;whiteSpace=wrap;html=1;" parent="1" vertex="1">
          <mxGeometry x="160" y="320" width="40" height="160" as="geometry" />
        </mxCell>
        <mxCell id="44AiBCDxBOzTBdy34bFM-103" value="" style="rounded=0;whiteSpace=wrap;html=1;" parent="1" vertex="1">
          <mxGeometry x="160" y="360" width="40" height="40" as="geometry" />
        </mxCell>
        <mxCell id="44AiBCDxBOzTBdy34bFM-104" value="" style="rounded=0;whiteSpace=wrap;html=1;fillColor=#f8cecc;strokeColor=#b85450;" parent="1" vertex="1">
          <mxGeometry x="160" y="400" width="40" height="40" as="geometry" />
        </mxCell>
        <mxCell id="44AiBCDxBOzTBdy34bFM-105" value="" style="rounded=0;whiteSpace=wrap;html=1;" parent="1" vertex="1">
          <mxGeometry x="160" y="440" width="40" height="40" as="geometry" />
        </mxCell>
        <mxCell id="44AiBCDxBOzTBdy34bFM-106" value="" style="rounded=0;whiteSpace=wrap;html=1;" parent="1" vertex="1">
          <mxGeometry x="160" y="320" width="40" height="40" as="geometry" />
        </mxCell>
        <mxCell id="44AiBCDxBOzTBdy34bFM-107" value="&lt;div&gt;A&lt;/div&gt;" style="text;html=1;strokeColor=none;fillColor=none;align=center;verticalAlign=middle;whiteSpace=wrap;rounded=0;" parent="1" vertex="1">
          <mxGeometry x="160" y="330" width="40" height="20" as="geometry" />
        </mxCell>
        <mxCell id="44AiBCDxBOzTBdy34bFM-108" value="C" style="text;html=1;strokeColor=none;fillColor=none;align=center;verticalAlign=middle;whiteSpace=wrap;rounded=0;" parent="1" vertex="1">
          <mxGeometry x="160" y="370" width="40" height="20" as="geometry" />
        </mxCell>
        <mxCell id="44AiBCDxBOzTBdy34bFM-109" value="G" style="text;html=1;strokeColor=none;fillColor=none;align=center;verticalAlign=middle;whiteSpace=wrap;rounded=0;" parent="1" vertex="1">
          <mxGeometry x="160" y="410" width="40" height="20" as="geometry" />
        </mxCell>
        <mxCell id="44AiBCDxBOzTBdy34bFM-110" value="T" style="text;html=1;strokeColor=none;fillColor=none;align=center;verticalAlign=middle;whiteSpace=wrap;rounded=0;" parent="1" vertex="1">
          <mxGeometry x="160" y="450" width="40" height="20" as="geometry" />
        </mxCell>
        <mxCell id="44AiBCDxBOzTBdy34bFM-111" value="" style="rounded=0;whiteSpace=wrap;html=1;" parent="1" vertex="1">
          <mxGeometry x="200" y="320" width="40" height="160" as="geometry" />
        </mxCell>
        <mxCell id="44AiBCDxBOzTBdy34bFM-112" value="" style="rounded=0;whiteSpace=wrap;html=1;fillColor=#dae8fc;strokeColor=#6c8ebf;" parent="1" vertex="1">
          <mxGeometry x="200" y="360" width="40" height="40" as="geometry" />
        </mxCell>
        <mxCell id="44AiBCDxBOzTBdy34bFM-113" value="" style="rounded=0;whiteSpace=wrap;html=1;" parent="1" vertex="1">
          <mxGeometry x="200" y="400" width="40" height="40" as="geometry" />
        </mxCell>
        <mxCell id="44AiBCDxBOzTBdy34bFM-114" value="" style="rounded=0;whiteSpace=wrap;html=1;" parent="1" vertex="1">
          <mxGeometry x="200" y="440" width="40" height="40" as="geometry" />
        </mxCell>
        <mxCell id="44AiBCDxBOzTBdy34bFM-115" value="" style="rounded=0;whiteSpace=wrap;html=1;" parent="1" vertex="1">
          <mxGeometry x="200" y="320" width="40" height="40" as="geometry" />
        </mxCell>
        <mxCell id="44AiBCDxBOzTBdy34bFM-116" value="&lt;div&gt;A&lt;/div&gt;" style="text;html=1;strokeColor=none;fillColor=none;align=center;verticalAlign=middle;whiteSpace=wrap;rounded=0;" parent="1" vertex="1">
          <mxGeometry x="200" y="330" width="40" height="20" as="geometry" />
        </mxCell>
        <mxCell id="44AiBCDxBOzTBdy34bFM-117" value="C" style="text;html=1;strokeColor=none;fillColor=none;align=center;verticalAlign=middle;whiteSpace=wrap;rounded=0;" parent="1" vertex="1">
          <mxGeometry x="200" y="370" width="40" height="20" as="geometry" />
        </mxCell>
        <mxCell id="44AiBCDxBOzTBdy34bFM-118" value="G" style="text;html=1;strokeColor=none;fillColor=none;align=center;verticalAlign=middle;whiteSpace=wrap;rounded=0;" parent="1" vertex="1">
          <mxGeometry x="200" y="410" width="40" height="20" as="geometry" />
        </mxCell>
        <mxCell id="44AiBCDxBOzTBdy34bFM-119" value="T" style="text;html=1;strokeColor=none;fillColor=none;align=center;verticalAlign=middle;whiteSpace=wrap;rounded=0;" parent="1" vertex="1">
          <mxGeometry x="200" y="450" width="40" height="20" as="geometry" />
        </mxCell>
        <mxCell id="44AiBCDxBOzTBdy34bFM-120" value="" style="rounded=0;whiteSpace=wrap;html=1;" parent="1" vertex="1">
          <mxGeometry x="200" y="320" width="40" height="160" as="geometry" />
        </mxCell>
        <mxCell id="44AiBCDxBOzTBdy34bFM-121" value="" style="rounded=0;whiteSpace=wrap;html=1;" parent="1" vertex="1">
          <mxGeometry x="200" y="360" width="40" height="40" as="geometry" />
        </mxCell>
        <mxCell id="44AiBCDxBOzTBdy34bFM-122" value="" style="rounded=0;whiteSpace=wrap;html=1;" parent="1" vertex="1">
          <mxGeometry x="200" y="400" width="40" height="40" as="geometry" />
        </mxCell>
        <mxCell id="44AiBCDxBOzTBdy34bFM-123" value="" style="rounded=0;whiteSpace=wrap;html=1;fillColor=#d5e8d4;strokeColor=#82b366;" parent="1" vertex="1">
          <mxGeometry x="200" y="440" width="40" height="40" as="geometry" />
        </mxCell>
        <mxCell id="44AiBCDxBOzTBdy34bFM-124" value="" style="rounded=0;whiteSpace=wrap;html=1;" parent="1" vertex="1">
          <mxGeometry x="200" y="320" width="40" height="40" as="geometry" />
        </mxCell>
        <mxCell id="44AiBCDxBOzTBdy34bFM-125" value="&lt;div&gt;A&lt;/div&gt;" style="text;html=1;strokeColor=none;fillColor=none;align=center;verticalAlign=middle;whiteSpace=wrap;rounded=0;" parent="1" vertex="1">
          <mxGeometry x="200" y="330" width="40" height="20" as="geometry" />
        </mxCell>
        <mxCell id="sUNE9Ao9WOD159sY9nD--52" style="edgeStyle=orthogonalEdgeStyle;curved=1;rounded=0;orthogonalLoop=1;jettySize=auto;html=1;entryX=0;entryY=0;entryDx=0;entryDy=0;exitX=1;exitY=0;exitDx=0;exitDy=0;" parent="1" source="44AiBCDxBOzTBdy34bFM-122" target="sUNE9Ao9WOD159sY9nD--24" edge="1">
          <mxGeometry relative="1" as="geometry">
            <Array as="points">
              <mxPoint x="285" y="400" />
              <mxPoint x="285" y="284" />
            </Array>
          </mxGeometry>
        </mxCell>
        <mxCell id="44AiBCDxBOzTBdy34bFM-126" value="C" style="text;html=1;align=center;verticalAlign=middle;whiteSpace=wrap;rounded=0;" parent="1" vertex="1">
          <mxGeometry x="200" y="370" width="40" height="20" as="geometry" />
        </mxCell>
        <mxCell id="44AiBCDxBOzTBdy34bFM-127" value="G" style="text;html=1;strokeColor=none;fillColor=none;align=center;verticalAlign=middle;whiteSpace=wrap;rounded=0;" parent="1" vertex="1">
          <mxGeometry x="200" y="410" width="40" height="20" as="geometry" />
        </mxCell>
        <mxCell id="44AiBCDxBOzTBdy34bFM-128" value="T" style="text;html=1;strokeColor=none;fillColor=none;align=center;verticalAlign=middle;whiteSpace=wrap;rounded=0;" parent="1" vertex="1">
          <mxGeometry x="200" y="450" width="40" height="20" as="geometry" />
        </mxCell>
        <mxCell id="44AiBCDxBOzTBdy34bFM-129" value="&lt;div&gt;Enhancer in one-hot&lt;/div&gt;" style="text;html=1;strokeColor=none;fillColor=none;align=center;verticalAlign=middle;whiteSpace=wrap;rounded=0;" parent="1" vertex="1">
          <mxGeometry x="80" y="490" width="160" height="20" as="geometry" />
        </mxCell>
        <mxCell id="44AiBCDxBOzTBdy34bFM-130" value="" style="rounded=0;whiteSpace=wrap;html=1;fillColor=#dae8fc;strokeColor=#6c8ebf;" parent="1" vertex="1">
          <mxGeometry x="645" y="194" width="40" height="40" as="geometry" />
        </mxCell>
        <mxCell id="44AiBCDxBOzTBdy34bFM-131" value="" style="rounded=0;whiteSpace=wrap;html=1;fillColor=#dae8fc;strokeColor=#6c8ebf;" parent="1" vertex="1">
          <mxGeometry x="685" y="194" width="40" height="40" as="geometry" />
        </mxCell>
        <mxCell id="44AiBCDxBOzTBdy34bFM-132" value="" style="rounded=0;whiteSpace=wrap;html=1;fillColor=#dae8fc;strokeColor=#6c8ebf;" parent="1" vertex="1">
          <mxGeometry x="725" y="194" width="40" height="40" as="geometry" />
        </mxCell>
        <mxCell id="44AiBCDxBOzTBdy34bFM-133" value="" style="rounded=0;whiteSpace=wrap;html=1;fillColor=#dae8fc;strokeColor=#6c8ebf;" parent="1" vertex="1">
          <mxGeometry x="765" y="194" width="40" height="40" as="geometry" />
        </mxCell>
        <mxCell id="44AiBCDxBOzTBdy34bFM-160" value="" style="rounded=0;whiteSpace=wrap;html=1;fillColor=#dae8fc;strokeColor=#6c8ebf;" parent="1" vertex="1">
          <mxGeometry x="645" y="234" width="40" height="40" as="geometry" />
        </mxCell>
        <mxCell id="44AiBCDxBOzTBdy34bFM-161" value="" style="rounded=0;whiteSpace=wrap;html=1;fillColor=#dae8fc;strokeColor=#6c8ebf;" parent="1" vertex="1">
          <mxGeometry x="685" y="234" width="40" height="40" as="geometry" />
        </mxCell>
        <mxCell id="44AiBCDxBOzTBdy34bFM-162" value="" style="rounded=0;whiteSpace=wrap;html=1;fillColor=#dae8fc;strokeColor=#6c8ebf;" parent="1" vertex="1">
          <mxGeometry x="725" y="234" width="40" height="40" as="geometry" />
        </mxCell>
        <mxCell id="44AiBCDxBOzTBdy34bFM-163" value="" style="rounded=0;whiteSpace=wrap;html=1;fillColor=#dae8fc;strokeColor=#6c8ebf;" parent="1" vertex="1">
          <mxGeometry x="765" y="234" width="40" height="40" as="geometry" />
        </mxCell>
        <mxCell id="44AiBCDxBOzTBdy34bFM-164" value="" style="rounded=0;whiteSpace=wrap;html=1;fillColor=#dae8fc;strokeColor=#6c8ebf;" parent="1" vertex="1">
          <mxGeometry x="805" y="234" width="40" height="40" as="geometry" />
        </mxCell>
        <mxCell id="44AiBCDxBOzTBdy34bFM-166" value="" style="rounded=0;whiteSpace=wrap;html=1;fillColor=#dae8fc;strokeColor=#6c8ebf;" parent="1" vertex="1">
          <mxGeometry x="645" y="274" width="40" height="40" as="geometry" />
        </mxCell>
        <mxCell id="44AiBCDxBOzTBdy34bFM-167" value="" style="rounded=0;whiteSpace=wrap;html=1;fillColor=#dae8fc;strokeColor=#6c8ebf;" parent="1" vertex="1">
          <mxGeometry x="685" y="274" width="40" height="40" as="geometry" />
        </mxCell>
        <mxCell id="44AiBCDxBOzTBdy34bFM-168" value="" style="rounded=0;whiteSpace=wrap;html=1;fillColor=#dae8fc;strokeColor=#6c8ebf;" parent="1" vertex="1">
          <mxGeometry x="725" y="274" width="40" height="40" as="geometry" />
        </mxCell>
        <mxCell id="44AiBCDxBOzTBdy34bFM-169" value="" style="rounded=0;whiteSpace=wrap;html=1;fillColor=#dae8fc;strokeColor=#6c8ebf;" parent="1" vertex="1">
          <mxGeometry x="765" y="274" width="40" height="40" as="geometry" />
        </mxCell>
        <mxCell id="44AiBCDxBOzTBdy34bFM-170" value="" style="rounded=0;whiteSpace=wrap;html=1;fillColor=#dae8fc;strokeColor=#6c8ebf;" parent="1" vertex="1">
          <mxGeometry x="805" y="274" width="40" height="40" as="geometry" />
        </mxCell>
        <mxCell id="44AiBCDxBOzTBdy34bFM-172" value="" style="rounded=0;whiteSpace=wrap;html=1;fillColor=#dae8fc;strokeColor=#6c8ebf;" parent="1" vertex="1">
          <mxGeometry x="645" y="314" width="40" height="40" as="geometry" />
        </mxCell>
        <mxCell id="44AiBCDxBOzTBdy34bFM-173" value="" style="rounded=0;whiteSpace=wrap;html=1;fillColor=#dae8fc;strokeColor=#6c8ebf;" parent="1" vertex="1">
          <mxGeometry x="685" y="314" width="40" height="40" as="geometry" />
        </mxCell>
        <mxCell id="44AiBCDxBOzTBdy34bFM-174" value="" style="rounded=0;whiteSpace=wrap;html=1;fillColor=#dae8fc;strokeColor=#6c8ebf;" parent="1" vertex="1">
          <mxGeometry x="725" y="314" width="40" height="40" as="geometry" />
        </mxCell>
        <mxCell id="44AiBCDxBOzTBdy34bFM-175" value="" style="rounded=0;whiteSpace=wrap;html=1;fillColor=#dae8fc;strokeColor=#6c8ebf;" parent="1" vertex="1">
          <mxGeometry x="765" y="314" width="40" height="40" as="geometry" />
        </mxCell>
        <mxCell id="44AiBCDxBOzTBdy34bFM-176" value="" style="rounded=0;whiteSpace=wrap;html=1;fillColor=#dae8fc;strokeColor=#6c8ebf;" parent="1" vertex="1">
          <mxGeometry x="805" y="314" width="40" height="40" as="geometry" />
        </mxCell>
        <mxCell id="44AiBCDxBOzTBdy34bFM-538" value="" style="rounded=0;whiteSpace=wrap;html=1;fillColor=#d5e8d4;strokeColor=#82b366;" parent="1" vertex="1">
          <mxGeometry x="655" y="204" width="40" height="40" as="geometry" />
        </mxCell>
        <mxCell id="44AiBCDxBOzTBdy34bFM-539" value="" style="rounded=0;whiteSpace=wrap;html=1;fillColor=#d5e8d4;strokeColor=#82b366;" parent="1" vertex="1">
          <mxGeometry x="695" y="204" width="40" height="40" as="geometry" />
        </mxCell>
        <mxCell id="44AiBCDxBOzTBdy34bFM-540" value="" style="rounded=0;whiteSpace=wrap;html=1;fillColor=#d5e8d4;strokeColor=#82b366;" parent="1" vertex="1">
          <mxGeometry x="735" y="204" width="40" height="40" as="geometry" />
        </mxCell>
        <mxCell id="44AiBCDxBOzTBdy34bFM-541" value="" style="rounded=0;whiteSpace=wrap;html=1;fillColor=#d5e8d4;strokeColor=#82b366;" parent="1" vertex="1">
          <mxGeometry x="775" y="204" width="40" height="40" as="geometry" />
        </mxCell>
        <mxCell id="44AiBCDxBOzTBdy34bFM-544" value="" style="rounded=0;whiteSpace=wrap;html=1;fillColor=#d5e8d4;strokeColor=#82b366;" parent="1" vertex="1">
          <mxGeometry x="655" y="244" width="40" height="40" as="geometry" />
        </mxCell>
        <mxCell id="44AiBCDxBOzTBdy34bFM-545" value="" style="rounded=0;whiteSpace=wrap;html=1;fillColor=#d5e8d4;strokeColor=#82b366;" parent="1" vertex="1">
          <mxGeometry x="695" y="244" width="40" height="40" as="geometry" />
        </mxCell>
        <mxCell id="44AiBCDxBOzTBdy34bFM-546" value="" style="rounded=0;whiteSpace=wrap;html=1;fillColor=#d5e8d4;strokeColor=#82b366;" parent="1" vertex="1">
          <mxGeometry x="735" y="244" width="40" height="40" as="geometry" />
        </mxCell>
        <mxCell id="44AiBCDxBOzTBdy34bFM-547" value="" style="rounded=0;whiteSpace=wrap;html=1;fillColor=#d5e8d4;strokeColor=#82b366;" parent="1" vertex="1">
          <mxGeometry x="775" y="244" width="40" height="40" as="geometry" />
        </mxCell>
        <mxCell id="44AiBCDxBOzTBdy34bFM-548" value="" style="rounded=0;whiteSpace=wrap;html=1;fillColor=#d5e8d4;strokeColor=#82b366;" parent="1" vertex="1">
          <mxGeometry x="815" y="244" width="40" height="40" as="geometry" />
        </mxCell>
        <mxCell id="44AiBCDxBOzTBdy34bFM-550" value="" style="rounded=0;whiteSpace=wrap;html=1;fillColor=#d5e8d4;strokeColor=#82b366;" parent="1" vertex="1">
          <mxGeometry x="655" y="284" width="40" height="40" as="geometry" />
        </mxCell>
        <mxCell id="44AiBCDxBOzTBdy34bFM-551" value="" style="rounded=0;whiteSpace=wrap;html=1;fillColor=#d5e8d4;strokeColor=#82b366;" parent="1" vertex="1">
          <mxGeometry x="695" y="284" width="40" height="40" as="geometry" />
        </mxCell>
        <mxCell id="44AiBCDxBOzTBdy34bFM-552" value="" style="rounded=0;whiteSpace=wrap;html=1;fillColor=#d5e8d4;strokeColor=#82b366;" parent="1" vertex="1">
          <mxGeometry x="735" y="284" width="40" height="40" as="geometry" />
        </mxCell>
        <mxCell id="44AiBCDxBOzTBdy34bFM-553" value="" style="rounded=0;whiteSpace=wrap;html=1;fillColor=#d5e8d4;strokeColor=#82b366;" parent="1" vertex="1">
          <mxGeometry x="775" y="284" width="40" height="40" as="geometry" />
        </mxCell>
        <mxCell id="44AiBCDxBOzTBdy34bFM-554" value="" style="rounded=0;whiteSpace=wrap;html=1;fillColor=#d5e8d4;strokeColor=#82b366;" parent="1" vertex="1">
          <mxGeometry x="815" y="284" width="40" height="40" as="geometry" />
        </mxCell>
        <mxCell id="44AiBCDxBOzTBdy34bFM-556" value="" style="rounded=0;whiteSpace=wrap;html=1;fillColor=#d5e8d4;strokeColor=#82b366;" parent="1" vertex="1">
          <mxGeometry x="655" y="324" width="40" height="40" as="geometry" />
        </mxCell>
        <mxCell id="44AiBCDxBOzTBdy34bFM-557" value="" style="rounded=0;whiteSpace=wrap;html=1;fillColor=#d5e8d4;strokeColor=#82b366;" parent="1" vertex="1">
          <mxGeometry x="695" y="324" width="40" height="40" as="geometry" />
        </mxCell>
        <mxCell id="44AiBCDxBOzTBdy34bFM-558" value="" style="rounded=0;whiteSpace=wrap;html=1;fillColor=#d5e8d4;strokeColor=#82b366;" parent="1" vertex="1">
          <mxGeometry x="735" y="324" width="40" height="40" as="geometry" />
        </mxCell>
        <mxCell id="44AiBCDxBOzTBdy34bFM-559" value="" style="rounded=0;whiteSpace=wrap;html=1;fillColor=#d5e8d4;strokeColor=#82b366;" parent="1" vertex="1">
          <mxGeometry x="775" y="324" width="40" height="40" as="geometry" />
        </mxCell>
        <mxCell id="44AiBCDxBOzTBdy34bFM-560" value="" style="rounded=0;whiteSpace=wrap;html=1;fillColor=#d5e8d4;strokeColor=#82b366;" parent="1" vertex="1">
          <mxGeometry x="815" y="324" width="40" height="40" as="geometry" />
        </mxCell>
        <mxCell id="44AiBCDxBOzTBdy34bFM-586" value="" style="rounded=0;whiteSpace=wrap;html=1;fillColor=#ffe6cc;strokeColor=#d79b00;" parent="1" vertex="1">
          <mxGeometry x="665" y="214" width="40" height="40" as="geometry" />
        </mxCell>
        <mxCell id="44AiBCDxBOzTBdy34bFM-587" value="" style="rounded=0;whiteSpace=wrap;html=1;fillColor=#ffe6cc;strokeColor=#d79b00;" parent="1" vertex="1">
          <mxGeometry x="705" y="214" width="40" height="40" as="geometry" />
        </mxCell>
        <mxCell id="44AiBCDxBOzTBdy34bFM-588" value="" style="rounded=0;whiteSpace=wrap;html=1;fillColor=#ffe6cc;strokeColor=#d79b00;" parent="1" vertex="1">
          <mxGeometry x="745" y="214" width="40" height="40" as="geometry" />
        </mxCell>
        <mxCell id="44AiBCDxBOzTBdy34bFM-589" value="" style="rounded=0;whiteSpace=wrap;html=1;fillColor=#ffe6cc;strokeColor=#d79b00;" parent="1" vertex="1">
          <mxGeometry x="785" y="214" width="40" height="40" as="geometry" />
        </mxCell>
        <mxCell id="44AiBCDxBOzTBdy34bFM-592" value="" style="rounded=0;whiteSpace=wrap;html=1;fillColor=#ffe6cc;strokeColor=#d79b00;" parent="1" vertex="1">
          <mxGeometry x="665" y="254" width="40" height="40" as="geometry" />
        </mxCell>
        <mxCell id="44AiBCDxBOzTBdy34bFM-593" value="" style="rounded=0;whiteSpace=wrap;html=1;fillColor=#ffe6cc;strokeColor=#d79b00;" parent="1" vertex="1">
          <mxGeometry x="705" y="254" width="40" height="40" as="geometry" />
        </mxCell>
        <mxCell id="44AiBCDxBOzTBdy34bFM-594" value="" style="rounded=0;whiteSpace=wrap;html=1;fillColor=#ffe6cc;strokeColor=#d79b00;" parent="1" vertex="1">
          <mxGeometry x="745" y="254" width="40" height="40" as="geometry" />
        </mxCell>
        <mxCell id="44AiBCDxBOzTBdy34bFM-595" value="" style="rounded=0;whiteSpace=wrap;html=1;fillColor=#ffe6cc;strokeColor=#d79b00;" parent="1" vertex="1">
          <mxGeometry x="785" y="254" width="40" height="40" as="geometry" />
        </mxCell>
        <mxCell id="44AiBCDxBOzTBdy34bFM-598" value="" style="rounded=0;whiteSpace=wrap;html=1;fillColor=#ffe6cc;strokeColor=#d79b00;" parent="1" vertex="1">
          <mxGeometry x="665" y="294" width="40" height="40" as="geometry" />
        </mxCell>
        <mxCell id="44AiBCDxBOzTBdy34bFM-599" value="" style="rounded=0;whiteSpace=wrap;html=1;fillColor=#ffe6cc;strokeColor=#d79b00;" parent="1" vertex="1">
          <mxGeometry x="705" y="294" width="40" height="40" as="geometry" />
        </mxCell>
        <mxCell id="44AiBCDxBOzTBdy34bFM-600" value="" style="rounded=0;whiteSpace=wrap;html=1;fillColor=#ffe6cc;strokeColor=#d79b00;" parent="1" vertex="1">
          <mxGeometry x="745" y="294" width="40" height="40" as="geometry" />
        </mxCell>
        <mxCell id="44AiBCDxBOzTBdy34bFM-601" value="" style="rounded=0;whiteSpace=wrap;html=1;fillColor=#ffe6cc;strokeColor=#d79b00;" parent="1" vertex="1">
          <mxGeometry x="785" y="294" width="40" height="40" as="geometry" />
        </mxCell>
        <mxCell id="44AiBCDxBOzTBdy34bFM-604" value="" style="rounded=0;whiteSpace=wrap;html=1;fillColor=#ffe6cc;strokeColor=#d79b00;" parent="1" vertex="1">
          <mxGeometry x="665" y="334" width="40" height="40" as="geometry" />
        </mxCell>
        <mxCell id="44AiBCDxBOzTBdy34bFM-605" value="" style="rounded=0;whiteSpace=wrap;html=1;fillColor=#ffe6cc;strokeColor=#d79b00;" parent="1" vertex="1">
          <mxGeometry x="705" y="334" width="40" height="40" as="geometry" />
        </mxCell>
        <mxCell id="44AiBCDxBOzTBdy34bFM-606" value="" style="rounded=0;whiteSpace=wrap;html=1;fillColor=#ffe6cc;strokeColor=#d79b00;" parent="1" vertex="1">
          <mxGeometry x="745" y="334" width="40" height="40" as="geometry" />
        </mxCell>
        <mxCell id="44AiBCDxBOzTBdy34bFM-607" value="" style="rounded=0;whiteSpace=wrap;html=1;fillColor=#ffe6cc;strokeColor=#d79b00;" parent="1" vertex="1">
          <mxGeometry x="785" y="334" width="40" height="40" as="geometry" />
        </mxCell>
        <mxCell id="44AiBCDxBOzTBdy34bFM-634" value="" style="rounded=0;whiteSpace=wrap;html=1;fillColor=#fff2cc;strokeColor=#d6b656;" parent="1" vertex="1">
          <mxGeometry x="675" y="224" width="40" height="40" as="geometry" />
        </mxCell>
        <mxCell id="44AiBCDxBOzTBdy34bFM-635" value="" style="rounded=0;whiteSpace=wrap;html=1;fillColor=#fff2cc;strokeColor=#d6b656;" parent="1" vertex="1">
          <mxGeometry x="715" y="224" width="40" height="40" as="geometry" />
        </mxCell>
        <mxCell id="44AiBCDxBOzTBdy34bFM-636" value="" style="rounded=0;whiteSpace=wrap;html=1;fillColor=#fff2cc;strokeColor=#d6b656;" parent="1" vertex="1">
          <mxGeometry x="755" y="224" width="40" height="40" as="geometry" />
        </mxCell>
        <mxCell id="44AiBCDxBOzTBdy34bFM-637" value="" style="rounded=0;whiteSpace=wrap;html=1;fillColor=#fff2cc;strokeColor=#d6b656;" parent="1" vertex="1">
          <mxGeometry x="795" y="224" width="40" height="40" as="geometry" />
        </mxCell>
        <mxCell id="44AiBCDxBOzTBdy34bFM-640" value="" style="rounded=0;whiteSpace=wrap;html=1;fillColor=#fff2cc;strokeColor=#d6b656;" parent="1" vertex="1">
          <mxGeometry x="675" y="264" width="40" height="40" as="geometry" />
        </mxCell>
        <mxCell id="44AiBCDxBOzTBdy34bFM-641" value="" style="rounded=0;whiteSpace=wrap;html=1;fillColor=#fff2cc;strokeColor=#d6b656;" parent="1" vertex="1">
          <mxGeometry x="715" y="264" width="40" height="40" as="geometry" />
        </mxCell>
        <mxCell id="44AiBCDxBOzTBdy34bFM-642" value="" style="rounded=0;whiteSpace=wrap;html=1;fillColor=#fff2cc;strokeColor=#d6b656;" parent="1" vertex="1">
          <mxGeometry x="755" y="264" width="40" height="40" as="geometry" />
        </mxCell>
        <mxCell id="44AiBCDxBOzTBdy34bFM-643" value="" style="rounded=0;whiteSpace=wrap;html=1;fillColor=#fff2cc;strokeColor=#d6b656;" parent="1" vertex="1">
          <mxGeometry x="795" y="264" width="40" height="40" as="geometry" />
        </mxCell>
        <mxCell id="44AiBCDxBOzTBdy34bFM-646" value="" style="rounded=0;whiteSpace=wrap;html=1;fillColor=#fff2cc;strokeColor=#d6b656;" parent="1" vertex="1">
          <mxGeometry x="675" y="304" width="40" height="40" as="geometry" />
        </mxCell>
        <mxCell id="44AiBCDxBOzTBdy34bFM-647" value="" style="rounded=0;whiteSpace=wrap;html=1;fillColor=#fff2cc;strokeColor=#d6b656;" parent="1" vertex="1">
          <mxGeometry x="715" y="304" width="40" height="40" as="geometry" />
        </mxCell>
        <mxCell id="44AiBCDxBOzTBdy34bFM-648" value="" style="rounded=0;whiteSpace=wrap;html=1;fillColor=#fff2cc;strokeColor=#d6b656;" parent="1" vertex="1">
          <mxGeometry x="755" y="304" width="40" height="40" as="geometry" />
        </mxCell>
        <mxCell id="44AiBCDxBOzTBdy34bFM-649" value="" style="rounded=0;whiteSpace=wrap;html=1;fillColor=#fff2cc;strokeColor=#d6b656;" parent="1" vertex="1">
          <mxGeometry x="795" y="304" width="40" height="40" as="geometry" />
        </mxCell>
        <mxCell id="44AiBCDxBOzTBdy34bFM-652" value="" style="rounded=0;whiteSpace=wrap;html=1;fillColor=#fff2cc;strokeColor=#d6b656;" parent="1" vertex="1">
          <mxGeometry x="675" y="344" width="40" height="40" as="geometry" />
        </mxCell>
        <mxCell id="44AiBCDxBOzTBdy34bFM-653" value="" style="rounded=0;whiteSpace=wrap;html=1;fillColor=#fff2cc;strokeColor=#d6b656;" parent="1" vertex="1">
          <mxGeometry x="715" y="344" width="40" height="40" as="geometry" />
        </mxCell>
        <mxCell id="44AiBCDxBOzTBdy34bFM-654" value="" style="rounded=0;whiteSpace=wrap;html=1;fillColor=#fff2cc;strokeColor=#d6b656;" parent="1" vertex="1">
          <mxGeometry x="755" y="344" width="40" height="40" as="geometry" />
        </mxCell>
        <mxCell id="44AiBCDxBOzTBdy34bFM-655" value="" style="rounded=0;whiteSpace=wrap;html=1;fillColor=#fff2cc;strokeColor=#d6b656;" parent="1" vertex="1">
          <mxGeometry x="795" y="344" width="40" height="40" as="geometry" />
        </mxCell>
        <mxCell id="44AiBCDxBOzTBdy34bFM-682" value="" style="rounded=0;whiteSpace=wrap;html=1;fillColor=#f8cecc;strokeColor=#b85450;" parent="1" vertex="1">
          <mxGeometry x="685" y="234" width="40" height="40" as="geometry" />
        </mxCell>
        <mxCell id="44AiBCDxBOzTBdy34bFM-683" value="" style="rounded=0;whiteSpace=wrap;html=1;fillColor=#f8cecc;strokeColor=#b85450;" parent="1" vertex="1">
          <mxGeometry x="725" y="234" width="40" height="40" as="geometry" />
        </mxCell>
        <mxCell id="44AiBCDxBOzTBdy34bFM-684" value="" style="rounded=0;whiteSpace=wrap;html=1;fillColor=#f8cecc;strokeColor=#b85450;" parent="1" vertex="1">
          <mxGeometry x="765" y="234" width="40" height="40" as="geometry" />
        </mxCell>
        <mxCell id="44AiBCDxBOzTBdy34bFM-685" value="" style="rounded=0;whiteSpace=wrap;html=1;fillColor=#f8cecc;strokeColor=#b85450;" parent="1" vertex="1">
          <mxGeometry x="805" y="234" width="40" height="40" as="geometry" />
        </mxCell>
        <mxCell id="44AiBCDxBOzTBdy34bFM-688" value="" style="rounded=0;whiteSpace=wrap;html=1;fillColor=#f8cecc;strokeColor=#b85450;" parent="1" vertex="1">
          <mxGeometry x="685" y="274" width="40" height="40" as="geometry" />
        </mxCell>
        <mxCell id="44AiBCDxBOzTBdy34bFM-689" value="" style="rounded=0;whiteSpace=wrap;html=1;fillColor=#f8cecc;strokeColor=#b85450;" parent="1" vertex="1">
          <mxGeometry x="725" y="274" width="40" height="40" as="geometry" />
        </mxCell>
        <mxCell id="44AiBCDxBOzTBdy34bFM-690" value="" style="rounded=0;whiteSpace=wrap;html=1;fillColor=#f8cecc;strokeColor=#b85450;" parent="1" vertex="1">
          <mxGeometry x="765" y="274" width="40" height="40" as="geometry" />
        </mxCell>
        <mxCell id="44AiBCDxBOzTBdy34bFM-691" value="" style="rounded=0;whiteSpace=wrap;html=1;fillColor=#f8cecc;strokeColor=#b85450;" parent="1" vertex="1">
          <mxGeometry x="805" y="274" width="40" height="40" as="geometry" />
        </mxCell>
        <mxCell id="44AiBCDxBOzTBdy34bFM-694" value="" style="rounded=0;whiteSpace=wrap;html=1;fillColor=#f8cecc;strokeColor=#b85450;" parent="1" vertex="1">
          <mxGeometry x="685" y="314" width="40" height="40" as="geometry" />
        </mxCell>
        <mxCell id="44AiBCDxBOzTBdy34bFM-695" value="" style="rounded=0;whiteSpace=wrap;html=1;fillColor=#f8cecc;strokeColor=#b85450;" parent="1" vertex="1">
          <mxGeometry x="725" y="314" width="40" height="40" as="geometry" />
        </mxCell>
        <mxCell id="44AiBCDxBOzTBdy34bFM-696" value="" style="rounded=0;whiteSpace=wrap;html=1;fillColor=#f8cecc;strokeColor=#b85450;" parent="1" vertex="1">
          <mxGeometry x="765" y="314" width="40" height="40" as="geometry" />
        </mxCell>
        <mxCell id="44AiBCDxBOzTBdy34bFM-697" value="" style="rounded=0;whiteSpace=wrap;html=1;fillColor=#f8cecc;strokeColor=#b85450;" parent="1" vertex="1">
          <mxGeometry x="805" y="314" width="40" height="40" as="geometry" />
        </mxCell>
        <mxCell id="44AiBCDxBOzTBdy34bFM-700" value="" style="rounded=0;whiteSpace=wrap;html=1;fillColor=#f8cecc;strokeColor=#b85450;" parent="1" vertex="1">
          <mxGeometry x="685" y="354" width="40" height="40" as="geometry" />
        </mxCell>
        <mxCell id="44AiBCDxBOzTBdy34bFM-701" value="" style="rounded=0;whiteSpace=wrap;html=1;fillColor=#f8cecc;strokeColor=#b85450;" parent="1" vertex="1">
          <mxGeometry x="725" y="354" width="40" height="40" as="geometry" />
        </mxCell>
        <mxCell id="44AiBCDxBOzTBdy34bFM-702" value="" style="rounded=0;whiteSpace=wrap;html=1;fillColor=#f8cecc;strokeColor=#b85450;" parent="1" vertex="1">
          <mxGeometry x="765" y="354" width="40" height="40" as="geometry" />
        </mxCell>
        <mxCell id="44AiBCDxBOzTBdy34bFM-703" value="" style="rounded=0;whiteSpace=wrap;html=1;fillColor=#f8cecc;strokeColor=#b85450;" parent="1" vertex="1">
          <mxGeometry x="805" y="354" width="40" height="40" as="geometry" />
        </mxCell>
        <mxCell id="44AiBCDxBOzTBdy34bFM-730" value="" style="rounded=0;whiteSpace=wrap;html=1;fillColor=#e1d5e7;strokeColor=#9673a6;" parent="1" vertex="1">
          <mxGeometry x="695" y="244" width="40" height="40" as="geometry" />
        </mxCell>
        <mxCell id="44AiBCDxBOzTBdy34bFM-731" value="" style="rounded=0;whiteSpace=wrap;html=1;fillColor=#e1d5e7;strokeColor=#9673a6;" parent="1" vertex="1">
          <mxGeometry x="735" y="244" width="40" height="40" as="geometry" />
        </mxCell>
        <mxCell id="44AiBCDxBOzTBdy34bFM-732" value="" style="rounded=0;whiteSpace=wrap;html=1;fillColor=#e1d5e7;strokeColor=#9673a6;" parent="1" vertex="1">
          <mxGeometry x="775" y="244" width="40" height="40" as="geometry" />
        </mxCell>
        <mxCell id="44AiBCDxBOzTBdy34bFM-733" value="" style="rounded=0;whiteSpace=wrap;html=1;fillColor=#e1d5e7;strokeColor=#9673a6;" parent="1" vertex="1">
          <mxGeometry x="815" y="244" width="40" height="40" as="geometry" />
        </mxCell>
        <mxCell id="44AiBCDxBOzTBdy34bFM-736" value="" style="rounded=0;whiteSpace=wrap;html=1;fillColor=#e1d5e7;strokeColor=#9673a6;" parent="1" vertex="1">
          <mxGeometry x="695" y="284" width="40" height="40" as="geometry" />
        </mxCell>
        <mxCell id="44AiBCDxBOzTBdy34bFM-737" value="" style="rounded=0;whiteSpace=wrap;html=1;fillColor=#e1d5e7;strokeColor=#9673a6;" parent="1" vertex="1">
          <mxGeometry x="735" y="284" width="40" height="40" as="geometry" />
        </mxCell>
        <mxCell id="44AiBCDxBOzTBdy34bFM-738" value="" style="rounded=0;whiteSpace=wrap;html=1;fillColor=#e1d5e7;strokeColor=#9673a6;" parent="1" vertex="1">
          <mxGeometry x="775" y="284" width="40" height="40" as="geometry" />
        </mxCell>
        <mxCell id="ehlFxMS1mAo0d8vLHFDj-272" style="edgeStyle=none;rounded=1;jumpSize=20;orthogonalLoop=1;jettySize=auto;html=1;entryX=0;entryY=0;entryDx=0;entryDy=0;strokeWidth=1;" parent="1" source="44AiBCDxBOzTBdy34bFM-739" target="ehlFxMS1mAo0d8vLHFDj-4" edge="1">
          <mxGeometry relative="1" as="geometry" />
        </mxCell>
        <mxCell id="44AiBCDxBOzTBdy34bFM-739" value="" style="rounded=0;whiteSpace=wrap;html=1;fillColor=#e1d5e7;strokeColor=#9673a6;" parent="1" vertex="1">
          <mxGeometry x="815" y="284" width="40" height="40" as="geometry" />
        </mxCell>
        <mxCell id="44AiBCDxBOzTBdy34bFM-742" value="" style="rounded=0;whiteSpace=wrap;html=1;fillColor=#e1d5e7;strokeColor=#9673a6;" parent="1" vertex="1">
          <mxGeometry x="695" y="324" width="40" height="40" as="geometry" />
        </mxCell>
        <mxCell id="44AiBCDxBOzTBdy34bFM-743" value="" style="rounded=0;whiteSpace=wrap;html=1;fillColor=#e1d5e7;strokeColor=#9673a6;" parent="1" vertex="1">
          <mxGeometry x="735" y="324" width="40" height="40" as="geometry" />
        </mxCell>
        <mxCell id="44AiBCDxBOzTBdy34bFM-744" value="" style="rounded=0;whiteSpace=wrap;html=1;fillColor=#e1d5e7;strokeColor=#9673a6;" parent="1" vertex="1">
          <mxGeometry x="775" y="324" width="40" height="40" as="geometry" />
        </mxCell>
        <mxCell id="44AiBCDxBOzTBdy34bFM-745" value="" style="rounded=0;whiteSpace=wrap;html=1;fillColor=#e1d5e7;strokeColor=#9673a6;" parent="1" vertex="1">
          <mxGeometry x="815" y="324" width="40" height="40" as="geometry" />
        </mxCell>
        <mxCell id="44AiBCDxBOzTBdy34bFM-748" value="" style="rounded=0;whiteSpace=wrap;html=1;fillColor=#e1d5e7;strokeColor=#9673a6;" parent="1" vertex="1">
          <mxGeometry x="695" y="364" width="40" height="40" as="geometry" />
        </mxCell>
        <mxCell id="44AiBCDxBOzTBdy34bFM-749" value="" style="rounded=0;whiteSpace=wrap;html=1;fillColor=#e1d5e7;strokeColor=#9673a6;" parent="1" vertex="1">
          <mxGeometry x="735" y="364" width="40" height="40" as="geometry" />
        </mxCell>
        <mxCell id="44AiBCDxBOzTBdy34bFM-750" value="" style="rounded=0;whiteSpace=wrap;html=1;fillColor=#e1d5e7;strokeColor=#9673a6;" parent="1" vertex="1">
          <mxGeometry x="775" y="364" width="40" height="40" as="geometry" />
        </mxCell>
        <mxCell id="44AiBCDxBOzTBdy34bFM-751" value="" style="rounded=0;whiteSpace=wrap;html=1;fillColor=#e1d5e7;strokeColor=#9673a6;" parent="1" vertex="1">
          <mxGeometry x="815" y="364" width="40" height="40" as="geometry" />
        </mxCell>
        <mxCell id="ehlFxMS1mAo0d8vLHFDj-1" value="Two-dimensional convolution" style="text;html=1;strokeColor=none;fillColor=none;align=center;verticalAlign=middle;whiteSpace=wrap;rounded=0;" parent="1" vertex="1">
          <mxGeometry x="630" y="434" width="250" height="20" as="geometry" />
        </mxCell>
        <mxCell id="ehlFxMS1mAo0d8vLHFDj-2" value="" style="rounded=0;whiteSpace=wrap;html=1;fillColor=#f5f5f5;strokeColor=#666666;fontColor=#333333;shadow=1;sketch=1;" parent="1" vertex="1">
          <mxGeometry x="895" y="224" width="40" height="40" as="geometry" />
        </mxCell>
        <mxCell id="ehlFxMS1mAo0d8vLHFDj-273" style="edgeStyle=none;rounded=1;jumpSize=20;orthogonalLoop=1;jettySize=auto;html=1;entryX=0;entryY=0.5;entryDx=0;entryDy=0;strokeWidth=1;exitX=1;exitY=1;exitDx=0;exitDy=0;" parent="1" source="ehlFxMS1mAo0d8vLHFDj-3" target="ehlFxMS1mAo0d8vLHFDj-22" edge="1">
          <mxGeometry relative="1" as="geometry" />
        </mxCell>
        <mxCell id="ehlFxMS1mAo0d8vLHFDj-3" value="" style="rounded=0;whiteSpace=wrap;html=1;fillColor=#f5f5f5;strokeColor=#666666;fontColor=#333333;shadow=1;sketch=1;" parent="1" vertex="1">
          <mxGeometry x="895" y="264" width="40" height="40" as="geometry" />
        </mxCell>
        <mxCell id="ehlFxMS1mAo0d8vLHFDj-4" value="" style="rounded=0;whiteSpace=wrap;html=1;fillColor=#f5f5f5;strokeColor=#666666;fontColor=#333333;shadow=1;sketch=1;" parent="1" vertex="1">
          <mxGeometry x="895" y="304" width="40" height="40" as="geometry" />
        </mxCell>
        <mxCell id="ehlFxMS1mAo0d8vLHFDj-6" value="" style="rounded=0;whiteSpace=wrap;html=1;fillColor=#f5f5f5;strokeColor=#666666;fontColor=#333333;shadow=1;sketch=1;" parent="1" vertex="1">
          <mxGeometry x="895" y="344" width="40" height="40" as="geometry" />
        </mxCell>
        <mxCell id="ehlFxMS1mAo0d8vLHFDj-21" value="Activation" style="text;html=1;strokeColor=none;fillColor=none;align=center;verticalAlign=middle;whiteSpace=wrap;rounded=0;" parent="1" vertex="1">
          <mxGeometry x="880" y="354" width="250" height="20" as="geometry" />
        </mxCell>
        <mxCell id="ehlFxMS1mAo0d8vLHFDj-388" style="edgeStyle=none;rounded=1;jumpSize=20;orthogonalLoop=1;jettySize=auto;html=1;entryX=0;entryY=0.75;entryDx=0;entryDy=0;strokeWidth=1;" parent="1" source="ehlFxMS1mAo0d8vLHFDj-22" target="ehlFxMS1mAo0d8vLHFDj-283" edge="1">
          <mxGeometry relative="1" as="geometry" />
        </mxCell>
        <mxCell id="ehlFxMS1mAo0d8vLHFDj-22" value="" style="rounded=0;whiteSpace=wrap;html=1;" parent="1" vertex="1">
          <mxGeometry x="965" y="264" width="80" height="80" as="geometry" />
        </mxCell>
        <mxCell id="ehlFxMS1mAo0d8vLHFDj-23" value="" style="endArrow=none;html=1;rounded=1;jumpSize=20;strokeWidth=4;" parent="1" edge="1">
          <mxGeometry width="50" height="50" relative="1" as="geometry">
            <mxPoint x="975" y="314" as="sourcePoint" />
            <mxPoint x="1010" y="314" as="targetPoint" />
          </mxGeometry>
        </mxCell>
        <mxCell id="ehlFxMS1mAo0d8vLHFDj-24" value="" style="endArrow=none;html=1;rounded=1;jumpSize=20;strokeWidth=4;" parent="1" edge="1">
          <mxGeometry width="50" height="50" relative="1" as="geometry">
            <mxPoint x="1010" y="314" as="sourcePoint" />
            <mxPoint x="1035" y="289" as="targetPoint" />
          </mxGeometry>
        </mxCell>
        <mxCell id="ehlFxMS1mAo0d8vLHFDj-25" value="Batch Normalization" style="text;html=1;strokeColor=none;fillColor=none;align=center;verticalAlign=middle;whiteSpace=wrap;rounded=0;" parent="1" vertex="1">
          <mxGeometry x="790" y="414" width="250" height="20" as="geometry" />
        </mxCell>
        <mxCell id="ehlFxMS1mAo0d8vLHFDj-52" style="rounded=1;jumpSize=20;orthogonalLoop=1;jettySize=auto;html=1;entryX=0;entryY=0.5;entryDx=0;entryDy=0;strokeWidth=1;" parent="1" source="ehlFxMS1mAo0d8vLHFDj-30" target="ehlFxMS1mAo0d8vLHFDj-48" edge="1">
          <mxGeometry relative="1" as="geometry" />
        </mxCell>
        <mxCell id="ehlFxMS1mAo0d8vLHFDj-30" value="" style="ellipse;whiteSpace=wrap;html=1;aspect=fixed;" parent="1" vertex="1">
          <mxGeometry x="2225" y="169" width="30" height="30" as="geometry" />
        </mxCell>
        <mxCell id="ehlFxMS1mAo0d8vLHFDj-31" value="" style="ellipse;whiteSpace=wrap;html=1;aspect=fixed;" parent="1" vertex="1">
          <mxGeometry x="2225" y="209" width="30" height="30" as="geometry" />
        </mxCell>
        <mxCell id="ehlFxMS1mAo0d8vLHFDj-54" style="rounded=1;jumpSize=20;orthogonalLoop=1;jettySize=auto;html=1;entryX=0;entryY=0.5;entryDx=0;entryDy=0;strokeWidth=1;" parent="1" source="ehlFxMS1mAo0d8vLHFDj-32" target="ehlFxMS1mAo0d8vLHFDj-45" edge="1">
          <mxGeometry relative="1" as="geometry" />
        </mxCell>
        <mxCell id="ehlFxMS1mAo0d8vLHFDj-60" style="edgeStyle=none;rounded=1;jumpSize=20;orthogonalLoop=1;jettySize=auto;html=1;entryX=0;entryY=0.5;entryDx=0;entryDy=0;strokeWidth=1;" parent="1" source="ehlFxMS1mAo0d8vLHFDj-32" target="ehlFxMS1mAo0d8vLHFDj-50" edge="1">
          <mxGeometry relative="1" as="geometry" />
        </mxCell>
        <mxCell id="ehlFxMS1mAo0d8vLHFDj-550" style="edgeStyle=none;rounded=1;jumpSize=20;orthogonalLoop=1;jettySize=auto;html=1;entryX=0;entryY=0.5;entryDx=0;entryDy=0;strokeWidth=1;" parent="1" source="ehlFxMS1mAo0d8vLHFDj-32" target="ehlFxMS1mAo0d8vLHFDj-49" edge="1">
          <mxGeometry relative="1" as="geometry" />
        </mxCell>
        <mxCell id="ehlFxMS1mAo0d8vLHFDj-32" value="" style="ellipse;whiteSpace=wrap;html=1;aspect=fixed;" parent="1" vertex="1">
          <mxGeometry x="2225" y="249" width="30" height="30" as="geometry" />
        </mxCell>
        <mxCell id="ehlFxMS1mAo0d8vLHFDj-56" style="rounded=1;jumpSize=20;orthogonalLoop=1;jettySize=auto;html=1;entryX=0;entryY=0.5;entryDx=0;entryDy=0;strokeWidth=1;" parent="1" source="ehlFxMS1mAo0d8vLHFDj-33" target="ehlFxMS1mAo0d8vLHFDj-47" edge="1">
          <mxGeometry relative="1" as="geometry" />
        </mxCell>
        <mxCell id="ehlFxMS1mAo0d8vLHFDj-33" value="" style="ellipse;whiteSpace=wrap;html=1;aspect=fixed;" parent="1" vertex="1">
          <mxGeometry x="2225" y="289" width="30" height="30" as="geometry" />
        </mxCell>
        <mxCell id="ehlFxMS1mAo0d8vLHFDj-55" style="rounded=1;jumpSize=20;orthogonalLoop=1;jettySize=auto;html=1;entryX=0;entryY=0.5;entryDx=0;entryDy=0;strokeWidth=1;" parent="1" source="ehlFxMS1mAo0d8vLHFDj-34" target="ehlFxMS1mAo0d8vLHFDj-46" edge="1">
          <mxGeometry relative="1" as="geometry" />
        </mxCell>
        <mxCell id="ehlFxMS1mAo0d8vLHFDj-59" style="edgeStyle=none;rounded=1;jumpSize=20;orthogonalLoop=1;jettySize=auto;html=1;entryX=0;entryY=0.5;entryDx=0;entryDy=0;strokeWidth=1;" parent="1" source="ehlFxMS1mAo0d8vLHFDj-34" target="ehlFxMS1mAo0d8vLHFDj-51" edge="1">
          <mxGeometry relative="1" as="geometry" />
        </mxCell>
        <mxCell id="ehlFxMS1mAo0d8vLHFDj-61" style="edgeStyle=none;rounded=1;jumpSize=20;orthogonalLoop=1;jettySize=auto;html=1;entryX=0;entryY=0.5;entryDx=0;entryDy=0;strokeWidth=1;" parent="1" source="ehlFxMS1mAo0d8vLHFDj-34" target="ehlFxMS1mAo0d8vLHFDj-50" edge="1">
          <mxGeometry relative="1" as="geometry" />
        </mxCell>
        <mxCell id="ehlFxMS1mAo0d8vLHFDj-34" value="" style="ellipse;whiteSpace=wrap;html=1;aspect=fixed;" parent="1" vertex="1">
          <mxGeometry x="2225" y="329" width="30" height="30" as="geometry" />
        </mxCell>
        <mxCell id="ehlFxMS1mAo0d8vLHFDj-57" style="edgeStyle=none;rounded=1;jumpSize=20;orthogonalLoop=1;jettySize=auto;html=1;entryX=0;entryY=0.5;entryDx=0;entryDy=0;strokeWidth=1;" parent="1" source="ehlFxMS1mAo0d8vLHFDj-35" target="ehlFxMS1mAo0d8vLHFDj-46" edge="1">
          <mxGeometry relative="1" as="geometry" />
        </mxCell>
        <mxCell id="ehlFxMS1mAo0d8vLHFDj-35" value="" style="ellipse;whiteSpace=wrap;html=1;aspect=fixed;" parent="1" vertex="1">
          <mxGeometry x="2225" y="369" width="30" height="30" as="geometry" />
        </mxCell>
        <mxCell id="ehlFxMS1mAo0d8vLHFDj-58" style="edgeStyle=none;rounded=1;jumpSize=20;orthogonalLoop=1;jettySize=auto;html=1;entryX=0;entryY=0.5;entryDx=0;entryDy=0;strokeWidth=1;" parent="1" source="ehlFxMS1mAo0d8vLHFDj-36" target="ehlFxMS1mAo0d8vLHFDj-50" edge="1">
          <mxGeometry relative="1" as="geometry" />
        </mxCell>
        <mxCell id="ehlFxMS1mAo0d8vLHFDj-36" value="" style="ellipse;whiteSpace=wrap;html=1;aspect=fixed;" parent="1" vertex="1">
          <mxGeometry x="2225" y="409" width="30" height="30" as="geometry" />
        </mxCell>
        <mxCell id="ehlFxMS1mAo0d8vLHFDj-545" style="edgeStyle=none;rounded=1;jumpSize=20;orthogonalLoop=1;jettySize=auto;html=1;entryX=0;entryY=0.5;entryDx=0;entryDy=0;strokeWidth=1;" parent="1" source="ehlFxMS1mAo0d8vLHFDj-45" target="ehlFxMS1mAo0d8vLHFDj-534" edge="1">
          <mxGeometry relative="1" as="geometry" />
        </mxCell>
        <mxCell id="ehlFxMS1mAo0d8vLHFDj-45" value="" style="ellipse;whiteSpace=wrap;html=1;aspect=fixed;" parent="1" vertex="1">
          <mxGeometry x="2305" y="169" width="30" height="30" as="geometry" />
        </mxCell>
        <mxCell id="ehlFxMS1mAo0d8vLHFDj-547" style="edgeStyle=none;rounded=1;jumpSize=20;orthogonalLoop=1;jettySize=auto;html=1;entryX=0;entryY=0.5;entryDx=0;entryDy=0;strokeWidth=1;" parent="1" source="ehlFxMS1mAo0d8vLHFDj-46" target="ehlFxMS1mAo0d8vLHFDj-536" edge="1">
          <mxGeometry relative="1" as="geometry" />
        </mxCell>
        <mxCell id="ehlFxMS1mAo0d8vLHFDj-46" value="" style="ellipse;whiteSpace=wrap;html=1;aspect=fixed;" parent="1" vertex="1">
          <mxGeometry x="2305" y="209" width="30" height="30" as="geometry" />
        </mxCell>
        <mxCell id="ehlFxMS1mAo0d8vLHFDj-47" value="" style="ellipse;whiteSpace=wrap;html=1;aspect=fixed;" parent="1" vertex="1">
          <mxGeometry x="2305" y="249" width="30" height="30" as="geometry" />
        </mxCell>
        <mxCell id="ehlFxMS1mAo0d8vLHFDj-546" style="edgeStyle=none;rounded=1;jumpSize=20;orthogonalLoop=1;jettySize=auto;html=1;entryX=0;entryY=0.5;entryDx=0;entryDy=0;strokeWidth=1;" parent="1" source="ehlFxMS1mAo0d8vLHFDj-48" target="ehlFxMS1mAo0d8vLHFDj-531" edge="1">
          <mxGeometry relative="1" as="geometry" />
        </mxCell>
        <mxCell id="ehlFxMS1mAo0d8vLHFDj-548" style="edgeStyle=none;rounded=1;jumpSize=20;orthogonalLoop=1;jettySize=auto;html=1;entryX=0;entryY=0.5;entryDx=0;entryDy=0;strokeWidth=1;" parent="1" source="ehlFxMS1mAo0d8vLHFDj-48" target="ehlFxMS1mAo0d8vLHFDj-535" edge="1">
          <mxGeometry relative="1" as="geometry" />
        </mxCell>
        <mxCell id="ehlFxMS1mAo0d8vLHFDj-555" style="edgeStyle=none;rounded=1;jumpSize=20;orthogonalLoop=1;jettySize=auto;html=1;entryX=0;entryY=0.5;entryDx=0;entryDy=0;strokeWidth=1;" parent="1" source="ehlFxMS1mAo0d8vLHFDj-48" target="ehlFxMS1mAo0d8vLHFDj-532" edge="1">
          <mxGeometry relative="1" as="geometry" />
        </mxCell>
        <mxCell id="ehlFxMS1mAo0d8vLHFDj-48" value="" style="ellipse;whiteSpace=wrap;html=1;aspect=fixed;" parent="1" vertex="1">
          <mxGeometry x="2305" y="289" width="30" height="30" as="geometry" />
        </mxCell>
        <mxCell id="ehlFxMS1mAo0d8vLHFDj-549" style="edgeStyle=none;rounded=1;jumpSize=20;orthogonalLoop=1;jettySize=auto;html=1;entryX=0;entryY=0.5;entryDx=0;entryDy=0;strokeWidth=1;" parent="1" source="ehlFxMS1mAo0d8vLHFDj-49" target="ehlFxMS1mAo0d8vLHFDj-532" edge="1">
          <mxGeometry relative="1" as="geometry" />
        </mxCell>
        <mxCell id="ehlFxMS1mAo0d8vLHFDj-554" style="edgeStyle=none;rounded=1;jumpSize=20;orthogonalLoop=1;jettySize=auto;html=1;entryX=0;entryY=0.5;entryDx=0;entryDy=0;strokeWidth=1;" parent="1" source="ehlFxMS1mAo0d8vLHFDj-49" target="ehlFxMS1mAo0d8vLHFDj-536" edge="1">
          <mxGeometry relative="1" as="geometry" />
        </mxCell>
        <mxCell id="ehlFxMS1mAo0d8vLHFDj-49" value="" style="ellipse;whiteSpace=wrap;html=1;aspect=fixed;" parent="1" vertex="1">
          <mxGeometry x="2305" y="329" width="30" height="30" as="geometry" />
        </mxCell>
        <mxCell id="ehlFxMS1mAo0d8vLHFDj-551" style="edgeStyle=none;rounded=1;jumpSize=20;orthogonalLoop=1;jettySize=auto;html=1;entryX=0;entryY=0.5;entryDx=0;entryDy=0;strokeWidth=1;" parent="1" source="ehlFxMS1mAo0d8vLHFDj-50" target="ehlFxMS1mAo0d8vLHFDj-533" edge="1">
          <mxGeometry relative="1" as="geometry" />
        </mxCell>
        <mxCell id="ehlFxMS1mAo0d8vLHFDj-553" style="edgeStyle=none;rounded=1;jumpSize=20;orthogonalLoop=1;jettySize=auto;html=1;entryX=0;entryY=0.5;entryDx=0;entryDy=0;strokeWidth=1;" parent="1" source="ehlFxMS1mAo0d8vLHFDj-50" target="ehlFxMS1mAo0d8vLHFDj-537" edge="1">
          <mxGeometry relative="1" as="geometry" />
        </mxCell>
        <mxCell id="ehlFxMS1mAo0d8vLHFDj-50" value="" style="ellipse;whiteSpace=wrap;html=1;aspect=fixed;" parent="1" vertex="1">
          <mxGeometry x="2305" y="369" width="30" height="30" as="geometry" />
        </mxCell>
        <mxCell id="ehlFxMS1mAo0d8vLHFDj-552" style="edgeStyle=none;rounded=1;jumpSize=20;orthogonalLoop=1;jettySize=auto;html=1;entryX=0;entryY=0.5;entryDx=0;entryDy=0;strokeWidth=1;" parent="1" source="ehlFxMS1mAo0d8vLHFDj-51" target="ehlFxMS1mAo0d8vLHFDj-535" edge="1">
          <mxGeometry relative="1" as="geometry" />
        </mxCell>
        <mxCell id="ehlFxMS1mAo0d8vLHFDj-51" value="" style="ellipse;whiteSpace=wrap;html=1;aspect=fixed;" parent="1" vertex="1">
          <mxGeometry x="2305" y="409" width="30" height="30" as="geometry" />
        </mxCell>
        <mxCell id="ehlFxMS1mAo0d8vLHFDj-62" value="Dense layer + Dropout" style="text;html=1;strokeColor=none;fillColor=none;align=center;verticalAlign=middle;whiteSpace=wrap;rounded=0;" parent="1" vertex="1">
          <mxGeometry x="2275" y="454" width="250" height="20" as="geometry" />
        </mxCell>
        <mxCell id="ehlFxMS1mAo0d8vLHFDj-274" value="" style="rounded=0;whiteSpace=wrap;html=1;fillColor=#dae8fc;strokeColor=#6c8ebf;" parent="1" vertex="1">
          <mxGeometry x="1090" y="194" width="40" height="40" as="geometry" />
        </mxCell>
        <mxCell id="ehlFxMS1mAo0d8vLHFDj-275" value="" style="rounded=0;whiteSpace=wrap;html=1;fillColor=#dae8fc;strokeColor=#6c8ebf;" parent="1" vertex="1">
          <mxGeometry x="1130" y="194" width="40" height="40" as="geometry" />
        </mxCell>
        <mxCell id="ehlFxMS1mAo0d8vLHFDj-276" value="" style="rounded=0;whiteSpace=wrap;html=1;fillColor=#dae8fc;strokeColor=#6c8ebf;" parent="1" vertex="1">
          <mxGeometry x="1170" y="194" width="40" height="40" as="geometry" />
        </mxCell>
        <mxCell id="ehlFxMS1mAo0d8vLHFDj-277" value="" style="rounded=0;whiteSpace=wrap;html=1;fillColor=#dae8fc;strokeColor=#6c8ebf;" parent="1" vertex="1">
          <mxGeometry x="1210" y="194" width="40" height="40" as="geometry" />
        </mxCell>
        <mxCell id="ehlFxMS1mAo0d8vLHFDj-278" value="" style="rounded=0;whiteSpace=wrap;html=1;fillColor=#dae8fc;strokeColor=#6c8ebf;" parent="1" vertex="1">
          <mxGeometry x="1090" y="234" width="40" height="40" as="geometry" />
        </mxCell>
        <mxCell id="ehlFxMS1mAo0d8vLHFDj-279" value="" style="rounded=0;whiteSpace=wrap;html=1;fillColor=#dae8fc;strokeColor=#6c8ebf;" parent="1" vertex="1">
          <mxGeometry x="1130" y="234" width="40" height="40" as="geometry" />
        </mxCell>
        <mxCell id="ehlFxMS1mAo0d8vLHFDj-280" value="" style="rounded=0;whiteSpace=wrap;html=1;fillColor=#dae8fc;strokeColor=#6c8ebf;" parent="1" vertex="1">
          <mxGeometry x="1170" y="234" width="40" height="40" as="geometry" />
        </mxCell>
        <mxCell id="ehlFxMS1mAo0d8vLHFDj-281" value="" style="rounded=0;whiteSpace=wrap;html=1;fillColor=#dae8fc;strokeColor=#6c8ebf;" parent="1" vertex="1">
          <mxGeometry x="1210" y="234" width="40" height="40" as="geometry" />
        </mxCell>
        <mxCell id="ehlFxMS1mAo0d8vLHFDj-282" value="" style="rounded=0;whiteSpace=wrap;html=1;fillColor=#dae8fc;strokeColor=#6c8ebf;" parent="1" vertex="1">
          <mxGeometry x="1250" y="234" width="40" height="40" as="geometry" />
        </mxCell>
        <mxCell id="ehlFxMS1mAo0d8vLHFDj-283" value="" style="rounded=0;whiteSpace=wrap;html=1;fillColor=#dae8fc;strokeColor=#6c8ebf;" parent="1" vertex="1">
          <mxGeometry x="1090" y="274" width="40" height="40" as="geometry" />
        </mxCell>
        <mxCell id="ehlFxMS1mAo0d8vLHFDj-284" value="" style="rounded=0;whiteSpace=wrap;html=1;fillColor=#dae8fc;strokeColor=#6c8ebf;" parent="1" vertex="1">
          <mxGeometry x="1130" y="274" width="40" height="40" as="geometry" />
        </mxCell>
        <mxCell id="ehlFxMS1mAo0d8vLHFDj-285" value="" style="rounded=0;whiteSpace=wrap;html=1;fillColor=#dae8fc;strokeColor=#6c8ebf;" parent="1" vertex="1">
          <mxGeometry x="1170" y="274" width="40" height="40" as="geometry" />
        </mxCell>
        <mxCell id="ehlFxMS1mAo0d8vLHFDj-286" value="" style="rounded=0;whiteSpace=wrap;html=1;fillColor=#dae8fc;strokeColor=#6c8ebf;" parent="1" vertex="1">
          <mxGeometry x="1210" y="274" width="40" height="40" as="geometry" />
        </mxCell>
        <mxCell id="ehlFxMS1mAo0d8vLHFDj-287" value="" style="rounded=0;whiteSpace=wrap;html=1;fillColor=#dae8fc;strokeColor=#6c8ebf;" parent="1" vertex="1">
          <mxGeometry x="1250" y="274" width="40" height="40" as="geometry" />
        </mxCell>
        <mxCell id="ehlFxMS1mAo0d8vLHFDj-288" value="" style="rounded=0;whiteSpace=wrap;html=1;fillColor=#dae8fc;strokeColor=#6c8ebf;" parent="1" vertex="1">
          <mxGeometry x="1090" y="314" width="40" height="40" as="geometry" />
        </mxCell>
        <mxCell id="ehlFxMS1mAo0d8vLHFDj-289" value="" style="rounded=0;whiteSpace=wrap;html=1;fillColor=#dae8fc;strokeColor=#6c8ebf;" parent="1" vertex="1">
          <mxGeometry x="1130" y="314" width="40" height="40" as="geometry" />
        </mxCell>
        <mxCell id="ehlFxMS1mAo0d8vLHFDj-290" value="" style="rounded=0;whiteSpace=wrap;html=1;fillColor=#dae8fc;strokeColor=#6c8ebf;" parent="1" vertex="1">
          <mxGeometry x="1170" y="314" width="40" height="40" as="geometry" />
        </mxCell>
        <mxCell id="ehlFxMS1mAo0d8vLHFDj-291" value="" style="rounded=0;whiteSpace=wrap;html=1;fillColor=#dae8fc;strokeColor=#6c8ebf;" parent="1" vertex="1">
          <mxGeometry x="1210" y="314" width="40" height="40" as="geometry" />
        </mxCell>
        <mxCell id="ehlFxMS1mAo0d8vLHFDj-292" value="" style="rounded=0;whiteSpace=wrap;html=1;fillColor=#dae8fc;strokeColor=#6c8ebf;" parent="1" vertex="1">
          <mxGeometry x="1250" y="314" width="40" height="40" as="geometry" />
        </mxCell>
        <mxCell id="ehlFxMS1mAo0d8vLHFDj-293" value="" style="rounded=0;whiteSpace=wrap;html=1;fillColor=#d5e8d4;strokeColor=#82b366;" parent="1" vertex="1">
          <mxGeometry x="1100" y="204" width="40" height="40" as="geometry" />
        </mxCell>
        <mxCell id="ehlFxMS1mAo0d8vLHFDj-294" value="" style="rounded=0;whiteSpace=wrap;html=1;fillColor=#d5e8d4;strokeColor=#82b366;" parent="1" vertex="1">
          <mxGeometry x="1140" y="204" width="40" height="40" as="geometry" />
        </mxCell>
        <mxCell id="ehlFxMS1mAo0d8vLHFDj-295" value="" style="rounded=0;whiteSpace=wrap;html=1;fillColor=#d5e8d4;strokeColor=#82b366;" parent="1" vertex="1">
          <mxGeometry x="1180" y="204" width="40" height="40" as="geometry" />
        </mxCell>
        <mxCell id="ehlFxMS1mAo0d8vLHFDj-296" value="" style="rounded=0;whiteSpace=wrap;html=1;fillColor=#d5e8d4;strokeColor=#82b366;" parent="1" vertex="1">
          <mxGeometry x="1220" y="204" width="40" height="40" as="geometry" />
        </mxCell>
        <mxCell id="ehlFxMS1mAo0d8vLHFDj-297" value="" style="rounded=0;whiteSpace=wrap;html=1;fillColor=#d5e8d4;strokeColor=#82b366;" parent="1" vertex="1">
          <mxGeometry x="1100" y="244" width="40" height="40" as="geometry" />
        </mxCell>
        <mxCell id="ehlFxMS1mAo0d8vLHFDj-298" value="" style="rounded=0;whiteSpace=wrap;html=1;fillColor=#d5e8d4;strokeColor=#82b366;" parent="1" vertex="1">
          <mxGeometry x="1140" y="244" width="40" height="40" as="geometry" />
        </mxCell>
        <mxCell id="ehlFxMS1mAo0d8vLHFDj-299" value="" style="rounded=0;whiteSpace=wrap;html=1;fillColor=#d5e8d4;strokeColor=#82b366;" parent="1" vertex="1">
          <mxGeometry x="1180" y="244" width="40" height="40" as="geometry" />
        </mxCell>
        <mxCell id="ehlFxMS1mAo0d8vLHFDj-300" value="" style="rounded=0;whiteSpace=wrap;html=1;fillColor=#d5e8d4;strokeColor=#82b366;" parent="1" vertex="1">
          <mxGeometry x="1220" y="244" width="40" height="40" as="geometry" />
        </mxCell>
        <mxCell id="ehlFxMS1mAo0d8vLHFDj-301" value="" style="rounded=0;whiteSpace=wrap;html=1;fillColor=#d5e8d4;strokeColor=#82b366;" parent="1" vertex="1">
          <mxGeometry x="1260" y="244" width="40" height="40" as="geometry" />
        </mxCell>
        <mxCell id="ehlFxMS1mAo0d8vLHFDj-302" value="" style="rounded=0;whiteSpace=wrap;html=1;fillColor=#d5e8d4;strokeColor=#82b366;" parent="1" vertex="1">
          <mxGeometry x="1100" y="284" width="40" height="40" as="geometry" />
        </mxCell>
        <mxCell id="ehlFxMS1mAo0d8vLHFDj-303" value="" style="rounded=0;whiteSpace=wrap;html=1;fillColor=#d5e8d4;strokeColor=#82b366;" parent="1" vertex="1">
          <mxGeometry x="1140" y="284" width="40" height="40" as="geometry" />
        </mxCell>
        <mxCell id="ehlFxMS1mAo0d8vLHFDj-304" value="" style="rounded=0;whiteSpace=wrap;html=1;fillColor=#d5e8d4;strokeColor=#82b366;" parent="1" vertex="1">
          <mxGeometry x="1180" y="284" width="40" height="40" as="geometry" />
        </mxCell>
        <mxCell id="ehlFxMS1mAo0d8vLHFDj-305" value="" style="rounded=0;whiteSpace=wrap;html=1;fillColor=#d5e8d4;strokeColor=#82b366;" parent="1" vertex="1">
          <mxGeometry x="1220" y="284" width="40" height="40" as="geometry" />
        </mxCell>
        <mxCell id="ehlFxMS1mAo0d8vLHFDj-306" value="" style="rounded=0;whiteSpace=wrap;html=1;fillColor=#d5e8d4;strokeColor=#82b366;" parent="1" vertex="1">
          <mxGeometry x="1260" y="284" width="40" height="40" as="geometry" />
        </mxCell>
        <mxCell id="ehlFxMS1mAo0d8vLHFDj-307" value="" style="rounded=0;whiteSpace=wrap;html=1;fillColor=#d5e8d4;strokeColor=#82b366;" parent="1" vertex="1">
          <mxGeometry x="1100" y="324" width="40" height="40" as="geometry" />
        </mxCell>
        <mxCell id="ehlFxMS1mAo0d8vLHFDj-308" value="" style="rounded=0;whiteSpace=wrap;html=1;fillColor=#d5e8d4;strokeColor=#82b366;" parent="1" vertex="1">
          <mxGeometry x="1140" y="324" width="40" height="40" as="geometry" />
        </mxCell>
        <mxCell id="ehlFxMS1mAo0d8vLHFDj-309" value="" style="rounded=0;whiteSpace=wrap;html=1;fillColor=#d5e8d4;strokeColor=#82b366;" parent="1" vertex="1">
          <mxGeometry x="1180" y="324" width="40" height="40" as="geometry" />
        </mxCell>
        <mxCell id="ehlFxMS1mAo0d8vLHFDj-310" value="" style="rounded=0;whiteSpace=wrap;html=1;fillColor=#d5e8d4;strokeColor=#82b366;" parent="1" vertex="1">
          <mxGeometry x="1220" y="324" width="40" height="40" as="geometry" />
        </mxCell>
        <mxCell id="ehlFxMS1mAo0d8vLHFDj-311" value="" style="rounded=0;whiteSpace=wrap;html=1;fillColor=#d5e8d4;strokeColor=#82b366;" parent="1" vertex="1">
          <mxGeometry x="1260" y="324" width="40" height="40" as="geometry" />
        </mxCell>
        <mxCell id="ehlFxMS1mAo0d8vLHFDj-312" value="" style="rounded=0;whiteSpace=wrap;html=1;fillColor=#ffe6cc;strokeColor=#d79b00;" parent="1" vertex="1">
          <mxGeometry x="1110" y="214" width="40" height="40" as="geometry" />
        </mxCell>
        <mxCell id="ehlFxMS1mAo0d8vLHFDj-313" value="" style="rounded=0;whiteSpace=wrap;html=1;fillColor=#ffe6cc;strokeColor=#d79b00;" parent="1" vertex="1">
          <mxGeometry x="1150" y="214" width="40" height="40" as="geometry" />
        </mxCell>
        <mxCell id="ehlFxMS1mAo0d8vLHFDj-314" value="" style="rounded=0;whiteSpace=wrap;html=1;fillColor=#ffe6cc;strokeColor=#d79b00;" parent="1" vertex="1">
          <mxGeometry x="1190" y="214" width="40" height="40" as="geometry" />
        </mxCell>
        <mxCell id="ehlFxMS1mAo0d8vLHFDj-315" value="" style="rounded=0;whiteSpace=wrap;html=1;fillColor=#ffe6cc;strokeColor=#d79b00;" parent="1" vertex="1">
          <mxGeometry x="1230" y="214" width="40" height="40" as="geometry" />
        </mxCell>
        <mxCell id="ehlFxMS1mAo0d8vLHFDj-316" value="" style="rounded=0;whiteSpace=wrap;html=1;fillColor=#ffe6cc;strokeColor=#d79b00;" parent="1" vertex="1">
          <mxGeometry x="1110" y="254" width="40" height="40" as="geometry" />
        </mxCell>
        <mxCell id="ehlFxMS1mAo0d8vLHFDj-317" value="" style="rounded=0;whiteSpace=wrap;html=1;fillColor=#ffe6cc;strokeColor=#d79b00;" parent="1" vertex="1">
          <mxGeometry x="1150" y="254" width="40" height="40" as="geometry" />
        </mxCell>
        <mxCell id="ehlFxMS1mAo0d8vLHFDj-318" value="" style="rounded=0;whiteSpace=wrap;html=1;fillColor=#ffe6cc;strokeColor=#d79b00;" parent="1" vertex="1">
          <mxGeometry x="1190" y="254" width="40" height="40" as="geometry" />
        </mxCell>
        <mxCell id="ehlFxMS1mAo0d8vLHFDj-319" value="" style="rounded=0;whiteSpace=wrap;html=1;fillColor=#ffe6cc;strokeColor=#d79b00;" parent="1" vertex="1">
          <mxGeometry x="1230" y="254" width="40" height="40" as="geometry" />
        </mxCell>
        <mxCell id="ehlFxMS1mAo0d8vLHFDj-320" value="" style="rounded=0;whiteSpace=wrap;html=1;fillColor=#ffe6cc;strokeColor=#d79b00;" parent="1" vertex="1">
          <mxGeometry x="1110" y="294" width="40" height="40" as="geometry" />
        </mxCell>
        <mxCell id="ehlFxMS1mAo0d8vLHFDj-321" value="" style="rounded=0;whiteSpace=wrap;html=1;fillColor=#ffe6cc;strokeColor=#d79b00;" parent="1" vertex="1">
          <mxGeometry x="1150" y="294" width="40" height="40" as="geometry" />
        </mxCell>
        <mxCell id="ehlFxMS1mAo0d8vLHFDj-322" value="" style="rounded=0;whiteSpace=wrap;html=1;fillColor=#ffe6cc;strokeColor=#d79b00;" parent="1" vertex="1">
          <mxGeometry x="1190" y="294" width="40" height="40" as="geometry" />
        </mxCell>
        <mxCell id="ehlFxMS1mAo0d8vLHFDj-323" value="" style="rounded=0;whiteSpace=wrap;html=1;fillColor=#ffe6cc;strokeColor=#d79b00;" parent="1" vertex="1">
          <mxGeometry x="1230" y="294" width="40" height="40" as="geometry" />
        </mxCell>
        <mxCell id="ehlFxMS1mAo0d8vLHFDj-324" value="" style="rounded=0;whiteSpace=wrap;html=1;fillColor=#ffe6cc;strokeColor=#d79b00;" parent="1" vertex="1">
          <mxGeometry x="1110" y="334" width="40" height="40" as="geometry" />
        </mxCell>
        <mxCell id="ehlFxMS1mAo0d8vLHFDj-325" value="" style="rounded=0;whiteSpace=wrap;html=1;fillColor=#ffe6cc;strokeColor=#d79b00;" parent="1" vertex="1">
          <mxGeometry x="1150" y="334" width="40" height="40" as="geometry" />
        </mxCell>
        <mxCell id="ehlFxMS1mAo0d8vLHFDj-326" value="" style="rounded=0;whiteSpace=wrap;html=1;fillColor=#ffe6cc;strokeColor=#d79b00;" parent="1" vertex="1">
          <mxGeometry x="1190" y="334" width="40" height="40" as="geometry" />
        </mxCell>
        <mxCell id="ehlFxMS1mAo0d8vLHFDj-327" value="" style="rounded=0;whiteSpace=wrap;html=1;fillColor=#ffe6cc;strokeColor=#d79b00;" parent="1" vertex="1">
          <mxGeometry x="1230" y="334" width="40" height="40" as="geometry" />
        </mxCell>
        <mxCell id="ehlFxMS1mAo0d8vLHFDj-328" value="" style="rounded=0;whiteSpace=wrap;html=1;fillColor=#fff2cc;strokeColor=#d6b656;" parent="1" vertex="1">
          <mxGeometry x="1120" y="224" width="40" height="40" as="geometry" />
        </mxCell>
        <mxCell id="ehlFxMS1mAo0d8vLHFDj-329" value="" style="rounded=0;whiteSpace=wrap;html=1;fillColor=#fff2cc;strokeColor=#d6b656;" parent="1" vertex="1">
          <mxGeometry x="1160" y="224" width="40" height="40" as="geometry" />
        </mxCell>
        <mxCell id="ehlFxMS1mAo0d8vLHFDj-330" value="" style="rounded=0;whiteSpace=wrap;html=1;fillColor=#fff2cc;strokeColor=#d6b656;" parent="1" vertex="1">
          <mxGeometry x="1200" y="224" width="40" height="40" as="geometry" />
        </mxCell>
        <mxCell id="ehlFxMS1mAo0d8vLHFDj-331" value="" style="rounded=0;whiteSpace=wrap;html=1;fillColor=#fff2cc;strokeColor=#d6b656;" parent="1" vertex="1">
          <mxGeometry x="1240" y="224" width="40" height="40" as="geometry" />
        </mxCell>
        <mxCell id="ehlFxMS1mAo0d8vLHFDj-332" value="" style="rounded=0;whiteSpace=wrap;html=1;fillColor=#fff2cc;strokeColor=#d6b656;" parent="1" vertex="1">
          <mxGeometry x="1120" y="264" width="40" height="40" as="geometry" />
        </mxCell>
        <mxCell id="ehlFxMS1mAo0d8vLHFDj-333" value="" style="rounded=0;whiteSpace=wrap;html=1;fillColor=#fff2cc;strokeColor=#d6b656;" parent="1" vertex="1">
          <mxGeometry x="1160" y="264" width="40" height="40" as="geometry" />
        </mxCell>
        <mxCell id="ehlFxMS1mAo0d8vLHFDj-334" value="" style="rounded=0;whiteSpace=wrap;html=1;fillColor=#fff2cc;strokeColor=#d6b656;" parent="1" vertex="1">
          <mxGeometry x="1200" y="264" width="40" height="40" as="geometry" />
        </mxCell>
        <mxCell id="ehlFxMS1mAo0d8vLHFDj-335" value="" style="rounded=0;whiteSpace=wrap;html=1;fillColor=#fff2cc;strokeColor=#d6b656;" parent="1" vertex="1">
          <mxGeometry x="1240" y="264" width="40" height="40" as="geometry" />
        </mxCell>
        <mxCell id="ehlFxMS1mAo0d8vLHFDj-336" value="" style="rounded=0;whiteSpace=wrap;html=1;fillColor=#fff2cc;strokeColor=#d6b656;" parent="1" vertex="1">
          <mxGeometry x="1120" y="304" width="40" height="40" as="geometry" />
        </mxCell>
        <mxCell id="ehlFxMS1mAo0d8vLHFDj-337" value="" style="rounded=0;whiteSpace=wrap;html=1;fillColor=#fff2cc;strokeColor=#d6b656;" parent="1" vertex="1">
          <mxGeometry x="1160" y="304" width="40" height="40" as="geometry" />
        </mxCell>
        <mxCell id="ehlFxMS1mAo0d8vLHFDj-338" value="" style="rounded=0;whiteSpace=wrap;html=1;fillColor=#fff2cc;strokeColor=#d6b656;" parent="1" vertex="1">
          <mxGeometry x="1200" y="304" width="40" height="40" as="geometry" />
        </mxCell>
        <mxCell id="ehlFxMS1mAo0d8vLHFDj-339" value="" style="rounded=0;whiteSpace=wrap;html=1;fillColor=#fff2cc;strokeColor=#d6b656;" parent="1" vertex="1">
          <mxGeometry x="1240" y="304" width="40" height="40" as="geometry" />
        </mxCell>
        <mxCell id="ehlFxMS1mAo0d8vLHFDj-340" value="" style="rounded=0;whiteSpace=wrap;html=1;fillColor=#fff2cc;strokeColor=#d6b656;" parent="1" vertex="1">
          <mxGeometry x="1120" y="344" width="40" height="40" as="geometry" />
        </mxCell>
        <mxCell id="ehlFxMS1mAo0d8vLHFDj-341" value="" style="rounded=0;whiteSpace=wrap;html=1;fillColor=#fff2cc;strokeColor=#d6b656;" parent="1" vertex="1">
          <mxGeometry x="1160" y="344" width="40" height="40" as="geometry" />
        </mxCell>
        <mxCell id="ehlFxMS1mAo0d8vLHFDj-342" value="" style="rounded=0;whiteSpace=wrap;html=1;fillColor=#fff2cc;strokeColor=#d6b656;" parent="1" vertex="1">
          <mxGeometry x="1200" y="344" width="40" height="40" as="geometry" />
        </mxCell>
        <mxCell id="ehlFxMS1mAo0d8vLHFDj-343" value="" style="rounded=0;whiteSpace=wrap;html=1;fillColor=#fff2cc;strokeColor=#d6b656;" parent="1" vertex="1">
          <mxGeometry x="1240" y="344" width="40" height="40" as="geometry" />
        </mxCell>
        <mxCell id="ehlFxMS1mAo0d8vLHFDj-344" value="" style="rounded=0;whiteSpace=wrap;html=1;fillColor=#f8cecc;strokeColor=#b85450;" parent="1" vertex="1">
          <mxGeometry x="1130" y="234" width="40" height="40" as="geometry" />
        </mxCell>
        <mxCell id="ehlFxMS1mAo0d8vLHFDj-345" value="" style="rounded=0;whiteSpace=wrap;html=1;fillColor=#f8cecc;strokeColor=#b85450;" parent="1" vertex="1">
          <mxGeometry x="1170" y="234" width="40" height="40" as="geometry" />
        </mxCell>
        <mxCell id="ehlFxMS1mAo0d8vLHFDj-346" value="" style="rounded=0;whiteSpace=wrap;html=1;fillColor=#f8cecc;strokeColor=#b85450;" parent="1" vertex="1">
          <mxGeometry x="1210" y="234" width="40" height="40" as="geometry" />
        </mxCell>
        <mxCell id="ehlFxMS1mAo0d8vLHFDj-347" value="" style="rounded=0;whiteSpace=wrap;html=1;fillColor=#f8cecc;strokeColor=#b85450;" parent="1" vertex="1">
          <mxGeometry x="1250" y="234" width="40" height="40" as="geometry" />
        </mxCell>
        <mxCell id="ehlFxMS1mAo0d8vLHFDj-348" value="" style="rounded=0;whiteSpace=wrap;html=1;fillColor=#f8cecc;strokeColor=#b85450;" parent="1" vertex="1">
          <mxGeometry x="1130" y="274" width="40" height="40" as="geometry" />
        </mxCell>
        <mxCell id="ehlFxMS1mAo0d8vLHFDj-349" value="" style="rounded=0;whiteSpace=wrap;html=1;fillColor=#f8cecc;strokeColor=#b85450;" parent="1" vertex="1">
          <mxGeometry x="1170" y="274" width="40" height="40" as="geometry" />
        </mxCell>
        <mxCell id="ehlFxMS1mAo0d8vLHFDj-350" value="" style="rounded=0;whiteSpace=wrap;html=1;fillColor=#f8cecc;strokeColor=#b85450;" parent="1" vertex="1">
          <mxGeometry x="1210" y="274" width="40" height="40" as="geometry" />
        </mxCell>
        <mxCell id="ehlFxMS1mAo0d8vLHFDj-351" value="" style="rounded=0;whiteSpace=wrap;html=1;fillColor=#f8cecc;strokeColor=#b85450;" parent="1" vertex="1">
          <mxGeometry x="1250" y="274" width="40" height="40" as="geometry" />
        </mxCell>
        <mxCell id="ehlFxMS1mAo0d8vLHFDj-352" value="" style="rounded=0;whiteSpace=wrap;html=1;fillColor=#f8cecc;strokeColor=#b85450;" parent="1" vertex="1">
          <mxGeometry x="1130" y="314" width="40" height="40" as="geometry" />
        </mxCell>
        <mxCell id="ehlFxMS1mAo0d8vLHFDj-353" value="" style="rounded=0;whiteSpace=wrap;html=1;fillColor=#f8cecc;strokeColor=#b85450;" parent="1" vertex="1">
          <mxGeometry x="1170" y="314" width="40" height="40" as="geometry" />
        </mxCell>
        <mxCell id="ehlFxMS1mAo0d8vLHFDj-354" value="" style="rounded=0;whiteSpace=wrap;html=1;fillColor=#f8cecc;strokeColor=#b85450;" parent="1" vertex="1">
          <mxGeometry x="1210" y="314" width="40" height="40" as="geometry" />
        </mxCell>
        <mxCell id="ehlFxMS1mAo0d8vLHFDj-355" value="" style="rounded=0;whiteSpace=wrap;html=1;fillColor=#f8cecc;strokeColor=#b85450;" parent="1" vertex="1">
          <mxGeometry x="1250" y="314" width="40" height="40" as="geometry" />
        </mxCell>
        <mxCell id="ehlFxMS1mAo0d8vLHFDj-356" value="" style="rounded=0;whiteSpace=wrap;html=1;fillColor=#f8cecc;strokeColor=#b85450;" parent="1" vertex="1">
          <mxGeometry x="1130" y="354" width="40" height="40" as="geometry" />
        </mxCell>
        <mxCell id="ehlFxMS1mAo0d8vLHFDj-357" value="" style="rounded=0;whiteSpace=wrap;html=1;fillColor=#f8cecc;strokeColor=#b85450;" parent="1" vertex="1">
          <mxGeometry x="1170" y="354" width="40" height="40" as="geometry" />
        </mxCell>
        <mxCell id="ehlFxMS1mAo0d8vLHFDj-358" value="" style="rounded=0;whiteSpace=wrap;html=1;fillColor=#f8cecc;strokeColor=#b85450;" parent="1" vertex="1">
          <mxGeometry x="1210" y="354" width="40" height="40" as="geometry" />
        </mxCell>
        <mxCell id="ehlFxMS1mAo0d8vLHFDj-359" value="" style="rounded=0;whiteSpace=wrap;html=1;fillColor=#f8cecc;strokeColor=#b85450;" parent="1" vertex="1">
          <mxGeometry x="1250" y="354" width="40" height="40" as="geometry" />
        </mxCell>
        <mxCell id="ehlFxMS1mAo0d8vLHFDj-360" value="" style="rounded=0;whiteSpace=wrap;html=1;fillColor=#e1d5e7;strokeColor=#9673a6;" parent="1" vertex="1">
          <mxGeometry x="1140" y="244" width="40" height="40" as="geometry" />
        </mxCell>
        <mxCell id="ehlFxMS1mAo0d8vLHFDj-361" value="" style="rounded=0;whiteSpace=wrap;html=1;fillColor=#e1d5e7;strokeColor=#9673a6;" parent="1" vertex="1">
          <mxGeometry x="1180" y="244" width="40" height="40" as="geometry" />
        </mxCell>
        <mxCell id="ehlFxMS1mAo0d8vLHFDj-362" value="" style="rounded=0;whiteSpace=wrap;html=1;fillColor=#e1d5e7;strokeColor=#9673a6;" parent="1" vertex="1">
          <mxGeometry x="1220" y="244" width="40" height="40" as="geometry" />
        </mxCell>
        <mxCell id="ehlFxMS1mAo0d8vLHFDj-363" value="" style="rounded=0;whiteSpace=wrap;html=1;fillColor=#e1d5e7;strokeColor=#9673a6;" parent="1" vertex="1">
          <mxGeometry x="1260" y="244" width="40" height="40" as="geometry" />
        </mxCell>
        <mxCell id="ehlFxMS1mAo0d8vLHFDj-364" value="" style="rounded=0;whiteSpace=wrap;html=1;fillColor=#e1d5e7;strokeColor=#9673a6;" parent="1" vertex="1">
          <mxGeometry x="1140" y="284" width="40" height="40" as="geometry" />
        </mxCell>
        <mxCell id="ehlFxMS1mAo0d8vLHFDj-365" value="" style="rounded=0;whiteSpace=wrap;html=1;fillColor=#e1d5e7;strokeColor=#9673a6;" parent="1" vertex="1">
          <mxGeometry x="1180" y="284" width="40" height="40" as="geometry" />
        </mxCell>
        <mxCell id="ehlFxMS1mAo0d8vLHFDj-366" value="" style="rounded=0;whiteSpace=wrap;html=1;fillColor=#e1d5e7;strokeColor=#9673a6;" parent="1" vertex="1">
          <mxGeometry x="1220" y="284" width="40" height="40" as="geometry" />
        </mxCell>
        <mxCell id="ehlFxMS1mAo0d8vLHFDj-367" style="edgeStyle=none;rounded=1;jumpSize=20;orthogonalLoop=1;jettySize=auto;html=1;entryX=0;entryY=0;entryDx=0;entryDy=0;strokeWidth=1;" parent="1" source="ehlFxMS1mAo0d8vLHFDj-368" target="ehlFxMS1mAo0d8vLHFDj-381" edge="1">
          <mxGeometry relative="1" as="geometry" />
        </mxCell>
        <mxCell id="ehlFxMS1mAo0d8vLHFDj-368" value="" style="rounded=0;whiteSpace=wrap;html=1;fillColor=#e1d5e7;strokeColor=#9673a6;" parent="1" vertex="1">
          <mxGeometry x="1260" y="284" width="40" height="40" as="geometry" />
        </mxCell>
        <mxCell id="ehlFxMS1mAo0d8vLHFDj-369" value="" style="rounded=0;whiteSpace=wrap;html=1;fillColor=#e1d5e7;strokeColor=#9673a6;" parent="1" vertex="1">
          <mxGeometry x="1140" y="324" width="40" height="40" as="geometry" />
        </mxCell>
        <mxCell id="ehlFxMS1mAo0d8vLHFDj-370" value="" style="rounded=0;whiteSpace=wrap;html=1;fillColor=#e1d5e7;strokeColor=#9673a6;" parent="1" vertex="1">
          <mxGeometry x="1180" y="324" width="40" height="40" as="geometry" />
        </mxCell>
        <mxCell id="ehlFxMS1mAo0d8vLHFDj-371" value="" style="rounded=0;whiteSpace=wrap;html=1;fillColor=#e1d5e7;strokeColor=#9673a6;" parent="1" vertex="1">
          <mxGeometry x="1220" y="324" width="40" height="40" as="geometry" />
        </mxCell>
        <mxCell id="ehlFxMS1mAo0d8vLHFDj-372" value="" style="rounded=0;whiteSpace=wrap;html=1;fillColor=#e1d5e7;strokeColor=#9673a6;" parent="1" vertex="1">
          <mxGeometry x="1260" y="324" width="40" height="40" as="geometry" />
        </mxCell>
        <mxCell id="ehlFxMS1mAo0d8vLHFDj-373" value="" style="rounded=0;whiteSpace=wrap;html=1;fillColor=#e1d5e7;strokeColor=#9673a6;" parent="1" vertex="1">
          <mxGeometry x="1140" y="364" width="40" height="40" as="geometry" />
        </mxCell>
        <mxCell id="ehlFxMS1mAo0d8vLHFDj-374" value="" style="rounded=0;whiteSpace=wrap;html=1;fillColor=#e1d5e7;strokeColor=#9673a6;" parent="1" vertex="1">
          <mxGeometry x="1180" y="364" width="40" height="40" as="geometry" />
        </mxCell>
        <mxCell id="ehlFxMS1mAo0d8vLHFDj-375" value="" style="rounded=0;whiteSpace=wrap;html=1;fillColor=#e1d5e7;strokeColor=#9673a6;" parent="1" vertex="1">
          <mxGeometry x="1220" y="364" width="40" height="40" as="geometry" />
        </mxCell>
        <mxCell id="ehlFxMS1mAo0d8vLHFDj-376" value="" style="rounded=0;whiteSpace=wrap;html=1;fillColor=#e1d5e7;strokeColor=#9673a6;" parent="1" vertex="1">
          <mxGeometry x="1260" y="364" width="40" height="40" as="geometry" />
        </mxCell>
        <mxCell id="ehlFxMS1mAo0d8vLHFDj-377" value="Two-dimensional convolution" style="text;html=1;strokeColor=none;fillColor=none;align=center;verticalAlign=middle;whiteSpace=wrap;rounded=0;" parent="1" vertex="1">
          <mxGeometry x="1075" y="434" width="250" height="20" as="geometry" />
        </mxCell>
        <mxCell id="ehlFxMS1mAo0d8vLHFDj-378" value="" style="rounded=0;whiteSpace=wrap;html=1;fillColor=#f5f5f5;strokeColor=#666666;fontColor=#333333;shadow=1;sketch=1;" parent="1" vertex="1">
          <mxGeometry x="1340" y="224" width="40" height="40" as="geometry" />
        </mxCell>
        <mxCell id="ehlFxMS1mAo0d8vLHFDj-379" style="edgeStyle=none;rounded=1;jumpSize=20;orthogonalLoop=1;jettySize=auto;html=1;entryX=0;entryY=0.5;entryDx=0;entryDy=0;strokeWidth=1;exitX=1;exitY=1;exitDx=0;exitDy=0;" parent="1" source="ehlFxMS1mAo0d8vLHFDj-380" target="ehlFxMS1mAo0d8vLHFDj-384" edge="1">
          <mxGeometry relative="1" as="geometry" />
        </mxCell>
        <mxCell id="ehlFxMS1mAo0d8vLHFDj-380" value="" style="rounded=0;whiteSpace=wrap;html=1;fillColor=#f5f5f5;strokeColor=#666666;fontColor=#333333;shadow=1;sketch=1;" parent="1" vertex="1">
          <mxGeometry x="1340" y="264" width="40" height="40" as="geometry" />
        </mxCell>
        <mxCell id="ehlFxMS1mAo0d8vLHFDj-381" value="" style="rounded=0;whiteSpace=wrap;html=1;fillColor=#f5f5f5;strokeColor=#666666;fontColor=#333333;shadow=1;sketch=1;" parent="1" vertex="1">
          <mxGeometry x="1340" y="304" width="40" height="40" as="geometry" />
        </mxCell>
        <mxCell id="ehlFxMS1mAo0d8vLHFDj-382" value="" style="rounded=0;whiteSpace=wrap;html=1;fillColor=#f5f5f5;strokeColor=#666666;fontColor=#333333;shadow=1;sketch=1;" parent="1" vertex="1">
          <mxGeometry x="1340" y="344" width="40" height="40" as="geometry" />
        </mxCell>
        <mxCell id="ehlFxMS1mAo0d8vLHFDj-383" value="Activation" style="text;html=1;strokeColor=none;fillColor=none;align=center;verticalAlign=middle;whiteSpace=wrap;rounded=0;" parent="1" vertex="1">
          <mxGeometry x="1325" y="354" width="250" height="20" as="geometry" />
        </mxCell>
        <mxCell id="ehlFxMS1mAo0d8vLHFDj-504" style="edgeStyle=none;rounded=1;jumpSize=20;orthogonalLoop=1;jettySize=auto;html=1;entryX=0;entryY=0.75;entryDx=0;entryDy=0;strokeWidth=1;" parent="1" source="ehlFxMS1mAo0d8vLHFDj-384" target="ehlFxMS1mAo0d8vLHFDj-398" edge="1">
          <mxGeometry relative="1" as="geometry" />
        </mxCell>
        <mxCell id="ehlFxMS1mAo0d8vLHFDj-384" value="" style="rounded=0;whiteSpace=wrap;html=1;" parent="1" vertex="1">
          <mxGeometry x="1410" y="264" width="80" height="80" as="geometry" />
        </mxCell>
        <mxCell id="ehlFxMS1mAo0d8vLHFDj-385" value="" style="endArrow=none;html=1;rounded=1;jumpSize=20;strokeWidth=4;" parent="1" edge="1">
          <mxGeometry width="50" height="50" relative="1" as="geometry">
            <mxPoint x="1420" y="314" as="sourcePoint" />
            <mxPoint x="1455" y="314" as="targetPoint" />
          </mxGeometry>
        </mxCell>
        <mxCell id="ehlFxMS1mAo0d8vLHFDj-386" value="" style="endArrow=none;html=1;rounded=1;jumpSize=20;strokeWidth=4;" parent="1" edge="1">
          <mxGeometry width="50" height="50" relative="1" as="geometry">
            <mxPoint x="1455" y="314" as="sourcePoint" />
            <mxPoint x="1480" y="289" as="targetPoint" />
          </mxGeometry>
        </mxCell>
        <mxCell id="ehlFxMS1mAo0d8vLHFDj-387" value="Batch Normalization" style="text;html=1;strokeColor=none;fillColor=none;align=center;verticalAlign=middle;whiteSpace=wrap;rounded=0;" parent="1" vertex="1">
          <mxGeometry x="1235" y="414" width="250" height="20" as="geometry" />
        </mxCell>
        <mxCell id="ehlFxMS1mAo0d8vLHFDj-389" value="" style="rounded=0;whiteSpace=wrap;html=1;fillColor=#dae8fc;strokeColor=#6c8ebf;" parent="1" vertex="1">
          <mxGeometry x="1530" y="194" width="40" height="40" as="geometry" />
        </mxCell>
        <mxCell id="ehlFxMS1mAo0d8vLHFDj-390" value="" style="rounded=0;whiteSpace=wrap;html=1;fillColor=#dae8fc;strokeColor=#6c8ebf;" parent="1" vertex="1">
          <mxGeometry x="1570" y="194" width="40" height="40" as="geometry" />
        </mxCell>
        <mxCell id="ehlFxMS1mAo0d8vLHFDj-391" value="" style="rounded=0;whiteSpace=wrap;html=1;fillColor=#dae8fc;strokeColor=#6c8ebf;" parent="1" vertex="1">
          <mxGeometry x="1610" y="194" width="40" height="40" as="geometry" />
        </mxCell>
        <mxCell id="ehlFxMS1mAo0d8vLHFDj-392" value="" style="rounded=0;whiteSpace=wrap;html=1;fillColor=#dae8fc;strokeColor=#6c8ebf;" parent="1" vertex="1">
          <mxGeometry x="1650" y="194" width="40" height="40" as="geometry" />
        </mxCell>
        <mxCell id="ehlFxMS1mAo0d8vLHFDj-393" value="" style="rounded=0;whiteSpace=wrap;html=1;fillColor=#dae8fc;strokeColor=#6c8ebf;" parent="1" vertex="1">
          <mxGeometry x="1530" y="234" width="40" height="40" as="geometry" />
        </mxCell>
        <mxCell id="ehlFxMS1mAo0d8vLHFDj-394" value="" style="rounded=0;whiteSpace=wrap;html=1;fillColor=#dae8fc;strokeColor=#6c8ebf;" parent="1" vertex="1">
          <mxGeometry x="1570" y="234" width="40" height="40" as="geometry" />
        </mxCell>
        <mxCell id="ehlFxMS1mAo0d8vLHFDj-395" value="" style="rounded=0;whiteSpace=wrap;html=1;fillColor=#dae8fc;strokeColor=#6c8ebf;" parent="1" vertex="1">
          <mxGeometry x="1610" y="234" width="40" height="40" as="geometry" />
        </mxCell>
        <mxCell id="ehlFxMS1mAo0d8vLHFDj-396" value="" style="rounded=0;whiteSpace=wrap;html=1;fillColor=#dae8fc;strokeColor=#6c8ebf;" parent="1" vertex="1">
          <mxGeometry x="1650" y="234" width="40" height="40" as="geometry" />
        </mxCell>
        <mxCell id="ehlFxMS1mAo0d8vLHFDj-397" value="" style="rounded=0;whiteSpace=wrap;html=1;fillColor=#dae8fc;strokeColor=#6c8ebf;" parent="1" vertex="1">
          <mxGeometry x="1690" y="234" width="40" height="40" as="geometry" />
        </mxCell>
        <mxCell id="ehlFxMS1mAo0d8vLHFDj-398" value="" style="rounded=0;whiteSpace=wrap;html=1;fillColor=#dae8fc;strokeColor=#6c8ebf;" parent="1" vertex="1">
          <mxGeometry x="1530" y="274" width="40" height="40" as="geometry" />
        </mxCell>
        <mxCell id="ehlFxMS1mAo0d8vLHFDj-399" value="" style="rounded=0;whiteSpace=wrap;html=1;fillColor=#dae8fc;strokeColor=#6c8ebf;" parent="1" vertex="1">
          <mxGeometry x="1570" y="274" width="40" height="40" as="geometry" />
        </mxCell>
        <mxCell id="ehlFxMS1mAo0d8vLHFDj-400" value="" style="rounded=0;whiteSpace=wrap;html=1;fillColor=#dae8fc;strokeColor=#6c8ebf;" parent="1" vertex="1">
          <mxGeometry x="1610" y="274" width="40" height="40" as="geometry" />
        </mxCell>
        <mxCell id="ehlFxMS1mAo0d8vLHFDj-401" value="" style="rounded=0;whiteSpace=wrap;html=1;fillColor=#dae8fc;strokeColor=#6c8ebf;" parent="1" vertex="1">
          <mxGeometry x="1650" y="274" width="40" height="40" as="geometry" />
        </mxCell>
        <mxCell id="ehlFxMS1mAo0d8vLHFDj-402" value="" style="rounded=0;whiteSpace=wrap;html=1;fillColor=#dae8fc;strokeColor=#6c8ebf;" parent="1" vertex="1">
          <mxGeometry x="1690" y="274" width="40" height="40" as="geometry" />
        </mxCell>
        <mxCell id="ehlFxMS1mAo0d8vLHFDj-403" value="" style="rounded=0;whiteSpace=wrap;html=1;fillColor=#dae8fc;strokeColor=#6c8ebf;" parent="1" vertex="1">
          <mxGeometry x="1530" y="314" width="40" height="40" as="geometry" />
        </mxCell>
        <mxCell id="ehlFxMS1mAo0d8vLHFDj-404" value="" style="rounded=0;whiteSpace=wrap;html=1;fillColor=#dae8fc;strokeColor=#6c8ebf;" parent="1" vertex="1">
          <mxGeometry x="1570" y="314" width="40" height="40" as="geometry" />
        </mxCell>
        <mxCell id="ehlFxMS1mAo0d8vLHFDj-405" value="" style="rounded=0;whiteSpace=wrap;html=1;fillColor=#dae8fc;strokeColor=#6c8ebf;" parent="1" vertex="1">
          <mxGeometry x="1610" y="314" width="40" height="40" as="geometry" />
        </mxCell>
        <mxCell id="ehlFxMS1mAo0d8vLHFDj-406" value="" style="rounded=0;whiteSpace=wrap;html=1;fillColor=#dae8fc;strokeColor=#6c8ebf;" parent="1" vertex="1">
          <mxGeometry x="1650" y="314" width="40" height="40" as="geometry" />
        </mxCell>
        <mxCell id="ehlFxMS1mAo0d8vLHFDj-407" value="" style="rounded=0;whiteSpace=wrap;html=1;fillColor=#dae8fc;strokeColor=#6c8ebf;" parent="1" vertex="1">
          <mxGeometry x="1690" y="314" width="40" height="40" as="geometry" />
        </mxCell>
        <mxCell id="ehlFxMS1mAo0d8vLHFDj-408" value="" style="rounded=0;whiteSpace=wrap;html=1;fillColor=#d5e8d4;strokeColor=#82b366;" parent="1" vertex="1">
          <mxGeometry x="1540" y="204" width="40" height="40" as="geometry" />
        </mxCell>
        <mxCell id="ehlFxMS1mAo0d8vLHFDj-409" value="" style="rounded=0;whiteSpace=wrap;html=1;fillColor=#d5e8d4;strokeColor=#82b366;" parent="1" vertex="1">
          <mxGeometry x="1580" y="204" width="40" height="40" as="geometry" />
        </mxCell>
        <mxCell id="ehlFxMS1mAo0d8vLHFDj-410" value="" style="rounded=0;whiteSpace=wrap;html=1;fillColor=#d5e8d4;strokeColor=#82b366;" parent="1" vertex="1">
          <mxGeometry x="1620" y="204" width="40" height="40" as="geometry" />
        </mxCell>
        <mxCell id="ehlFxMS1mAo0d8vLHFDj-411" value="" style="rounded=0;whiteSpace=wrap;html=1;fillColor=#d5e8d4;strokeColor=#82b366;" parent="1" vertex="1">
          <mxGeometry x="1660" y="204" width="40" height="40" as="geometry" />
        </mxCell>
        <mxCell id="ehlFxMS1mAo0d8vLHFDj-412" value="" style="rounded=0;whiteSpace=wrap;html=1;fillColor=#d5e8d4;strokeColor=#82b366;" parent="1" vertex="1">
          <mxGeometry x="1540" y="244" width="40" height="40" as="geometry" />
        </mxCell>
        <mxCell id="ehlFxMS1mAo0d8vLHFDj-413" value="" style="rounded=0;whiteSpace=wrap;html=1;fillColor=#d5e8d4;strokeColor=#82b366;" parent="1" vertex="1">
          <mxGeometry x="1580" y="244" width="40" height="40" as="geometry" />
        </mxCell>
        <mxCell id="ehlFxMS1mAo0d8vLHFDj-414" value="" style="rounded=0;whiteSpace=wrap;html=1;fillColor=#d5e8d4;strokeColor=#82b366;" parent="1" vertex="1">
          <mxGeometry x="1620" y="244" width="40" height="40" as="geometry" />
        </mxCell>
        <mxCell id="ehlFxMS1mAo0d8vLHFDj-415" value="" style="rounded=0;whiteSpace=wrap;html=1;fillColor=#d5e8d4;strokeColor=#82b366;" parent="1" vertex="1">
          <mxGeometry x="1660" y="244" width="40" height="40" as="geometry" />
        </mxCell>
        <mxCell id="ehlFxMS1mAo0d8vLHFDj-416" value="" style="rounded=0;whiteSpace=wrap;html=1;fillColor=#d5e8d4;strokeColor=#82b366;" parent="1" vertex="1">
          <mxGeometry x="1700" y="244" width="40" height="40" as="geometry" />
        </mxCell>
        <mxCell id="ehlFxMS1mAo0d8vLHFDj-417" value="" style="rounded=0;whiteSpace=wrap;html=1;fillColor=#d5e8d4;strokeColor=#82b366;" parent="1" vertex="1">
          <mxGeometry x="1540" y="284" width="40" height="40" as="geometry" />
        </mxCell>
        <mxCell id="ehlFxMS1mAo0d8vLHFDj-418" value="" style="rounded=0;whiteSpace=wrap;html=1;fillColor=#d5e8d4;strokeColor=#82b366;" parent="1" vertex="1">
          <mxGeometry x="1580" y="284" width="40" height="40" as="geometry" />
        </mxCell>
        <mxCell id="ehlFxMS1mAo0d8vLHFDj-419" value="" style="rounded=0;whiteSpace=wrap;html=1;fillColor=#d5e8d4;strokeColor=#82b366;" parent="1" vertex="1">
          <mxGeometry x="1620" y="284" width="40" height="40" as="geometry" />
        </mxCell>
        <mxCell id="ehlFxMS1mAo0d8vLHFDj-420" value="" style="rounded=0;whiteSpace=wrap;html=1;fillColor=#d5e8d4;strokeColor=#82b366;" parent="1" vertex="1">
          <mxGeometry x="1660" y="284" width="40" height="40" as="geometry" />
        </mxCell>
        <mxCell id="ehlFxMS1mAo0d8vLHFDj-421" value="" style="rounded=0;whiteSpace=wrap;html=1;fillColor=#d5e8d4;strokeColor=#82b366;" parent="1" vertex="1">
          <mxGeometry x="1700" y="284" width="40" height="40" as="geometry" />
        </mxCell>
        <mxCell id="ehlFxMS1mAo0d8vLHFDj-422" value="" style="rounded=0;whiteSpace=wrap;html=1;fillColor=#d5e8d4;strokeColor=#82b366;" parent="1" vertex="1">
          <mxGeometry x="1540" y="324" width="40" height="40" as="geometry" />
        </mxCell>
        <mxCell id="ehlFxMS1mAo0d8vLHFDj-423" value="" style="rounded=0;whiteSpace=wrap;html=1;fillColor=#d5e8d4;strokeColor=#82b366;" parent="1" vertex="1">
          <mxGeometry x="1580" y="324" width="40" height="40" as="geometry" />
        </mxCell>
        <mxCell id="ehlFxMS1mAo0d8vLHFDj-424" value="" style="rounded=0;whiteSpace=wrap;html=1;fillColor=#d5e8d4;strokeColor=#82b366;" parent="1" vertex="1">
          <mxGeometry x="1620" y="324" width="40" height="40" as="geometry" />
        </mxCell>
        <mxCell id="ehlFxMS1mAo0d8vLHFDj-425" value="" style="rounded=0;whiteSpace=wrap;html=1;fillColor=#d5e8d4;strokeColor=#82b366;" parent="1" vertex="1">
          <mxGeometry x="1660" y="324" width="40" height="40" as="geometry" />
        </mxCell>
        <mxCell id="ehlFxMS1mAo0d8vLHFDj-426" value="" style="rounded=0;whiteSpace=wrap;html=1;fillColor=#d5e8d4;strokeColor=#82b366;" parent="1" vertex="1">
          <mxGeometry x="1700" y="324" width="40" height="40" as="geometry" />
        </mxCell>
        <mxCell id="ehlFxMS1mAo0d8vLHFDj-427" value="" style="rounded=0;whiteSpace=wrap;html=1;fillColor=#ffe6cc;strokeColor=#d79b00;" parent="1" vertex="1">
          <mxGeometry x="1550" y="214" width="40" height="40" as="geometry" />
        </mxCell>
        <mxCell id="ehlFxMS1mAo0d8vLHFDj-428" value="" style="rounded=0;whiteSpace=wrap;html=1;fillColor=#ffe6cc;strokeColor=#d79b00;" parent="1" vertex="1">
          <mxGeometry x="1590" y="214" width="40" height="40" as="geometry" />
        </mxCell>
        <mxCell id="ehlFxMS1mAo0d8vLHFDj-429" value="" style="rounded=0;whiteSpace=wrap;html=1;fillColor=#ffe6cc;strokeColor=#d79b00;" parent="1" vertex="1">
          <mxGeometry x="1630" y="214" width="40" height="40" as="geometry" />
        </mxCell>
        <mxCell id="ehlFxMS1mAo0d8vLHFDj-430" value="" style="rounded=0;whiteSpace=wrap;html=1;fillColor=#ffe6cc;strokeColor=#d79b00;" parent="1" vertex="1">
          <mxGeometry x="1670" y="214" width="40" height="40" as="geometry" />
        </mxCell>
        <mxCell id="ehlFxMS1mAo0d8vLHFDj-431" value="" style="rounded=0;whiteSpace=wrap;html=1;fillColor=#ffe6cc;strokeColor=#d79b00;" parent="1" vertex="1">
          <mxGeometry x="1550" y="254" width="40" height="40" as="geometry" />
        </mxCell>
        <mxCell id="ehlFxMS1mAo0d8vLHFDj-432" value="" style="rounded=0;whiteSpace=wrap;html=1;fillColor=#ffe6cc;strokeColor=#d79b00;" parent="1" vertex="1">
          <mxGeometry x="1590" y="254" width="40" height="40" as="geometry" />
        </mxCell>
        <mxCell id="ehlFxMS1mAo0d8vLHFDj-433" value="" style="rounded=0;whiteSpace=wrap;html=1;fillColor=#ffe6cc;strokeColor=#d79b00;" parent="1" vertex="1">
          <mxGeometry x="1630" y="254" width="40" height="40" as="geometry" />
        </mxCell>
        <mxCell id="ehlFxMS1mAo0d8vLHFDj-434" value="" style="rounded=0;whiteSpace=wrap;html=1;fillColor=#ffe6cc;strokeColor=#d79b00;" parent="1" vertex="1">
          <mxGeometry x="1670" y="254" width="40" height="40" as="geometry" />
        </mxCell>
        <mxCell id="ehlFxMS1mAo0d8vLHFDj-435" value="" style="rounded=0;whiteSpace=wrap;html=1;fillColor=#ffe6cc;strokeColor=#d79b00;" parent="1" vertex="1">
          <mxGeometry x="1550" y="294" width="40" height="40" as="geometry" />
        </mxCell>
        <mxCell id="ehlFxMS1mAo0d8vLHFDj-436" value="" style="rounded=0;whiteSpace=wrap;html=1;fillColor=#ffe6cc;strokeColor=#d79b00;" parent="1" vertex="1">
          <mxGeometry x="1590" y="294" width="40" height="40" as="geometry" />
        </mxCell>
        <mxCell id="ehlFxMS1mAo0d8vLHFDj-437" value="" style="rounded=0;whiteSpace=wrap;html=1;fillColor=#ffe6cc;strokeColor=#d79b00;" parent="1" vertex="1">
          <mxGeometry x="1630" y="294" width="40" height="40" as="geometry" />
        </mxCell>
        <mxCell id="ehlFxMS1mAo0d8vLHFDj-438" value="" style="rounded=0;whiteSpace=wrap;html=1;fillColor=#ffe6cc;strokeColor=#d79b00;" parent="1" vertex="1">
          <mxGeometry x="1670" y="294" width="40" height="40" as="geometry" />
        </mxCell>
        <mxCell id="ehlFxMS1mAo0d8vLHFDj-439" value="" style="rounded=0;whiteSpace=wrap;html=1;fillColor=#ffe6cc;strokeColor=#d79b00;" parent="1" vertex="1">
          <mxGeometry x="1550" y="334" width="40" height="40" as="geometry" />
        </mxCell>
        <mxCell id="ehlFxMS1mAo0d8vLHFDj-440" value="" style="rounded=0;whiteSpace=wrap;html=1;fillColor=#ffe6cc;strokeColor=#d79b00;" parent="1" vertex="1">
          <mxGeometry x="1590" y="334" width="40" height="40" as="geometry" />
        </mxCell>
        <mxCell id="ehlFxMS1mAo0d8vLHFDj-441" value="" style="rounded=0;whiteSpace=wrap;html=1;fillColor=#ffe6cc;strokeColor=#d79b00;" parent="1" vertex="1">
          <mxGeometry x="1630" y="334" width="40" height="40" as="geometry" />
        </mxCell>
        <mxCell id="ehlFxMS1mAo0d8vLHFDj-442" value="" style="rounded=0;whiteSpace=wrap;html=1;fillColor=#ffe6cc;strokeColor=#d79b00;" parent="1" vertex="1">
          <mxGeometry x="1670" y="334" width="40" height="40" as="geometry" />
        </mxCell>
        <mxCell id="ehlFxMS1mAo0d8vLHFDj-443" value="" style="rounded=0;whiteSpace=wrap;html=1;fillColor=#fff2cc;strokeColor=#d6b656;" parent="1" vertex="1">
          <mxGeometry x="1560" y="224" width="40" height="40" as="geometry" />
        </mxCell>
        <mxCell id="ehlFxMS1mAo0d8vLHFDj-444" value="" style="rounded=0;whiteSpace=wrap;html=1;fillColor=#fff2cc;strokeColor=#d6b656;" parent="1" vertex="1">
          <mxGeometry x="1600" y="224" width="40" height="40" as="geometry" />
        </mxCell>
        <mxCell id="ehlFxMS1mAo0d8vLHFDj-445" value="" style="rounded=0;whiteSpace=wrap;html=1;fillColor=#fff2cc;strokeColor=#d6b656;" parent="1" vertex="1">
          <mxGeometry x="1640" y="224" width="40" height="40" as="geometry" />
        </mxCell>
        <mxCell id="ehlFxMS1mAo0d8vLHFDj-446" value="" style="rounded=0;whiteSpace=wrap;html=1;fillColor=#fff2cc;strokeColor=#d6b656;" parent="1" vertex="1">
          <mxGeometry x="1680" y="224" width="40" height="40" as="geometry" />
        </mxCell>
        <mxCell id="ehlFxMS1mAo0d8vLHFDj-447" value="" style="rounded=0;whiteSpace=wrap;html=1;fillColor=#fff2cc;strokeColor=#d6b656;" parent="1" vertex="1">
          <mxGeometry x="1560" y="264" width="40" height="40" as="geometry" />
        </mxCell>
        <mxCell id="ehlFxMS1mAo0d8vLHFDj-448" value="" style="rounded=0;whiteSpace=wrap;html=1;fillColor=#fff2cc;strokeColor=#d6b656;" parent="1" vertex="1">
          <mxGeometry x="1600" y="264" width="40" height="40" as="geometry" />
        </mxCell>
        <mxCell id="ehlFxMS1mAo0d8vLHFDj-449" value="" style="rounded=0;whiteSpace=wrap;html=1;fillColor=#fff2cc;strokeColor=#d6b656;" parent="1" vertex="1">
          <mxGeometry x="1640" y="264" width="40" height="40" as="geometry" />
        </mxCell>
        <mxCell id="ehlFxMS1mAo0d8vLHFDj-450" value="" style="rounded=0;whiteSpace=wrap;html=1;fillColor=#fff2cc;strokeColor=#d6b656;" parent="1" vertex="1">
          <mxGeometry x="1680" y="264" width="40" height="40" as="geometry" />
        </mxCell>
        <mxCell id="ehlFxMS1mAo0d8vLHFDj-451" value="" style="rounded=0;whiteSpace=wrap;html=1;fillColor=#fff2cc;strokeColor=#d6b656;" parent="1" vertex="1">
          <mxGeometry x="1560" y="304" width="40" height="40" as="geometry" />
        </mxCell>
        <mxCell id="ehlFxMS1mAo0d8vLHFDj-452" value="" style="rounded=0;whiteSpace=wrap;html=1;fillColor=#fff2cc;strokeColor=#d6b656;" parent="1" vertex="1">
          <mxGeometry x="1600" y="304" width="40" height="40" as="geometry" />
        </mxCell>
        <mxCell id="ehlFxMS1mAo0d8vLHFDj-453" value="" style="rounded=0;whiteSpace=wrap;html=1;fillColor=#fff2cc;strokeColor=#d6b656;" parent="1" vertex="1">
          <mxGeometry x="1640" y="304" width="40" height="40" as="geometry" />
        </mxCell>
        <mxCell id="ehlFxMS1mAo0d8vLHFDj-454" value="" style="rounded=0;whiteSpace=wrap;html=1;fillColor=#fff2cc;strokeColor=#d6b656;" parent="1" vertex="1">
          <mxGeometry x="1680" y="304" width="40" height="40" as="geometry" />
        </mxCell>
        <mxCell id="ehlFxMS1mAo0d8vLHFDj-455" value="" style="rounded=0;whiteSpace=wrap;html=1;fillColor=#fff2cc;strokeColor=#d6b656;" parent="1" vertex="1">
          <mxGeometry x="1560" y="344" width="40" height="40" as="geometry" />
        </mxCell>
        <mxCell id="ehlFxMS1mAo0d8vLHFDj-456" value="" style="rounded=0;whiteSpace=wrap;html=1;fillColor=#fff2cc;strokeColor=#d6b656;" parent="1" vertex="1">
          <mxGeometry x="1600" y="344" width="40" height="40" as="geometry" />
        </mxCell>
        <mxCell id="ehlFxMS1mAo0d8vLHFDj-457" value="" style="rounded=0;whiteSpace=wrap;html=1;fillColor=#fff2cc;strokeColor=#d6b656;" parent="1" vertex="1">
          <mxGeometry x="1640" y="344" width="40" height="40" as="geometry" />
        </mxCell>
        <mxCell id="ehlFxMS1mAo0d8vLHFDj-458" value="" style="rounded=0;whiteSpace=wrap;html=1;fillColor=#fff2cc;strokeColor=#d6b656;" parent="1" vertex="1">
          <mxGeometry x="1680" y="344" width="40" height="40" as="geometry" />
        </mxCell>
        <mxCell id="ehlFxMS1mAo0d8vLHFDj-459" value="" style="rounded=0;whiteSpace=wrap;html=1;fillColor=#f8cecc;strokeColor=#b85450;" parent="1" vertex="1">
          <mxGeometry x="1570" y="234" width="40" height="40" as="geometry" />
        </mxCell>
        <mxCell id="ehlFxMS1mAo0d8vLHFDj-460" value="" style="rounded=0;whiteSpace=wrap;html=1;fillColor=#f8cecc;strokeColor=#b85450;" parent="1" vertex="1">
          <mxGeometry x="1610" y="234" width="40" height="40" as="geometry" />
        </mxCell>
        <mxCell id="ehlFxMS1mAo0d8vLHFDj-461" value="" style="rounded=0;whiteSpace=wrap;html=1;fillColor=#f8cecc;strokeColor=#b85450;" parent="1" vertex="1">
          <mxGeometry x="1650" y="234" width="40" height="40" as="geometry" />
        </mxCell>
        <mxCell id="ehlFxMS1mAo0d8vLHFDj-462" value="" style="rounded=0;whiteSpace=wrap;html=1;fillColor=#f8cecc;strokeColor=#b85450;" parent="1" vertex="1">
          <mxGeometry x="1690" y="234" width="40" height="40" as="geometry" />
        </mxCell>
        <mxCell id="ehlFxMS1mAo0d8vLHFDj-463" value="" style="rounded=0;whiteSpace=wrap;html=1;fillColor=#f8cecc;strokeColor=#b85450;" parent="1" vertex="1">
          <mxGeometry x="1570" y="274" width="40" height="40" as="geometry" />
        </mxCell>
        <mxCell id="ehlFxMS1mAo0d8vLHFDj-464" value="" style="rounded=0;whiteSpace=wrap;html=1;fillColor=#f8cecc;strokeColor=#b85450;" parent="1" vertex="1">
          <mxGeometry x="1610" y="274" width="40" height="40" as="geometry" />
        </mxCell>
        <mxCell id="ehlFxMS1mAo0d8vLHFDj-465" value="" style="rounded=0;whiteSpace=wrap;html=1;fillColor=#f8cecc;strokeColor=#b85450;" parent="1" vertex="1">
          <mxGeometry x="1650" y="274" width="40" height="40" as="geometry" />
        </mxCell>
        <mxCell id="ehlFxMS1mAo0d8vLHFDj-466" value="" style="rounded=0;whiteSpace=wrap;html=1;fillColor=#f8cecc;strokeColor=#b85450;" parent="1" vertex="1">
          <mxGeometry x="1690" y="274" width="40" height="40" as="geometry" />
        </mxCell>
        <mxCell id="ehlFxMS1mAo0d8vLHFDj-467" value="" style="rounded=0;whiteSpace=wrap;html=1;fillColor=#f8cecc;strokeColor=#b85450;" parent="1" vertex="1">
          <mxGeometry x="1570" y="314" width="40" height="40" as="geometry" />
        </mxCell>
        <mxCell id="ehlFxMS1mAo0d8vLHFDj-468" value="" style="rounded=0;whiteSpace=wrap;html=1;fillColor=#f8cecc;strokeColor=#b85450;" parent="1" vertex="1">
          <mxGeometry x="1610" y="314" width="40" height="40" as="geometry" />
        </mxCell>
        <mxCell id="ehlFxMS1mAo0d8vLHFDj-469" value="" style="rounded=0;whiteSpace=wrap;html=1;fillColor=#f8cecc;strokeColor=#b85450;" parent="1" vertex="1">
          <mxGeometry x="1650" y="314" width="40" height="40" as="geometry" />
        </mxCell>
        <mxCell id="ehlFxMS1mAo0d8vLHFDj-470" value="" style="rounded=0;whiteSpace=wrap;html=1;fillColor=#f8cecc;strokeColor=#b85450;" parent="1" vertex="1">
          <mxGeometry x="1690" y="314" width="40" height="40" as="geometry" />
        </mxCell>
        <mxCell id="ehlFxMS1mAo0d8vLHFDj-471" value="" style="rounded=0;whiteSpace=wrap;html=1;fillColor=#f8cecc;strokeColor=#b85450;" parent="1" vertex="1">
          <mxGeometry x="1570" y="354" width="40" height="40" as="geometry" />
        </mxCell>
        <mxCell id="ehlFxMS1mAo0d8vLHFDj-472" value="" style="rounded=0;whiteSpace=wrap;html=1;fillColor=#f8cecc;strokeColor=#b85450;" parent="1" vertex="1">
          <mxGeometry x="1610" y="354" width="40" height="40" as="geometry" />
        </mxCell>
        <mxCell id="ehlFxMS1mAo0d8vLHFDj-473" value="" style="rounded=0;whiteSpace=wrap;html=1;fillColor=#f8cecc;strokeColor=#b85450;" parent="1" vertex="1">
          <mxGeometry x="1650" y="354" width="40" height="40" as="geometry" />
        </mxCell>
        <mxCell id="ehlFxMS1mAo0d8vLHFDj-474" value="" style="rounded=0;whiteSpace=wrap;html=1;fillColor=#f8cecc;strokeColor=#b85450;" parent="1" vertex="1">
          <mxGeometry x="1690" y="354" width="40" height="40" as="geometry" />
        </mxCell>
        <mxCell id="ehlFxMS1mAo0d8vLHFDj-475" value="" style="rounded=0;whiteSpace=wrap;html=1;fillColor=#e1d5e7;strokeColor=#9673a6;" parent="1" vertex="1">
          <mxGeometry x="1580" y="244" width="40" height="40" as="geometry" />
        </mxCell>
        <mxCell id="ehlFxMS1mAo0d8vLHFDj-476" value="" style="rounded=0;whiteSpace=wrap;html=1;fillColor=#e1d5e7;strokeColor=#9673a6;" parent="1" vertex="1">
          <mxGeometry x="1620" y="244" width="40" height="40" as="geometry" />
        </mxCell>
        <mxCell id="ehlFxMS1mAo0d8vLHFDj-477" value="" style="rounded=0;whiteSpace=wrap;html=1;fillColor=#e1d5e7;strokeColor=#9673a6;" parent="1" vertex="1">
          <mxGeometry x="1660" y="244" width="40" height="40" as="geometry" />
        </mxCell>
        <mxCell id="ehlFxMS1mAo0d8vLHFDj-478" value="" style="rounded=0;whiteSpace=wrap;html=1;fillColor=#e1d5e7;strokeColor=#9673a6;" parent="1" vertex="1">
          <mxGeometry x="1700" y="244" width="40" height="40" as="geometry" />
        </mxCell>
        <mxCell id="ehlFxMS1mAo0d8vLHFDj-479" value="" style="rounded=0;whiteSpace=wrap;html=1;fillColor=#e1d5e7;strokeColor=#9673a6;" parent="1" vertex="1">
          <mxGeometry x="1580" y="284" width="40" height="40" as="geometry" />
        </mxCell>
        <mxCell id="ehlFxMS1mAo0d8vLHFDj-480" value="" style="rounded=0;whiteSpace=wrap;html=1;fillColor=#e1d5e7;strokeColor=#9673a6;" parent="1" vertex="1">
          <mxGeometry x="1620" y="284" width="40" height="40" as="geometry" />
        </mxCell>
        <mxCell id="ehlFxMS1mAo0d8vLHFDj-481" value="" style="rounded=0;whiteSpace=wrap;html=1;fillColor=#e1d5e7;strokeColor=#9673a6;" parent="1" vertex="1">
          <mxGeometry x="1660" y="284" width="40" height="40" as="geometry" />
        </mxCell>
        <mxCell id="ehlFxMS1mAo0d8vLHFDj-482" style="edgeStyle=none;rounded=1;jumpSize=20;orthogonalLoop=1;jettySize=auto;html=1;entryX=0;entryY=0;entryDx=0;entryDy=0;strokeWidth=1;" parent="1" source="ehlFxMS1mAo0d8vLHFDj-483" target="ehlFxMS1mAo0d8vLHFDj-496" edge="1">
          <mxGeometry relative="1" as="geometry" />
        </mxCell>
        <mxCell id="ehlFxMS1mAo0d8vLHFDj-483" value="" style="rounded=0;whiteSpace=wrap;html=1;fillColor=#e1d5e7;strokeColor=#9673a6;" parent="1" vertex="1">
          <mxGeometry x="1700" y="284" width="40" height="40" as="geometry" />
        </mxCell>
        <mxCell id="ehlFxMS1mAo0d8vLHFDj-484" value="" style="rounded=0;whiteSpace=wrap;html=1;fillColor=#e1d5e7;strokeColor=#9673a6;" parent="1" vertex="1">
          <mxGeometry x="1580" y="324" width="40" height="40" as="geometry" />
        </mxCell>
        <mxCell id="ehlFxMS1mAo0d8vLHFDj-485" value="" style="rounded=0;whiteSpace=wrap;html=1;fillColor=#e1d5e7;strokeColor=#9673a6;" parent="1" vertex="1">
          <mxGeometry x="1620" y="324" width="40" height="40" as="geometry" />
        </mxCell>
        <mxCell id="ehlFxMS1mAo0d8vLHFDj-486" value="" style="rounded=0;whiteSpace=wrap;html=1;fillColor=#e1d5e7;strokeColor=#9673a6;" parent="1" vertex="1">
          <mxGeometry x="1660" y="324" width="40" height="40" as="geometry" />
        </mxCell>
        <mxCell id="ehlFxMS1mAo0d8vLHFDj-487" value="" style="rounded=0;whiteSpace=wrap;html=1;fillColor=#e1d5e7;strokeColor=#9673a6;" parent="1" vertex="1">
          <mxGeometry x="1700" y="324" width="40" height="40" as="geometry" />
        </mxCell>
        <mxCell id="ehlFxMS1mAo0d8vLHFDj-488" value="" style="rounded=0;whiteSpace=wrap;html=1;fillColor=#e1d5e7;strokeColor=#9673a6;" parent="1" vertex="1">
          <mxGeometry x="1580" y="364" width="40" height="40" as="geometry" />
        </mxCell>
        <mxCell id="ehlFxMS1mAo0d8vLHFDj-489" value="" style="rounded=0;whiteSpace=wrap;html=1;fillColor=#e1d5e7;strokeColor=#9673a6;" parent="1" vertex="1">
          <mxGeometry x="1620" y="364" width="40" height="40" as="geometry" />
        </mxCell>
        <mxCell id="ehlFxMS1mAo0d8vLHFDj-490" value="" style="rounded=0;whiteSpace=wrap;html=1;fillColor=#e1d5e7;strokeColor=#9673a6;" parent="1" vertex="1">
          <mxGeometry x="1660" y="364" width="40" height="40" as="geometry" />
        </mxCell>
        <mxCell id="ehlFxMS1mAo0d8vLHFDj-491" value="" style="rounded=0;whiteSpace=wrap;html=1;fillColor=#e1d5e7;strokeColor=#9673a6;" parent="1" vertex="1">
          <mxGeometry x="1700" y="364" width="40" height="40" as="geometry" />
        </mxCell>
        <mxCell id="ehlFxMS1mAo0d8vLHFDj-492" value="Two-dimensional convolution" style="text;html=1;strokeColor=none;fillColor=none;align=center;verticalAlign=middle;whiteSpace=wrap;rounded=0;" parent="1" vertex="1">
          <mxGeometry x="1515" y="434" width="250" height="20" as="geometry" />
        </mxCell>
        <mxCell id="ehlFxMS1mAo0d8vLHFDj-493" value="" style="rounded=0;whiteSpace=wrap;html=1;fillColor=#f5f5f5;strokeColor=#666666;fontColor=#333333;shadow=1;sketch=1;" parent="1" vertex="1">
          <mxGeometry x="1780" y="224" width="40" height="40" as="geometry" />
        </mxCell>
        <mxCell id="ehlFxMS1mAo0d8vLHFDj-494" style="edgeStyle=none;rounded=1;jumpSize=20;orthogonalLoop=1;jettySize=auto;html=1;entryX=0;entryY=0.5;entryDx=0;entryDy=0;strokeWidth=1;exitX=1;exitY=1;exitDx=0;exitDy=0;" parent="1" source="ehlFxMS1mAo0d8vLHFDj-495" target="ehlFxMS1mAo0d8vLHFDj-499" edge="1">
          <mxGeometry relative="1" as="geometry" />
        </mxCell>
        <mxCell id="ehlFxMS1mAo0d8vLHFDj-495" value="" style="rounded=0;whiteSpace=wrap;html=1;fillColor=#f5f5f5;strokeColor=#666666;fontColor=#333333;shadow=1;sketch=1;" parent="1" vertex="1">
          <mxGeometry x="1780" y="264" width="40" height="40" as="geometry" />
        </mxCell>
        <mxCell id="ehlFxMS1mAo0d8vLHFDj-496" value="" style="rounded=0;whiteSpace=wrap;html=1;fillColor=#f5f5f5;strokeColor=#666666;fontColor=#333333;shadow=1;sketch=1;" parent="1" vertex="1">
          <mxGeometry x="1780" y="304" width="40" height="40" as="geometry" />
        </mxCell>
        <mxCell id="ehlFxMS1mAo0d8vLHFDj-497" value="" style="rounded=0;whiteSpace=wrap;html=1;fillColor=#f5f5f5;strokeColor=#666666;fontColor=#333333;shadow=1;sketch=1;" parent="1" vertex="1">
          <mxGeometry x="1780" y="344" width="40" height="40" as="geometry" />
        </mxCell>
        <mxCell id="ehlFxMS1mAo0d8vLHFDj-498" value="Activation" style="text;html=1;strokeColor=none;fillColor=none;align=center;verticalAlign=middle;whiteSpace=wrap;rounded=0;" parent="1" vertex="1">
          <mxGeometry x="1765" y="354" width="250" height="20" as="geometry" />
        </mxCell>
        <mxCell id="ehlFxMS1mAo0d8vLHFDj-524" style="edgeStyle=none;rounded=1;jumpSize=20;orthogonalLoop=1;jettySize=auto;html=1;entryX=0;entryY=1;entryDx=0;entryDy=0;strokeWidth=1;" parent="1" source="ehlFxMS1mAo0d8vLHFDj-499" target="ehlFxMS1mAo0d8vLHFDj-511" edge="1">
          <mxGeometry relative="1" as="geometry" />
        </mxCell>
        <mxCell id="ehlFxMS1mAo0d8vLHFDj-499" value="" style="rounded=0;whiteSpace=wrap;html=1;" parent="1" vertex="1">
          <mxGeometry x="1850" y="264" width="80" height="80" as="geometry" />
        </mxCell>
        <mxCell id="ehlFxMS1mAo0d8vLHFDj-500" value="" style="endArrow=none;html=1;rounded=1;jumpSize=20;strokeWidth=4;" parent="1" edge="1">
          <mxGeometry width="50" height="50" relative="1" as="geometry">
            <mxPoint x="1860" y="314" as="sourcePoint" />
            <mxPoint x="1895" y="314" as="targetPoint" />
          </mxGeometry>
        </mxCell>
        <mxCell id="ehlFxMS1mAo0d8vLHFDj-501" value="" style="endArrow=none;html=1;rounded=1;jumpSize=20;strokeWidth=4;" parent="1" edge="1">
          <mxGeometry width="50" height="50" relative="1" as="geometry">
            <mxPoint x="1895" y="314" as="sourcePoint" />
            <mxPoint x="1920" y="289" as="targetPoint" />
          </mxGeometry>
        </mxCell>
        <mxCell id="ehlFxMS1mAo0d8vLHFDj-502" value="Batch Normalization" style="text;html=1;strokeColor=none;fillColor=none;align=center;verticalAlign=middle;whiteSpace=wrap;rounded=0;" parent="1" vertex="1">
          <mxGeometry x="1675" y="414" width="250" height="20" as="geometry" />
        </mxCell>
        <mxCell id="ehlFxMS1mAo0d8vLHFDj-526" style="edgeStyle=none;rounded=1;jumpSize=20;orthogonalLoop=1;jettySize=auto;html=1;entryX=-0.028;entryY=0.717;entryDx=0;entryDy=0;strokeWidth=1;entryPerimeter=0;" parent="1" source="ehlFxMS1mAo0d8vLHFDj-506" target="ehlFxMS1mAo0d8vLHFDj-30" edge="1">
          <mxGeometry relative="1" as="geometry" />
        </mxCell>
        <mxCell id="ehlFxMS1mAo0d8vLHFDj-506" value="" style="rounded=0;whiteSpace=wrap;html=1;" parent="1" vertex="1">
          <mxGeometry x="1975" y="224" width="160" height="160" as="geometry" />
        </mxCell>
        <mxCell id="ehlFxMS1mAo0d8vLHFDj-507" value="" style="rounded=0;whiteSpace=wrap;html=1;fillColor=#dae8fc;strokeColor=#6c8ebf;" parent="1" vertex="1">
          <mxGeometry x="1975" y="224" width="40" height="40" as="geometry" />
        </mxCell>
        <mxCell id="ehlFxMS1mAo0d8vLHFDj-508" value="" style="rounded=0;whiteSpace=wrap;html=1;fillColor=#dae8fc;strokeColor=#6c8ebf;" parent="1" vertex="1">
          <mxGeometry x="2015" y="224" width="40" height="40" as="geometry" />
        </mxCell>
        <mxCell id="ehlFxMS1mAo0d8vLHFDj-509" value="" style="rounded=0;whiteSpace=wrap;html=1;fillColor=#d5e8d4;strokeColor=#82b366;" parent="1" vertex="1">
          <mxGeometry x="2055" y="224" width="40" height="40" as="geometry" />
        </mxCell>
        <mxCell id="ehlFxMS1mAo0d8vLHFDj-510" value="" style="rounded=0;whiteSpace=wrap;html=1;fillColor=#d5e8d4;strokeColor=#82b366;" parent="1" vertex="1">
          <mxGeometry x="2095" y="224" width="40" height="40" as="geometry" />
        </mxCell>
        <mxCell id="ehlFxMS1mAo0d8vLHFDj-511" value="" style="rounded=0;whiteSpace=wrap;html=1;fillColor=#dae8fc;strokeColor=#6c8ebf;" parent="1" vertex="1">
          <mxGeometry x="1975" y="264" width="40" height="40" as="geometry" />
        </mxCell>
        <mxCell id="ehlFxMS1mAo0d8vLHFDj-512" value="" style="rounded=0;whiteSpace=wrap;html=1;fillColor=#dae8fc;strokeColor=#6c8ebf;" parent="1" vertex="1">
          <mxGeometry x="2015" y="264" width="40" height="40" as="geometry" />
        </mxCell>
        <mxCell id="ehlFxMS1mAo0d8vLHFDj-513" value="" style="rounded=0;whiteSpace=wrap;html=1;fillColor=#d5e8d4;strokeColor=#82b366;" parent="1" vertex="1">
          <mxGeometry x="2055" y="264" width="40" height="40" as="geometry" />
        </mxCell>
        <mxCell id="ehlFxMS1mAo0d8vLHFDj-527" style="edgeStyle=none;rounded=1;jumpSize=20;orthogonalLoop=1;jettySize=auto;html=1;entryX=0;entryY=0.5;entryDx=0;entryDy=0;strokeWidth=1;" parent="1" source="ehlFxMS1mAo0d8vLHFDj-514" target="ehlFxMS1mAo0d8vLHFDj-32" edge="1">
          <mxGeometry relative="1" as="geometry" />
        </mxCell>
        <mxCell id="ehlFxMS1mAo0d8vLHFDj-528" style="edgeStyle=none;rounded=1;jumpSize=20;orthogonalLoop=1;jettySize=auto;html=1;entryX=0;entryY=0.5;entryDx=0;entryDy=0;strokeWidth=1;exitX=1;exitY=0.5;exitDx=0;exitDy=0;" parent="1" source="ehlFxMS1mAo0d8vLHFDj-518" target="ehlFxMS1mAo0d8vLHFDj-34" edge="1">
          <mxGeometry relative="1" as="geometry" />
        </mxCell>
        <mxCell id="ehlFxMS1mAo0d8vLHFDj-514" value="" style="rounded=0;whiteSpace=wrap;html=1;fillColor=#d5e8d4;strokeColor=#82b366;" parent="1" vertex="1">
          <mxGeometry x="2095" y="264" width="40" height="40" as="geometry" />
        </mxCell>
        <mxCell id="ehlFxMS1mAo0d8vLHFDj-515" value="" style="rounded=0;whiteSpace=wrap;html=1;fillColor=#f8cecc;strokeColor=#b85450;" parent="1" vertex="1">
          <mxGeometry x="1975" y="304" width="40" height="40" as="geometry" />
        </mxCell>
        <mxCell id="ehlFxMS1mAo0d8vLHFDj-516" value="" style="rounded=0;whiteSpace=wrap;html=1;fillColor=#f8cecc;strokeColor=#b85450;" parent="1" vertex="1">
          <mxGeometry x="2015" y="304" width="40" height="40" as="geometry" />
        </mxCell>
        <mxCell id="ehlFxMS1mAo0d8vLHFDj-517" value="" style="rounded=0;whiteSpace=wrap;html=1;fillColor=#e1d5e7;strokeColor=#9673a6;" parent="1" vertex="1">
          <mxGeometry x="2055" y="304" width="40" height="40" as="geometry" />
        </mxCell>
        <mxCell id="ehlFxMS1mAo0d8vLHFDj-529" style="edgeStyle=none;rounded=1;jumpSize=20;orthogonalLoop=1;jettySize=auto;html=1;entryX=0;entryY=0.5;entryDx=0;entryDy=0;strokeWidth=1;exitX=1;exitY=0.5;exitDx=0;exitDy=0;" parent="1" source="ehlFxMS1mAo0d8vLHFDj-523" target="ehlFxMS1mAo0d8vLHFDj-36" edge="1">
          <mxGeometry relative="1" as="geometry" />
        </mxCell>
        <mxCell id="ehlFxMS1mAo0d8vLHFDj-518" value="" style="rounded=0;whiteSpace=wrap;html=1;fillColor=#e1d5e7;strokeColor=#9673a6;" parent="1" vertex="1">
          <mxGeometry x="2095" y="304" width="40" height="40" as="geometry" />
        </mxCell>
        <mxCell id="ehlFxMS1mAo0d8vLHFDj-520" value="" style="rounded=0;whiteSpace=wrap;html=1;fillColor=#f8cecc;strokeColor=#b85450;" parent="1" vertex="1">
          <mxGeometry x="1975" y="344" width="40" height="40" as="geometry" />
        </mxCell>
        <mxCell id="ehlFxMS1mAo0d8vLHFDj-521" value="" style="rounded=0;whiteSpace=wrap;html=1;fillColor=#f8cecc;strokeColor=#b85450;" parent="1" vertex="1">
          <mxGeometry x="2015" y="344" width="40" height="40" as="geometry" />
        </mxCell>
        <mxCell id="ehlFxMS1mAo0d8vLHFDj-522" value="" style="rounded=0;whiteSpace=wrap;html=1;fillColor=#e1d5e7;strokeColor=#9673a6;" parent="1" vertex="1">
          <mxGeometry x="2055" y="344" width="40" height="40" as="geometry" />
        </mxCell>
        <mxCell id="ehlFxMS1mAo0d8vLHFDj-523" value="" style="rounded=0;whiteSpace=wrap;html=1;fillColor=#e1d5e7;strokeColor=#9673a6;" parent="1" vertex="1">
          <mxGeometry x="2095" y="344" width="40" height="40" as="geometry" />
        </mxCell>
        <mxCell id="ehlFxMS1mAo0d8vLHFDj-525" value="Two-dimensional maximum pooling" style="text;html=1;strokeColor=none;fillColor=none;align=center;verticalAlign=middle;whiteSpace=wrap;rounded=0;" parent="1" vertex="1">
          <mxGeometry x="1925" y="401.5" width="250" height="20" as="geometry" />
        </mxCell>
        <mxCell id="ehlFxMS1mAo0d8vLHFDj-530" value="Flatten" style="text;html=1;strokeColor=none;fillColor=none;align=center;verticalAlign=middle;whiteSpace=wrap;rounded=0;" parent="1" vertex="1">
          <mxGeometry x="2115" y="454" width="250" height="20" as="geometry" />
        </mxCell>
        <mxCell id="ehlFxMS1mAo0d8vLHFDj-557" style="edgeStyle=none;rounded=1;jumpSize=20;orthogonalLoop=1;jettySize=auto;html=1;entryX=0;entryY=0.5;entryDx=0;entryDy=0;strokeWidth=1;" parent="1" source="ehlFxMS1mAo0d8vLHFDj-531" target="ehlFxMS1mAo0d8vLHFDj-541" edge="1">
          <mxGeometry relative="1" as="geometry" />
        </mxCell>
        <mxCell id="ehlFxMS1mAo0d8vLHFDj-564" style="edgeStyle=none;rounded=1;jumpSize=20;orthogonalLoop=1;jettySize=auto;html=1;strokeWidth=1;" parent="1" source="ehlFxMS1mAo0d8vLHFDj-531" edge="1">
          <mxGeometry relative="1" as="geometry">
            <mxPoint x="2465" y="344.0000000000001" as="targetPoint" />
          </mxGeometry>
        </mxCell>
        <mxCell id="ehlFxMS1mAo0d8vLHFDj-531" value="" style="ellipse;whiteSpace=wrap;html=1;aspect=fixed;" parent="1" vertex="1">
          <mxGeometry x="2385" y="169" width="30" height="30" as="geometry" />
        </mxCell>
        <mxCell id="ehlFxMS1mAo0d8vLHFDj-559" style="edgeStyle=none;rounded=1;jumpSize=20;orthogonalLoop=1;jettySize=auto;html=1;entryX=0;entryY=0.5;entryDx=0;entryDy=0;strokeWidth=1;" parent="1" source="ehlFxMS1mAo0d8vLHFDj-532" target="ehlFxMS1mAo0d8vLHFDj-543" edge="1">
          <mxGeometry relative="1" as="geometry" />
        </mxCell>
        <mxCell id="ehlFxMS1mAo0d8vLHFDj-532" value="" style="ellipse;whiteSpace=wrap;html=1;aspect=fixed;" parent="1" vertex="1">
          <mxGeometry x="2385" y="209" width="30" height="30" as="geometry" />
        </mxCell>
        <mxCell id="ehlFxMS1mAo0d8vLHFDj-563" style="edgeStyle=none;rounded=1;jumpSize=20;orthogonalLoop=1;jettySize=auto;html=1;entryX=0;entryY=0.5;entryDx=0;entryDy=0;strokeWidth=1;" parent="1" source="ehlFxMS1mAo0d8vLHFDj-533" target="ehlFxMS1mAo0d8vLHFDj-542" edge="1">
          <mxGeometry relative="1" as="geometry" />
        </mxCell>
        <mxCell id="ehlFxMS1mAo0d8vLHFDj-533" value="" style="ellipse;whiteSpace=wrap;html=1;aspect=fixed;" parent="1" vertex="1">
          <mxGeometry x="2385" y="249" width="30" height="30" as="geometry" />
        </mxCell>
        <mxCell id="ehlFxMS1mAo0d8vLHFDj-558" style="edgeStyle=none;rounded=1;jumpSize=20;orthogonalLoop=1;jettySize=auto;html=1;entryX=0;entryY=0.5;entryDx=0;entryDy=0;strokeWidth=1;" parent="1" source="ehlFxMS1mAo0d8vLHFDj-534" target="ehlFxMS1mAo0d8vLHFDj-539" edge="1">
          <mxGeometry relative="1" as="geometry" />
        </mxCell>
        <mxCell id="ehlFxMS1mAo0d8vLHFDj-534" value="" style="ellipse;whiteSpace=wrap;html=1;aspect=fixed;" parent="1" vertex="1">
          <mxGeometry x="2385" y="289" width="30" height="30" as="geometry" />
        </mxCell>
        <mxCell id="ehlFxMS1mAo0d8vLHFDj-561" style="edgeStyle=none;rounded=1;jumpSize=20;orthogonalLoop=1;jettySize=auto;html=1;entryX=0;entryY=0.5;entryDx=0;entryDy=0;strokeWidth=1;" parent="1" source="ehlFxMS1mAo0d8vLHFDj-535" target="ehlFxMS1mAo0d8vLHFDj-544" edge="1">
          <mxGeometry relative="1" as="geometry" />
        </mxCell>
        <mxCell id="ehlFxMS1mAo0d8vLHFDj-535" value="" style="ellipse;whiteSpace=wrap;html=1;aspect=fixed;" parent="1" vertex="1">
          <mxGeometry x="2385" y="329" width="30" height="30" as="geometry" />
        </mxCell>
        <mxCell id="ehlFxMS1mAo0d8vLHFDj-560" style="edgeStyle=none;rounded=1;jumpSize=20;orthogonalLoop=1;jettySize=auto;html=1;entryX=0;entryY=0.5;entryDx=0;entryDy=0;strokeWidth=1;" parent="1" source="ehlFxMS1mAo0d8vLHFDj-536" target="ehlFxMS1mAo0d8vLHFDj-540" edge="1">
          <mxGeometry relative="1" as="geometry" />
        </mxCell>
        <mxCell id="ehlFxMS1mAo0d8vLHFDj-565" style="edgeStyle=none;rounded=1;jumpSize=20;orthogonalLoop=1;jettySize=auto;html=1;entryX=0;entryY=0.5;entryDx=0;entryDy=0;strokeWidth=1;" parent="1" source="ehlFxMS1mAo0d8vLHFDj-536" target="ehlFxMS1mAo0d8vLHFDj-543" edge="1">
          <mxGeometry relative="1" as="geometry" />
        </mxCell>
        <mxCell id="ehlFxMS1mAo0d8vLHFDj-536" value="" style="ellipse;whiteSpace=wrap;html=1;aspect=fixed;" parent="1" vertex="1">
          <mxGeometry x="2385" y="369" width="30" height="30" as="geometry" />
        </mxCell>
        <mxCell id="ehlFxMS1mAo0d8vLHFDj-562" style="edgeStyle=none;rounded=1;jumpSize=20;orthogonalLoop=1;jettySize=auto;html=1;entryX=0;entryY=0.5;entryDx=0;entryDy=0;strokeWidth=1;" parent="1" source="ehlFxMS1mAo0d8vLHFDj-537" target="ehlFxMS1mAo0d8vLHFDj-538" edge="1">
          <mxGeometry relative="1" as="geometry" />
        </mxCell>
        <mxCell id="ehlFxMS1mAo0d8vLHFDj-537" value="" style="ellipse;whiteSpace=wrap;html=1;aspect=fixed;" parent="1" vertex="1">
          <mxGeometry x="2385" y="409" width="30" height="30" as="geometry" />
        </mxCell>
        <mxCell id="ehlFxMS1mAo0d8vLHFDj-569" style="edgeStyle=none;rounded=1;jumpSize=20;orthogonalLoop=1;jettySize=auto;html=1;entryX=0;entryY=0.5;entryDx=0;entryDy=0;strokeWidth=1;" parent="1" source="ehlFxMS1mAo0d8vLHFDj-538" target="ehlFxMS1mAo0d8vLHFDj-567" edge="1">
          <mxGeometry relative="1" as="geometry" />
        </mxCell>
        <mxCell id="ehlFxMS1mAo0d8vLHFDj-576" style="edgeStyle=none;rounded=1;jumpSize=20;orthogonalLoop=1;jettySize=auto;html=1;entryX=0;entryY=0.5;entryDx=0;entryDy=0;strokeWidth=1;" parent="1" source="ehlFxMS1mAo0d8vLHFDj-538" target="ehlFxMS1mAo0d8vLHFDj-568" edge="1">
          <mxGeometry relative="1" as="geometry" />
        </mxCell>
        <mxCell id="ehlFxMS1mAo0d8vLHFDj-538" value="" style="ellipse;whiteSpace=wrap;html=1;aspect=fixed;" parent="1" vertex="1">
          <mxGeometry x="2465" y="169" width="30" height="30" as="geometry" />
        </mxCell>
        <mxCell id="ehlFxMS1mAo0d8vLHFDj-570" style="edgeStyle=none;rounded=1;jumpSize=20;orthogonalLoop=1;jettySize=auto;html=1;entryX=0;entryY=0.5;entryDx=0;entryDy=0;strokeWidth=1;" parent="1" source="ehlFxMS1mAo0d8vLHFDj-539" target="ehlFxMS1mAo0d8vLHFDj-568" edge="1">
          <mxGeometry relative="1" as="geometry" />
        </mxCell>
        <mxCell id="ehlFxMS1mAo0d8vLHFDj-582" style="edgeStyle=none;rounded=1;jumpSize=20;orthogonalLoop=1;jettySize=auto;html=1;strokeWidth=1;" parent="1" source="ehlFxMS1mAo0d8vLHFDj-539" edge="1">
          <mxGeometry relative="1" as="geometry">
            <mxPoint x="2565" y="304.0000000000001" as="targetPoint" />
          </mxGeometry>
        </mxCell>
        <mxCell id="ehlFxMS1mAo0d8vLHFDj-539" value="" style="ellipse;whiteSpace=wrap;html=1;aspect=fixed;" parent="1" vertex="1">
          <mxGeometry x="2465" y="209" width="30" height="30" as="geometry" />
        </mxCell>
        <mxCell id="ehlFxMS1mAo0d8vLHFDj-571" style="edgeStyle=none;rounded=1;jumpSize=20;orthogonalLoop=1;jettySize=auto;html=1;entryX=0;entryY=0.5;entryDx=0;entryDy=0;strokeWidth=1;" parent="1" source="ehlFxMS1mAo0d8vLHFDj-540" target="ehlFxMS1mAo0d8vLHFDj-567" edge="1">
          <mxGeometry relative="1" as="geometry" />
        </mxCell>
        <mxCell id="ehlFxMS1mAo0d8vLHFDj-578" style="edgeStyle=none;rounded=1;jumpSize=20;orthogonalLoop=1;jettySize=auto;html=1;strokeWidth=1;" parent="1" source="ehlFxMS1mAo0d8vLHFDj-540" edge="1">
          <mxGeometry relative="1" as="geometry">
            <mxPoint x="2575" y="344.0000000000001" as="targetPoint" />
          </mxGeometry>
        </mxCell>
        <mxCell id="ehlFxMS1mAo0d8vLHFDj-540" value="" style="ellipse;whiteSpace=wrap;html=1;aspect=fixed;" parent="1" vertex="1">
          <mxGeometry x="2465" y="249" width="30" height="30" as="geometry" />
        </mxCell>
        <mxCell id="ehlFxMS1mAo0d8vLHFDj-572" style="edgeStyle=none;rounded=1;jumpSize=20;orthogonalLoop=1;jettySize=auto;html=1;entryX=0;entryY=0.5;entryDx=0;entryDy=0;strokeWidth=1;" parent="1" source="ehlFxMS1mAo0d8vLHFDj-541" target="ehlFxMS1mAo0d8vLHFDj-568" edge="1">
          <mxGeometry relative="1" as="geometry" />
        </mxCell>
        <mxCell id="ehlFxMS1mAo0d8vLHFDj-577" style="edgeStyle=none;rounded=1;jumpSize=20;orthogonalLoop=1;jettySize=auto;html=1;strokeWidth=1;" parent="1" source="ehlFxMS1mAo0d8vLHFDj-541" edge="1">
          <mxGeometry relative="1" as="geometry">
            <mxPoint x="2575" y="304.0000000000001" as="targetPoint" />
          </mxGeometry>
        </mxCell>
        <mxCell id="ehlFxMS1mAo0d8vLHFDj-541" value="" style="ellipse;whiteSpace=wrap;html=1;aspect=fixed;" parent="1" vertex="1">
          <mxGeometry x="2465" y="289" width="30" height="30" as="geometry" />
        </mxCell>
        <mxCell id="ehlFxMS1mAo0d8vLHFDj-573" style="edgeStyle=none;rounded=1;jumpSize=20;orthogonalLoop=1;jettySize=auto;html=1;entryX=0;entryY=0.5;entryDx=0;entryDy=0;strokeWidth=1;" parent="1" source="ehlFxMS1mAo0d8vLHFDj-542" target="ehlFxMS1mAo0d8vLHFDj-567" edge="1">
          <mxGeometry relative="1" as="geometry" />
        </mxCell>
        <mxCell id="ehlFxMS1mAo0d8vLHFDj-581" style="edgeStyle=none;rounded=1;jumpSize=20;orthogonalLoop=1;jettySize=auto;html=1;strokeWidth=1;" parent="1" source="ehlFxMS1mAo0d8vLHFDj-542" edge="1">
          <mxGeometry relative="1" as="geometry">
            <mxPoint x="2565" y="344.0000000000001" as="targetPoint" />
          </mxGeometry>
        </mxCell>
        <mxCell id="ehlFxMS1mAo0d8vLHFDj-542" value="" style="ellipse;whiteSpace=wrap;html=1;aspect=fixed;" parent="1" vertex="1">
          <mxGeometry x="2465" y="329" width="30" height="30" as="geometry" />
        </mxCell>
        <mxCell id="ehlFxMS1mAo0d8vLHFDj-574" style="edgeStyle=none;rounded=1;jumpSize=20;orthogonalLoop=1;jettySize=auto;html=1;strokeWidth=1;" parent="1" source="ehlFxMS1mAo0d8vLHFDj-543" edge="1">
          <mxGeometry relative="1" as="geometry">
            <mxPoint x="2575" y="344.0000000000001" as="targetPoint" />
          </mxGeometry>
        </mxCell>
        <mxCell id="ehlFxMS1mAo0d8vLHFDj-579" style="edgeStyle=none;rounded=1;jumpSize=20;orthogonalLoop=1;jettySize=auto;html=1;strokeWidth=1;" parent="1" source="ehlFxMS1mAo0d8vLHFDj-543" edge="1">
          <mxGeometry relative="1" as="geometry">
            <mxPoint x="2565" y="304.0000000000001" as="targetPoint" />
          </mxGeometry>
        </mxCell>
        <mxCell id="ehlFxMS1mAo0d8vLHFDj-543" value="" style="ellipse;whiteSpace=wrap;html=1;aspect=fixed;" parent="1" vertex="1">
          <mxGeometry x="2465" y="369" width="30" height="30" as="geometry" />
        </mxCell>
        <mxCell id="ehlFxMS1mAo0d8vLHFDj-575" style="edgeStyle=none;rounded=1;jumpSize=20;orthogonalLoop=1;jettySize=auto;html=1;entryX=0;entryY=0.5;entryDx=0;entryDy=0;strokeWidth=1;" parent="1" source="ehlFxMS1mAo0d8vLHFDj-544" target="ehlFxMS1mAo0d8vLHFDj-567" edge="1">
          <mxGeometry relative="1" as="geometry" />
        </mxCell>
        <mxCell id="ehlFxMS1mAo0d8vLHFDj-580" style="edgeStyle=none;rounded=1;jumpSize=20;orthogonalLoop=1;jettySize=auto;html=1;strokeWidth=1;" parent="1" source="ehlFxMS1mAo0d8vLHFDj-544" edge="1">
          <mxGeometry relative="1" as="geometry">
            <mxPoint x="2565" y="344.0000000000001" as="targetPoint" />
          </mxGeometry>
        </mxCell>
        <mxCell id="ehlFxMS1mAo0d8vLHFDj-544" value="" style="ellipse;whiteSpace=wrap;html=1;aspect=fixed;" parent="1" vertex="1">
          <mxGeometry x="2465" y="409" width="30" height="30" as="geometry" />
        </mxCell>
        <mxCell id="ehlFxMS1mAo0d8vLHFDj-566" value="&lt;div&gt;Output&lt;/div&gt;" style="text;html=1;strokeColor=none;fillColor=none;align=center;verticalAlign=middle;whiteSpace=wrap;rounded=0;" parent="1" vertex="1">
          <mxGeometry x="2465" y="454" width="250" height="20" as="geometry" />
        </mxCell>
        <mxCell id="ehlFxMS1mAo0d8vLHFDj-567" value="" style="ellipse;whiteSpace=wrap;html=1;aspect=fixed;" parent="1" vertex="1">
          <mxGeometry x="2571" y="289" width="30" height="30" as="geometry" />
        </mxCell>
        <mxCell id="ehlFxMS1mAo0d8vLHFDj-568" value="" style="ellipse;whiteSpace=wrap;html=1;aspect=fixed;" parent="1" vertex="1">
          <mxGeometry x="2571" y="329" width="30" height="30" as="geometry" />
        </mxCell>
        <mxCell id="sUNE9Ao9WOD159sY9nD--1" value="" style="rounded=0;whiteSpace=wrap;html=1;shadow=1;glass=0;sketch=1;fillColor=#f5f5f5;strokeColor=#666666;fontColor=#333333;" parent="1" vertex="1">
          <mxGeometry x="360" y="194" width="30" height="30" as="geometry" />
        </mxCell>
        <mxCell id="sUNE9Ao9WOD159sY9nD--2" value="" style="rounded=0;whiteSpace=wrap;html=1;shadow=1;glass=0;sketch=1;fillColor=#f5f5f5;strokeColor=#666666;fontColor=#333333;" parent="1" vertex="1">
          <mxGeometry x="330" y="194" width="30" height="30" as="geometry" />
        </mxCell>
        <mxCell id="sUNE9Ao9WOD159sY9nD--3" value="" style="rounded=0;whiteSpace=wrap;html=1;shadow=1;glass=0;sketch=1;fillColor=#f5f5f5;strokeColor=#666666;fontColor=#333333;" parent="1" vertex="1">
          <mxGeometry x="390" y="194" width="30" height="30" as="geometry" />
        </mxCell>
        <mxCell id="sUNE9Ao9WOD159sY9nD--4" value="" style="rounded=0;whiteSpace=wrap;html=1;shadow=1;glass=0;sketch=1;fillColor=#f5f5f5;strokeColor=#666666;fontColor=#333333;" parent="1" vertex="1">
          <mxGeometry x="450" y="194" width="30" height="30" as="geometry" />
        </mxCell>
        <mxCell id="sUNE9Ao9WOD159sY9nD--5" value="" style="rounded=0;whiteSpace=wrap;html=1;shadow=1;glass=0;sketch=1;fillColor=#f5f5f5;strokeColor=#666666;fontColor=#333333;" parent="1" vertex="1">
          <mxGeometry x="420" y="194" width="30" height="30" as="geometry" />
        </mxCell>
        <mxCell id="sUNE9Ao9WOD159sY9nD--6" value="" style="rounded=0;whiteSpace=wrap;html=1;shadow=1;glass=0;sketch=1;fillColor=#f5f5f5;strokeColor=#666666;fontColor=#333333;" parent="1" vertex="1">
          <mxGeometry x="480" y="194" width="30" height="30" as="geometry" />
        </mxCell>
        <mxCell id="sUNE9Ao9WOD159sY9nD--7" value="" style="rounded=0;whiteSpace=wrap;html=1;shadow=1;glass=0;sketch=1;fillColor=#f5f5f5;strokeColor=#666666;fontColor=#333333;" parent="1" vertex="1">
          <mxGeometry x="360" y="224" width="30" height="30" as="geometry" />
        </mxCell>
        <mxCell id="sUNE9Ao9WOD159sY9nD--8" value="" style="rounded=0;whiteSpace=wrap;html=1;shadow=1;glass=0;sketch=1;fillColor=#f5f5f5;strokeColor=#666666;fontColor=#333333;" parent="1" vertex="1">
          <mxGeometry x="330" y="224" width="30" height="30" as="geometry" />
        </mxCell>
        <mxCell id="sUNE9Ao9WOD159sY9nD--9" value="" style="rounded=0;whiteSpace=wrap;html=1;shadow=1;glass=0;sketch=1;fillColor=#f5f5f5;strokeColor=#666666;fontColor=#333333;" parent="1" vertex="1">
          <mxGeometry x="390" y="224" width="30" height="30" as="geometry" />
        </mxCell>
        <mxCell id="sUNE9Ao9WOD159sY9nD--10" value="" style="rounded=0;whiteSpace=wrap;html=1;shadow=1;glass=0;sketch=1;fillColor=#f5f5f5;strokeColor=#666666;fontColor=#333333;" parent="1" vertex="1">
          <mxGeometry x="450" y="224" width="30" height="30" as="geometry" />
        </mxCell>
        <mxCell id="sUNE9Ao9WOD159sY9nD--11" value="" style="rounded=0;whiteSpace=wrap;html=1;shadow=1;glass=0;sketch=1;fillColor=#f5f5f5;strokeColor=#666666;fontColor=#333333;" parent="1" vertex="1">
          <mxGeometry x="420" y="224" width="30" height="30" as="geometry" />
        </mxCell>
        <mxCell id="sUNE9Ao9WOD159sY9nD--12" value="" style="rounded=0;whiteSpace=wrap;html=1;shadow=1;glass=0;sketch=1;fillColor=#f5f5f5;strokeColor=#666666;fontColor=#333333;" parent="1" vertex="1">
          <mxGeometry x="480" y="224" width="30" height="30" as="geometry" />
        </mxCell>
        <mxCell id="sUNE9Ao9WOD159sY9nD--13" value="" style="rounded=0;whiteSpace=wrap;html=1;shadow=1;glass=0;sketch=1;fillColor=#f5f5f5;strokeColor=#666666;fontColor=#333333;" parent="1" vertex="1">
          <mxGeometry x="540" y="194" width="30" height="30" as="geometry" />
        </mxCell>
        <mxCell id="sUNE9Ao9WOD159sY9nD--14" value="" style="rounded=0;whiteSpace=wrap;html=1;shadow=1;glass=0;sketch=1;fillColor=#f5f5f5;strokeColor=#666666;fontColor=#333333;" parent="1" vertex="1">
          <mxGeometry x="510" y="224" width="30" height="30" as="geometry" />
        </mxCell>
        <mxCell id="sUNE9Ao9WOD159sY9nD--15" value="" style="rounded=0;whiteSpace=wrap;html=1;shadow=1;glass=0;sketch=1;fillColor=#f5f5f5;strokeColor=#666666;fontColor=#333333;" parent="1" vertex="1">
          <mxGeometry x="510" y="194" width="30" height="30" as="geometry" />
        </mxCell>
        <mxCell id="sUNE9Ao9WOD159sY9nD--16" value="" style="rounded=0;whiteSpace=wrap;html=1;shadow=1;glass=0;sketch=1;fillColor=#f5f5f5;strokeColor=#666666;fontColor=#333333;" parent="1" vertex="1">
          <mxGeometry x="540" y="224" width="30" height="30" as="geometry" />
        </mxCell>
        <mxCell id="sUNE9Ao9WOD159sY9nD--17" value="" style="rounded=0;whiteSpace=wrap;html=1;shadow=1;glass=0;sketch=1;fillColor=#f5f5f5;strokeColor=#666666;fontColor=#333333;" parent="1" vertex="1">
          <mxGeometry x="360" y="254" width="30" height="30" as="geometry" />
        </mxCell>
        <mxCell id="sUNE9Ao9WOD159sY9nD--18" value="" style="rounded=0;whiteSpace=wrap;html=1;shadow=1;glass=0;sketch=1;fillColor=#f5f5f5;strokeColor=#666666;fontColor=#333333;" parent="1" vertex="1">
          <mxGeometry x="330" y="254" width="30" height="30" as="geometry" />
        </mxCell>
        <mxCell id="sUNE9Ao9WOD159sY9nD--19" value="" style="rounded=0;whiteSpace=wrap;html=1;shadow=1;glass=0;sketch=1;fillColor=#f5f5f5;strokeColor=#666666;fontColor=#333333;" parent="1" vertex="1">
          <mxGeometry x="390" y="254" width="30" height="30" as="geometry" />
        </mxCell>
        <mxCell id="sUNE9Ao9WOD159sY9nD--20" value="" style="rounded=0;whiteSpace=wrap;html=1;shadow=1;glass=0;sketch=1;fillColor=#f5f5f5;strokeColor=#666666;fontColor=#333333;" parent="1" vertex="1">
          <mxGeometry x="450" y="254" width="30" height="30" as="geometry" />
        </mxCell>
        <mxCell id="sUNE9Ao9WOD159sY9nD--21" value="" style="rounded=0;whiteSpace=wrap;html=1;shadow=1;glass=0;sketch=1;fillColor=#f5f5f5;strokeColor=#666666;fontColor=#333333;" parent="1" vertex="1">
          <mxGeometry x="420" y="254" width="30" height="30" as="geometry" />
        </mxCell>
        <mxCell id="sUNE9Ao9WOD159sY9nD--22" value="" style="rounded=0;whiteSpace=wrap;html=1;shadow=1;glass=0;sketch=1;fillColor=#f5f5f5;strokeColor=#666666;fontColor=#333333;" parent="1" vertex="1">
          <mxGeometry x="480" y="254" width="30" height="30" as="geometry" />
        </mxCell>
        <mxCell id="sUNE9Ao9WOD159sY9nD--23" value="" style="rounded=0;whiteSpace=wrap;html=1;shadow=1;glass=0;sketch=1;fillColor=#f5f5f5;strokeColor=#666666;fontColor=#333333;" parent="1" vertex="1">
          <mxGeometry x="360" y="284" width="30" height="30" as="geometry" />
        </mxCell>
        <mxCell id="sUNE9Ao9WOD159sY9nD--24" value="" style="rounded=0;whiteSpace=wrap;html=1;shadow=1;glass=0;sketch=1;fillColor=#f5f5f5;strokeColor=#666666;fontColor=#333333;" parent="1" vertex="1">
          <mxGeometry x="330" y="284" width="30" height="30" as="geometry" />
        </mxCell>
        <mxCell id="sUNE9Ao9WOD159sY9nD--25" value="" style="rounded=0;whiteSpace=wrap;html=1;shadow=1;glass=0;sketch=1;fillColor=#f5f5f5;strokeColor=#666666;fontColor=#333333;" parent="1" vertex="1">
          <mxGeometry x="390" y="284" width="30" height="30" as="geometry" />
        </mxCell>
        <mxCell id="sUNE9Ao9WOD159sY9nD--26" value="" style="rounded=0;whiteSpace=wrap;html=1;shadow=1;glass=0;sketch=1;fillColor=#f5f5f5;strokeColor=#666666;fontColor=#333333;" parent="1" vertex="1">
          <mxGeometry x="450" y="284" width="30" height="30" as="geometry" />
        </mxCell>
        <mxCell id="sUNE9Ao9WOD159sY9nD--27" value="" style="rounded=0;whiteSpace=wrap;html=1;shadow=1;glass=0;sketch=1;fillColor=#f5f5f5;strokeColor=#666666;fontColor=#333333;" parent="1" vertex="1">
          <mxGeometry x="420" y="284" width="30" height="30" as="geometry" />
        </mxCell>
        <mxCell id="sUNE9Ao9WOD159sY9nD--28" value="" style="rounded=0;whiteSpace=wrap;html=1;shadow=1;glass=0;sketch=1;fillColor=#f5f5f5;strokeColor=#666666;fontColor=#333333;" parent="1" vertex="1">
          <mxGeometry x="480" y="284" width="30" height="30" as="geometry" />
        </mxCell>
        <mxCell id="sUNE9Ao9WOD159sY9nD--53" style="rounded=0;orthogonalLoop=1;jettySize=auto;html=1;entryX=0;entryY=0;entryDx=0;entryDy=0;exitX=1;exitY=0.667;exitDx=0;exitDy=0;exitPerimeter=0;" parent="1" source="sUNE9Ao9WOD159sY9nD--29" target="44AiBCDxBOzTBdy34bFM-166" edge="1">
          <mxGeometry relative="1" as="geometry" />
        </mxCell>
        <mxCell id="sUNE9Ao9WOD159sY9nD--29" value="" style="rounded=0;whiteSpace=wrap;html=1;shadow=1;glass=0;sketch=1;fillColor=#f5f5f5;strokeColor=#666666;fontColor=#333333;" parent="1" vertex="1">
          <mxGeometry x="540" y="254" width="30" height="30" as="geometry" />
        </mxCell>
        <mxCell id="sUNE9Ao9WOD159sY9nD--30" value="" style="rounded=0;whiteSpace=wrap;html=1;shadow=1;glass=0;sketch=1;fillColor=#f5f5f5;strokeColor=#666666;fontColor=#333333;" parent="1" vertex="1">
          <mxGeometry x="510" y="284" width="30" height="30" as="geometry" />
        </mxCell>
        <mxCell id="sUNE9Ao9WOD159sY9nD--31" value="" style="rounded=0;whiteSpace=wrap;html=1;shadow=1;glass=0;sketch=1;fillColor=#f5f5f5;strokeColor=#666666;fontColor=#333333;" parent="1" vertex="1">
          <mxGeometry x="510" y="254" width="30" height="30" as="geometry" />
        </mxCell>
        <mxCell id="sUNE9Ao9WOD159sY9nD--32" value="" style="rounded=0;whiteSpace=wrap;html=1;shadow=1;glass=0;sketch=1;fillColor=#f5f5f5;strokeColor=#666666;fontColor=#333333;" parent="1" vertex="1">
          <mxGeometry x="540" y="284" width="30" height="30" as="geometry" />
        </mxCell>
        <mxCell id="sUNE9Ao9WOD159sY9nD--33" value="" style="rounded=0;whiteSpace=wrap;html=1;shadow=1;glass=0;sketch=1;fillColor=#f5f5f5;strokeColor=#666666;fontColor=#333333;" parent="1" vertex="1">
          <mxGeometry x="360" y="314" width="30" height="30" as="geometry" />
        </mxCell>
        <mxCell id="sUNE9Ao9WOD159sY9nD--34" value="" style="rounded=0;whiteSpace=wrap;html=1;shadow=1;glass=0;sketch=1;fillColor=#f5f5f5;strokeColor=#666666;fontColor=#333333;" parent="1" vertex="1">
          <mxGeometry x="330" y="314" width="30" height="30" as="geometry" />
        </mxCell>
        <mxCell id="sUNE9Ao9WOD159sY9nD--35" value="" style="rounded=0;whiteSpace=wrap;html=1;shadow=1;glass=0;sketch=1;fillColor=#f5f5f5;strokeColor=#666666;fontColor=#333333;" parent="1" vertex="1">
          <mxGeometry x="390" y="314" width="30" height="30" as="geometry" />
        </mxCell>
        <mxCell id="sUNE9Ao9WOD159sY9nD--36" value="" style="rounded=0;whiteSpace=wrap;html=1;shadow=1;glass=0;sketch=1;fillColor=#f5f5f5;strokeColor=#666666;fontColor=#333333;" parent="1" vertex="1">
          <mxGeometry x="450" y="314" width="30" height="30" as="geometry" />
        </mxCell>
        <mxCell id="sUNE9Ao9WOD159sY9nD--37" value="" style="rounded=0;whiteSpace=wrap;html=1;shadow=1;glass=0;sketch=1;fillColor=#f5f5f5;strokeColor=#666666;fontColor=#333333;" parent="1" vertex="1">
          <mxGeometry x="420" y="314" width="30" height="30" as="geometry" />
        </mxCell>
        <mxCell id="sUNE9Ao9WOD159sY9nD--38" value="" style="rounded=0;whiteSpace=wrap;html=1;shadow=1;glass=0;sketch=1;fillColor=#f5f5f5;strokeColor=#666666;fontColor=#333333;" parent="1" vertex="1">
          <mxGeometry x="480" y="314" width="30" height="30" as="geometry" />
        </mxCell>
        <mxCell id="sUNE9Ao9WOD159sY9nD--39" value="" style="rounded=0;whiteSpace=wrap;html=1;shadow=1;glass=0;sketch=1;fillColor=#f5f5f5;strokeColor=#666666;fontColor=#333333;" parent="1" vertex="1">
          <mxGeometry x="360" y="344" width="30" height="30" as="geometry" />
        </mxCell>
        <mxCell id="sUNE9Ao9WOD159sY9nD--40" value="" style="rounded=0;whiteSpace=wrap;html=1;shadow=1;glass=0;sketch=1;fillColor=#f5f5f5;strokeColor=#666666;fontColor=#333333;" parent="1" vertex="1">
          <mxGeometry x="330" y="344" width="30" height="30" as="geometry" />
        </mxCell>
        <mxCell id="sUNE9Ao9WOD159sY9nD--41" value="" style="rounded=0;whiteSpace=wrap;html=1;shadow=1;glass=0;sketch=1;fillColor=#f5f5f5;strokeColor=#666666;fontColor=#333333;" parent="1" vertex="1">
          <mxGeometry x="390" y="344" width="30" height="30" as="geometry" />
        </mxCell>
        <mxCell id="sUNE9Ao9WOD159sY9nD--42" value="" style="rounded=0;whiteSpace=wrap;html=1;shadow=1;glass=0;sketch=1;fillColor=#f5f5f5;strokeColor=#666666;fontColor=#333333;" parent="1" vertex="1">
          <mxGeometry x="450" y="344" width="30" height="30" as="geometry" />
        </mxCell>
        <mxCell id="sUNE9Ao9WOD159sY9nD--43" value="" style="rounded=0;whiteSpace=wrap;html=1;shadow=1;glass=0;sketch=1;fillColor=#f5f5f5;strokeColor=#666666;fontColor=#333333;" parent="1" vertex="1">
          <mxGeometry x="420" y="344" width="30" height="30" as="geometry" />
        </mxCell>
        <mxCell id="sUNE9Ao9WOD159sY9nD--44" value="" style="rounded=0;whiteSpace=wrap;html=1;shadow=1;glass=0;sketch=1;fillColor=#f5f5f5;strokeColor=#666666;fontColor=#333333;" parent="1" vertex="1">
          <mxGeometry x="480" y="344" width="30" height="30" as="geometry" />
        </mxCell>
        <mxCell id="sUNE9Ao9WOD159sY9nD--45" value="" style="rounded=0;whiteSpace=wrap;html=1;shadow=1;glass=0;sketch=1;fillColor=#f5f5f5;strokeColor=#666666;fontColor=#333333;" parent="1" vertex="1">
          <mxGeometry x="540" y="314" width="30" height="30" as="geometry" />
        </mxCell>
        <mxCell id="sUNE9Ao9WOD159sY9nD--46" value="" style="rounded=0;whiteSpace=wrap;html=1;shadow=1;glass=0;sketch=1;fillColor=#f5f5f5;strokeColor=#666666;fontColor=#333333;" parent="1" vertex="1">
          <mxGeometry x="510" y="344" width="30" height="30" as="geometry" />
        </mxCell>
        <mxCell id="sUNE9Ao9WOD159sY9nD--47" value="" style="rounded=0;whiteSpace=wrap;html=1;shadow=1;glass=0;sketch=1;fillColor=#f5f5f5;strokeColor=#666666;fontColor=#333333;" parent="1" vertex="1">
          <mxGeometry x="510" y="314" width="30" height="30" as="geometry" />
        </mxCell>
        <mxCell id="sUNE9Ao9WOD159sY9nD--48" value="" style="rounded=0;whiteSpace=wrap;html=1;shadow=1;glass=0;sketch=1;fillColor=#f5f5f5;strokeColor=#666666;fontColor=#333333;" parent="1" vertex="1">
          <mxGeometry x="540" y="344" width="30" height="30" as="geometry" />
        </mxCell>
        <mxCell id="sUNE9Ao9WOD159sY9nD--49" value="6mer embedding" style="text;html=1;strokeColor=none;fillColor=none;align=center;verticalAlign=middle;whiteSpace=wrap;rounded=0;" parent="1" vertex="1">
          <mxGeometry x="385" y="384" width="160" height="20" as="geometry" />
        </mxCell>
      </root>
    </mxGraphModel>
  </diagram>
</mxfile>
